<?xml version="1.0" encoding="utf-8"?>
<!-- Generator: Adobe Illustrator 26.5.0, SVG Export Plug-In . SVG Version: 6.00 Build 0)  -->
<svg version="1.1" id="レイヤー_1" xmlns="http://www.w3.org/2000/svg" xmlns:xlink="http://www.w3.org/1999/xlink" x="0px"
	 y="0px" viewBox="0 0 300 150" style="enable-background:new 0 0 300 150;" xml:space="preserve">
<style type="text/css">
	.st0{display:none;}
	.st1{display:inline;fill:#FFFFFF;}
	.st2{display:inline;}
</style>
<g id="レイヤー_2_00000094619955198504712180000007432949538619522186_">
</g>
<g id="レイヤー_1_00000092414927750488019430000009870947830048138647_">
</g>
<g class="st0">
	<path class="st1" d="M-1218.8-2121.1c-2.4,0-4.3-0.4-5.6-1.2c-2.9-1.8-5.4-5.5-4.2-9.8c0.2-0.8,0.7-1.7,1.4-2.7l0.5-0.7l0.8-0.1
		c0.6-0.1,1.2-0.3,1.8-0.5c2.2-0.9,3.5-2.5,3.7-3.7l0.2-1.1l1-0.4c2.3-0.9,5.7-2,9.1-2.3c0.9-0.1,1.8-0.1,2.7-0.1
		c4.9,0,8.1,1.4,9.6,4.2c2.7,5.1,1.3,10.4-3.3,13.2c-3.9,2.4-11.4,4.3-12.6,4.6C-1214.8-2121.4-1216.8-2121.1-1218.8-2121.1
		L-1218.8-2121.1z"/>
	<path class="st2" d="M-1207.4-2141.6c3.9,0,6.7,0.9,7.8,3.2c2.3,4.4,1,8.4-2.6,10.6s-10.5,4-12,4.3c-0.8,0.2-2.7,0.5-4.6,0.5
		c-1.7,0-3.4-0.2-4.6-0.9c-2.2-1.3-4.2-4.1-3.3-7.5c0.2-0.7,0.6-1.4,1.1-2.1c0.7-0.1,1.5-0.3,2.3-0.7c2.6-1.1,4.5-3.2,4.9-5.1
		c2.1-0.8,5.3-1.9,8.5-2.1C-1209-2141.6-1208.2-2141.6-1207.4-2141.6 M-1207.4-2145.6c-0.9,0-1.8,0-2.8,0.1
		c-3.6,0.3-7.3,1.5-9.7,2.4l-2.1,0.8l-0.4,2.2c-0.1,0.3-0.8,1.4-2.5,2.2c-0.5,0.2-0.9,0.3-1.3,0.4l-1.6,0.3l-1,1.3
		c-0.9,1.2-1.4,2.3-1.7,3.4c-1.4,5.3,1.5,9.9,5.1,12c1.7,1,3.8,1.5,6.6,1.5c2.1,0,4.3-0.3,5.5-0.6c0.1,0,8.6-2,13.3-4.8
		c5.6-3.4,7.2-9.8,4-15.9C-1197.9-2143.8-1201.7-2145.6-1207.4-2145.6L-1207.4-2145.6z"/>
</g>
<path d="M207,81.7c2.6-24-5.6-39.8-13.4-49c-10.9-13-27.7-20.8-45-20.8l0,0c-17.2,0-34,7.8-45,20.8c-7.7,9.2-16,25-13.4,49
	c-2.6,1-4.1,3.8-3.6,6.6l5.8,32.8c0.6,3.3,3.7,5.4,7,4.9l12.7-2.2c1.3,4.7,5.3,7.7,10,7.7c0.7,0,1.3-0.1,2-0.2
	c2.8-0.5,5.2-2,6.8-4.1c1.7-2.3,2.3-5.1,1.8-8.1l-7.4-42.6c-0.5-3-2.1-5.5-4.4-7c-2.2-1.5-5-2-7.8-1.5c-4,0.7-6.9,3.3-8.1,6.7
	c-0.3-12.7,3.2-23.7,10.3-32.2c8.1-9.6,20.6-15.4,33.5-15.4l0,0c12.9,0,25.4,5.8,33.5,15.4c7.2,8.5,10.6,19.5,10.3,32.2
	c-1.2-3.4-4.2-6-8.1-6.7c-2.8-0.5-5.6,0.1-7.8,1.5c-2.3,1.6-3.9,4.1-4.4,7l-7.5,42.6c-0.5,3,0.1,5.8,1.8,8.1c1.6,2.2,4,3.6,6.8,4.1
	c0.7,0.1,1.3,0.2,2,0.2c4.7,0,8.8-3,10-7.7l3.6,0.6l-1.7,9.5l1.5,0.3l-2.3,12.9h3l2.2-12.4l1.5,0.3l1.7-9.5l3.3,0.6
	c3.3,0.6,6.4-1.6,7-4.9l5.8-32.8C211.1,85.5,209.6,82.8,207,81.7z M114.1,73.8c1.3-0.2,2.5,0,3.4,0.6c1,0.7,1.6,1.7,1.9,3.1
	l7.5,42.6c0.2,1.4,0,2.6-0.7,3.5s-1.7,1.5-3,1.8c-2.1,0.4-4.3-0.5-5.1-3.1l-7.8-44C110.2,75.7,112,74.2,114.1,73.8z M105.3,85
	l5.8,32.8l-10.7,1.9c-1.1,0.2-2.1-0.5-2.3-1.6L93,89.3c-0.2-1.1,0.5-2.1,1.6-2.3L105.3,85z M186.8,38.5c-9.2-11-23.5-17.5-38.1-17.5
	l0,0c-14.6,0-28.8,6.6-38.1,17.5c-6.5,7.7-13.4,21.1-11.4,41.5l-3,0.5c-2.2-21.6,5.1-35.7,12-44c9.8-11.7,24.9-18.6,40.4-18.6l0,0
	c15.5,0,30.6,7,40.4,18.6c6.9,8.2,14.3,22.4,12,44l-3-0.5C200.2,59.6,193.3,46.2,186.8,38.5z M179.3,122.3c-0.8,2.6-3,3.4-5.1,3.1
	c-1.3-0.2-2.3-0.9-3-1.8c-0.7-0.9-0.9-2.2-0.7-3.5l7.5-42.6c0.2-1.4,0.9-2.4,1.9-3.1c0.9-0.6,2.2-0.8,3.4-0.6c2,0.4,3.9,1.9,3.8,4.5
	L179.3,122.3z M204.4,89.2l-5.1,28.8c-0.2,1.1-1.2,1.8-2.3,1.6l-10.7-1.9l5.8-32.8l10.7,1.9C203.9,87.1,204.6,88.1,204.4,89.2z"/>
</svg>
