<svg data-name="그룹 1950" xmlns="http://www.w3.org/2000/svg" width="118.721" height="118.721" viewBox="0 0 118.721 118.721">
    <defs>
        <clipPath id="d0po396p8a">
            <path data-name="사각형 3606" style="fill:none" d="M0 0h118.721v118.721H0z"/>
        </clipPath>
    </defs>
    <g data-name="그룹 1949" style="clip-path:url(#d0po396p8a)">
        <path data-name="패스 2922" d="M59.36 118.721a59.361 59.361 0 1 1 59.361-59.36 59.428 59.428 0 0 1-59.361 59.36m0-78.2a18.838 18.838 0 1 0 18.84 18.84 18.859 18.859 0 0 0-18.84-18.839" style="fill:#fffaf8"/>
        <path data-name="패스 2923" d="M59.361 5a54.361 54.361 0 1 0 54.36 54.361A54.36 54.36 0 0 0 59.361 5m0 78.2A23.838 23.838 0 1 1 83.2 59.361 23.866 23.866 0 0 1 59.361 83.2" style="fill:#f2c300"/>
        <path data-name="패스 2924" d="m59.545 24.584 1.414-1.546a4.525 4.525 0 0 0 3.067 1.814c1.21.156 1.846-.307 1.923-.9.23-1.777-5.812-1.3-5.315-5.141.22-1.7 1.872-2.919 4.277-2.608a5.731 5.731 0 0 1 3.8 1.939L67.289 19.6a4.424 4.424 0 0 0-2.827-1.5c-.919-.119-1.491.212-1.57.825-.208 1.608 5.8 1.279 5.306 5.092-.242 1.869-1.771 3.1-4.513 2.75a5.948 5.948 0 0 1-4.14-2.186" style="fill:#13630d"/>
        <path data-name="사각형 3605" transform="rotate(-71.625 53.529 -33.824)" style="fill:#13630d" d="M0 0h10.303v2.193H0z"/>
        <path data-name="패스 2925" d="m79.958 33.287 4-6.262-6.444 4.7-.814-.515 1.549-7.825-4 6.263-1.848-1.18 5.542-8.684 2.591 1.653-1.356 6.775 5.574-4.083 2.6 1.662-5.532 8.684z" style="fill:#13630d"/>
        <path data-name="패스 2926" d="m88.04 42.563 5.993-4.394-7.71 2.052-.567-.773 4.275-6.736-5.992 4.394-1.3-1.769 8.31-6.093 1.817 2.48-3.715 5.827 6.675-1.791 1.827 2.492-8.31 6.093z" style="fill:#13630d"/>
        <path data-name="패스 2927" d="M94.6 43.644a5.384 5.384 0 0 1 2.97 10.351 5.384 5.384 0 0 1-2.97-10.351m2.345 8.183a3.138 3.138 0 1 0-4.112-2.068 3.117 3.117 0 0 0 4.112 2.068" style="fill:#13630d"/>
        <path data-name="패스 2928" d="m92.272 63.342 6.928-4.608-6.714-.3.1-2.191 10.294.459-.1 2.253-6.68 4.48 6.466.289-.1 2.191-10.293-.459z" style="fill:#13630d"/>
        <path data-name="패스 2929" d="m93.383 66.618 1.223 1.7A4.526 4.526 0 0 0 92.2 70.95c-.4 1.152-.079 1.869.49 2.067 1.692.59 2.462-5.423 6.123-4.147 1.619.563 2.473 2.431 1.675 4.721a5.73 5.73 0 0 1-2.677 3.32l-1.144-1.691a4.419 4.419 0 0 0 2.05-2.459c.305-.875.1-1.5-.485-1.706-1.531-.533-2.441 5.414-6.073 4.149-1.78-.62-2.675-2.371-1.765-4.982a5.947 5.947 0 0 1 2.989-3.6" style="fill:#13630d"/>
    </g>
</svg>
