<svg id="그룹_2164" data-name="그룹 2164" xmlns="http://www.w3.org/2000/svg" width="290.499" height="107.68" viewBox="0 0 290.499 107.68">
  <defs>
    <style>
      .cls-1 {
        fill: #fff;
      }

      .cls-2 {
        fill: #4ca56b;
      }

      .cls-3 {
        fill: none;
      }
    </style>
  </defs>
  <g id="그룹_1913" data-name="그룹 1913" transform="translate(0 0.002)">
    <path id="패스_2895" data-name="패스 2895" d="M34.4,108.4a30.75,30.75,0,0,1-3.638-.217,29.756,29.756,0,0,1-17.756-8.321A22.1,22.1,0,0,1,6.563,87.918a19.381,19.381,0,0,1,4.751-17.261A17.776,17.776,0,0,1,20.6,65.133a20.081,20.081,0,0,1,4.612-.557A17.416,17.416,0,0,1,33.385,66.6,11.471,11.471,0,0,1,37.9,70.786c.138.222.269.455.388.692a4,4,0,0,1,.348,1.029,3.538,3.538,0,0,1-1.427,3.718,2.265,2.265,0,0,0,.805.147,19.489,19.489,0,0,0,9.255-2.529A33.356,33.356,0,0,0,53.9,68.894a24.779,24.779,0,0,1-5.6.632c-.87,0-1.762-.045-2.65-.132a24.24,24.24,0,0,1-12.417-5.045,25.265,25.265,0,0,1-9.309-13.867,24.244,24.244,0,0,1-.412-10.433c1.349-7.829,5.2-14.591,11.776-20.672A47.148,47.148,0,0,1,50.8,9.969,58.926,58.926,0,0,1,63.086,6.854a67.446,67.446,0,0,1,9.939-.683c1.744,0,3.547.052,5.51.161A72.56,72.56,0,0,1,91.2,8.126a49.894,49.894,0,0,1,18.188,7.941,31.908,31.908,0,0,1,9.361,10.305,27.075,27.075,0,0,1,2.441,20.672,27.485,27.485,0,0,1-6.009,10.843A34.3,34.3,0,0,1,104.472,65.9a21.013,21.013,0,0,1,4.152,8.1,22.651,22.651,0,0,1,.433,8.937,25.753,25.753,0,0,1-6.827,14.215,32.38,32.38,0,0,1-12.1,8.127,36.3,36.3,0,0,1-13.316,2.606q-.9,0-1.8-.047a24.2,24.2,0,0,1-14.687-5.353,14.3,14.3,0,0,1-2.6-2.787,44.01,44.01,0,0,1-10.46,6.074A34.447,34.447,0,0,1,34.4,108.4M71.98,85.061a6.417,6.417,0,0,0,.791.049,7.061,7.061,0,0,0,1.818-.246,12.938,12.938,0,0,0,5.625-3.512A26.688,26.688,0,0,0,87.084,70.7c.946-2.806.706-5.027-.752-6.986a3.831,3.831,0,0,1-.237-.359l-.97,1.6c-3.711,6.113-7.713,12.592-12.249,18.7a10.827,10.827,0,0,0-.9,1.409M99.2,42.985a52.035,52.035,0,0,0-3.752,5.228q-1.507,2.377-3,4.781A34.366,34.366,0,0,0,99.2,42.985M60.791,34.019a3.518,3.518,0,0,1,.706.072c.2.041.4.074.582.105a11.108,11.108,0,0,1,1.9.448,12.941,12.941,0,0,1,8.13,8.284,13.588,13.588,0,0,1,.677,2.769c.984-1.261,2.021-2.572,3.068-3.869a51.264,51.264,0,0,1,10.271-9.82,27.167,27.167,0,0,1,9.64-4.513,20.488,20.488,0,0,0-3.73-1.9A33.152,33.152,0,0,0,79.766,23.3c-.725,0-1.466.021-2.205.064A26.428,26.428,0,0,0,62.742,28.86a17.576,17.576,0,0,0-5.248,6.084,5.251,5.251,0,0,0-.678,3.924,2.15,2.15,0,0,0,.173.451,2.262,2.262,0,0,0,.3.023.573.573,0,0,0,.341-.064c-.037-.108-.212-.678-.212-.678a3.53,3.53,0,0,1,3.371-4.581" transform="translate(-0.723 -0.724)"/>
    <path id="패스_2896" data-name="패스 2896" d="M251.018,103.862a4.3,4.3,0,0,1-.72-.071,3.532,3.532,0,0,1-2.065-1.115,15.934,15.934,0,0,1-1.745.472,15.2,15.2,0,0,1-3.13.343,12.294,12.294,0,0,1-4.072-.68,9.794,9.794,0,0,1-6.057-6.175q-.5.572-1.018,1.114a17.954,17.954,0,0,1-7.728,5.074,11.952,11.952,0,0,1-3.556.548,11.354,11.354,0,0,1-10.755-7.733,19.461,19.461,0,0,1-.869-8.609c.592-6.177,2.613-12.216,6.361-19a57.3,57.3,0,0,1,9.29-12.555,35.338,35.338,0,0,1,9.564-7.142,19.383,19.383,0,0,1,8.651-2.188l.347,0a9.886,9.886,0,0,1,6.953,2.8,4.319,4.319,0,0,1,3.412-1.489c2.362.017,4.682.021,7,.021l7.175,0a3.532,3.532,0,0,1,3.2,5.031l-1.105,2.356L269.135,57q.514-1.055,1.027-2.11c.58-1.193,1.139-2.454,1.679-3.674l.515-1.157a4.24,4.24,0,0,1,3.951-2.6c3.018.01,6.02.011,9.022.011h5.21c.19,0,.381.011.639.033l.241.019a3.493,3.493,0,0,1,2.219,1.006,20.7,20.7,0,0,1,1.976-.911,18.643,18.643,0,0,1,6.906-1.4,16.156,16.156,0,0,1,5.714,1.047,10.221,10.221,0,0,1,6.6,8.418,18.869,18.869,0,0,1-1.45,9.83,61.336,61.336,0,0,1-4.206,8.368s-1.551,2.731-1.642,2.889a4.874,4.874,0,0,1,1.125-.984,3.531,3.531,0,0,1,5.226,4.132l-.1.3c-.1.295-.2.6-.314.889A47.125,47.125,0,0,1,304.7,95.755a23.078,23.078,0,0,1-9.277,6.664,17.044,17.044,0,0,1-5.837,1.1,14.246,14.246,0,0,1-5.84-1.249,9.9,9.9,0,0,1-5.616-7,15.816,15.816,0,0,1-.455-3.684q-1.756,3.9-3.5,7.805a4.237,4.237,0,0,1-3.975,2.664,5.39,5.39,0,0,1-.791-.061,42.255,42.255,0,0,0-6.1-.509c-.867,0-1.712.041-2.511.12a31.652,31.652,0,0,0-7.817,1.782c-.272.1-.544.2-.817.289a3.645,3.645,0,0,1-1.148.188" transform="translate(-24.511 -5.408)"/>
    <path id="패스_2897" data-name="패스 2897" d="M179.025,103.876a24.652,24.652,0,0,1-2.656-.145,14.04,14.04,0,0,1-10.78-6.279,35.67,35.67,0,0,1-3.892,2.7,24.763,24.763,0,0,1-5.975,2.683,15.483,15.483,0,0,1-4.114.589,12.538,12.538,0,0,1-5.667-1.332,9.76,9.76,0,0,1-4.727-5.2,28.816,28.816,0,0,1-2.043,2.046,15.865,15.865,0,0,1-6.8,3.892,13.163,13.163,0,0,1-3.275.419,11.182,11.182,0,0,1-11.062-8.329,16.4,16.4,0,0,1-.169-7.967,64.9,64.9,0,0,1,4.465-13.316c3.556-8.209,7.786-16.112,11.83-23.43a5.178,5.178,0,0,1,4.814-2.859c2.314.025,4.542.032,6.769.032l7.892-.008a3.542,3.542,0,0,1,2.865,1.464c.062.086.119.174.173.264a4.474,4.474,0,0,1,3.678-1.741c2.8.012,5.569.015,8.339.015l7.627,0a3.532,3.532,0,0,1,3.235,4.948l-.194.447c-.139.323-.262.607-.393.887l-3.212,6.877q-2.973,6.362-5.926,12.7l.149-.22c3.787-5.593,7.438-11.581,11.159-18.307a17.06,17.06,0,0,1,8.882-8.156,17.514,17.514,0,0,1,6.3-1.239,15.134,15.134,0,0,1,7.861,2.217,13.914,13.914,0,0,1,1.963,1.488c.217.188.407.353.607.513a3.531,3.531,0,0,1-1,6.065c-.311.115-.6.215-.886.31a8.974,8.974,0,0,0-.991.371c-.711.355-1.435.951-1.925,2.893a12.914,12.914,0,0,0-.008,5.443c.192,1.109.4,2.215.6,3.322l.02.106c.387,2.091.787,4.254,1.109,6.43A25.347,25.347,0,0,1,191.941,100.1a24.179,24.179,0,0,1-12.917,3.775" transform="translate(-13.765 -5.311)"/>
    <path id="패스_2898" data-name="패스 2898" d="M28.231,102.232a30.748,30.748,0,0,1-3.638-.217A29.755,29.755,0,0,1,6.837,93.693,22.1,22.1,0,0,1,.393,81.748,19.381,19.381,0,0,1,5.144,64.487a17.776,17.776,0,0,1,9.282-5.524,20.082,20.082,0,0,1,4.612-.557,17.416,17.416,0,0,1,8.177,2.024,11.471,11.471,0,0,1,4.513,4.185c.138.222.269.455.388.692a4,4,0,0,1,.348,1.029,3.538,3.538,0,0,1-1.427,3.718,2.265,2.265,0,0,0,.805.147A19.489,19.489,0,0,0,41.1,67.673a33.356,33.356,0,0,0,6.631-4.949,24.779,24.779,0,0,1-5.6.632c-.87,0-1.762-.045-2.65-.132a24.24,24.24,0,0,1-12.417-5.045,25.265,25.265,0,0,1-9.309-13.867,24.244,24.244,0,0,1-.412-10.433c1.349-7.829,5.2-14.591,11.776-20.672A47.147,47.147,0,0,1,44.626,3.8,58.926,58.926,0,0,1,56.916.684,67.446,67.446,0,0,1,66.855,0C68.6,0,70.4.053,72.365.162A72.56,72.56,0,0,1,85.031,1.956,49.894,49.894,0,0,1,103.218,9.9,31.908,31.908,0,0,1,112.579,20.2a27.075,27.075,0,0,1,2.441,20.672,27.486,27.486,0,0,1-6.009,10.843A34.3,34.3,0,0,1,98.3,59.73a21.013,21.013,0,0,1,4.152,8.1,22.651,22.651,0,0,1,.433,8.937,25.753,25.753,0,0,1-6.827,14.215,32.38,32.38,0,0,1-12.1,8.127,36.3,36.3,0,0,1-13.316,2.606q-.9,0-1.8-.047a24.2,24.2,0,0,1-14.687-5.353,14.3,14.3,0,0,1-2.6-2.787A44.01,44.01,0,0,1,41.1,99.6a34.447,34.447,0,0,1-12.872,2.628M65.81,78.891a6.416,6.416,0,0,0,.791.049,7.061,7.061,0,0,0,1.818-.246,12.938,12.938,0,0,0,5.625-3.512,26.688,26.688,0,0,0,6.87-10.654c.946-2.806.706-5.027-.752-6.986a3.831,3.831,0,0,1-.237-.359l-.97,1.6c-3.711,6.113-7.713,12.592-12.249,18.7a10.827,10.827,0,0,0-.9,1.409M93.03,36.815a52.036,52.036,0,0,0-3.752,5.228q-1.507,2.377-3,4.781A34.366,34.366,0,0,0,93.03,36.815M54.621,27.849a3.518,3.518,0,0,1,.706.072c.2.042.4.074.582.105a11.108,11.108,0,0,1,1.9.448,12.941,12.941,0,0,1,8.13,8.284,13.589,13.589,0,0,1,.677,2.769c.984-1.261,2.021-2.572,3.068-3.869a51.264,51.264,0,0,1,10.271-9.82,27.167,27.167,0,0,1,9.64-4.513,20.488,20.488,0,0,0-3.73-1.9A33.152,33.152,0,0,0,73.6,17.135c-.725,0-1.466.021-2.205.064A26.428,26.428,0,0,0,56.572,22.69a17.576,17.576,0,0,0-5.248,6.084,5.251,5.251,0,0,0-.678,3.924,2.149,2.149,0,0,0,.173.451,2.262,2.262,0,0,0,.3.023.573.573,0,0,0,.341-.064c-.037-.108-.212-.678-.212-.678a3.53,3.53,0,0,1,3.371-4.581" transform="translate(0 -0.001)"/>
    <path id="패스_2899" data-name="패스 2899" d="M244.848,97.692a4.3,4.3,0,0,1-.72-.071,3.532,3.532,0,0,1-2.065-1.115,15.93,15.93,0,0,1-1.745.472,15.2,15.2,0,0,1-3.131.343,12.294,12.294,0,0,1-4.072-.68,9.794,9.794,0,0,1-6.057-6.175q-.5.572-1.018,1.114a17.954,17.954,0,0,1-7.728,5.074,11.952,11.952,0,0,1-3.556.548A11.356,11.356,0,0,1,204,89.469a19.474,19.474,0,0,1-.868-8.609c.592-6.177,2.613-12.216,6.361-19a57.3,57.3,0,0,1,9.29-12.555,35.337,35.337,0,0,1,9.564-7.142A19.383,19.383,0,0,1,237,39.971l.347,0a9.886,9.886,0,0,1,6.953,2.8,4.319,4.319,0,0,1,3.412-1.489c2.362.017,4.682.021,7,.021l7.175,0a3.532,3.532,0,0,1,3.2,5.031l-1.105,2.356-1.012,2.14q.514-1.055,1.027-2.11c.58-1.193,1.139-2.454,1.679-3.674l.515-1.157a4.24,4.24,0,0,1,3.952-2.6c3.018.01,6.02.011,9.022.011h5.209c.19,0,.381.011.639.033l.241.019a3.493,3.493,0,0,1,2.219,1.006,20.715,20.715,0,0,1,1.976-.911,18.643,18.643,0,0,1,6.906-1.4,16.156,16.156,0,0,1,5.714,1.047,10.221,10.221,0,0,1,6.6,8.418,18.868,18.868,0,0,1-1.45,9.83,61.326,61.326,0,0,1-4.206,8.368s-1.551,2.731-1.642,2.889a4.876,4.876,0,0,1,1.125-.984,3.531,3.531,0,0,1,5.226,4.132l-.1.3c-.1.295-.2.6-.314.889a47.124,47.124,0,0,1-8.777,14.644,23.079,23.079,0,0,1-9.277,6.664,17.044,17.044,0,0,1-5.837,1.1,14.246,14.246,0,0,1-5.84-1.249,9.9,9.9,0,0,1-5.616-7,15.824,15.824,0,0,1-.455-3.684q-1.756,3.9-3.5,7.805a4.237,4.237,0,0,1-3.975,2.664,5.391,5.391,0,0,1-.791-.061,42.257,42.257,0,0,0-6.1-.509c-.867,0-1.712.041-2.511.12a31.653,31.653,0,0,0-7.817,1.782c-.272.1-.544.2-.817.289a3.646,3.646,0,0,1-1.149.188" transform="translate(-23.788 -4.684)"/>
    <path id="패스_2900" data-name="패스 2900" d="M172.854,97.706a24.654,24.654,0,0,1-2.656-.145,14.04,14.04,0,0,1-10.78-6.279,35.678,35.678,0,0,1-3.892,2.7,24.764,24.764,0,0,1-5.975,2.683,15.483,15.483,0,0,1-4.114.589,12.538,12.538,0,0,1-5.667-1.332,9.76,9.76,0,0,1-4.727-5.2A28.822,28.822,0,0,1,133,92.774a15.865,15.865,0,0,1-6.8,3.892,13.164,13.164,0,0,1-3.275.419,11.182,11.182,0,0,1-11.062-8.329,16.405,16.405,0,0,1-.169-7.967,64.9,64.9,0,0,1,4.466-13.316c3.555-8.209,7.786-16.112,11.829-23.43a5.178,5.178,0,0,1,4.814-2.859c2.314.025,4.542.032,6.769.032l7.892-.008a3.542,3.542,0,0,1,2.865,1.464c.062.086.119.174.173.264a4.474,4.474,0,0,1,3.678-1.741c2.8.012,5.569.015,8.339.015l7.627,0a3.532,3.532,0,0,1,3.235,4.948l-.194.447c-.139.323-.262.607-.393.887l-3.212,6.877q-2.973,6.362-5.925,12.7l.149-.22c3.787-5.593,7.438-11.581,11.159-18.307a17.06,17.06,0,0,1,8.882-8.156,17.514,17.514,0,0,1,6.3-1.239,15.134,15.134,0,0,1,7.861,2.217,13.913,13.913,0,0,1,1.963,1.488c.217.188.407.353.607.513a3.531,3.531,0,0,1-1,6.065c-.311.115-.6.215-.886.31a8.97,8.97,0,0,0-.991.371c-.711.355-1.436.951-1.925,2.893a12.913,12.913,0,0,0-.008,5.443c.192,1.109.4,2.215.6,3.322l.02.106c.387,2.091.787,4.254,1.109,6.43A25.347,25.347,0,0,1,185.77,93.931a24.179,24.179,0,0,1-12.917,3.775" transform="translate(-13.041 -4.588)"/>
  </g>
  <g id="그룹_1912" data-name="그룹 1912" transform="translate(1.771 1.766)">
    <path id="패스_2901" data-name="패스 2901" class="cls-1" d="M280.825,66.391a1.76,1.76,0,0,0-.943.273A3.563,3.563,0,0,0,278.86,67.7c-.269.372-.533.747-.8,1.123-.609.867-1.186,1.686-1.819,2.45a4.153,4.153,0,0,1-2.656,1.648,1.317,1.317,0,0,1-.191.015l-.045,0c0-.019,0-.04,0-.064a9.591,9.591,0,0,1,.465-2.43,30.567,30.567,0,0,1,2.732-5.629l1.367-2.409a59.872,59.872,0,0,0,4.1-8.133,17.25,17.25,0,0,0,1.353-8.93,8.417,8.417,0,0,0-5.479-7.033,14.4,14.4,0,0,0-5.091-.933,16.888,16.888,0,0,0-6.253,1.277,18.864,18.864,0,0,0-3.348,1.74,1.766,1.766,0,0,0-1.64-1.715l-.25-.019c-.2-.017-.345-.027-.491-.027h-5.209q-4.506,0-9.022-.011a2.457,2.457,0,0,0-2.339,1.546l-.507,1.141c-.549,1.239-1.117,2.52-1.713,3.746q-3.092,6.366-6.2,12.725-2.615,5.357-5.225,10.716a9.806,9.806,0,0,1-2.761,3.637,3.822,3.822,0,0,1-1.762.807,1.4,1.4,0,0,1-.2.017h-.044a1.125,1.125,0,0,1-.014-.194,4.894,4.894,0,0,1,.157-1.15,29.785,29.785,0,0,1,2.191-5.536l10.664-22.571,1.105-2.356a1.767,1.767,0,0,0-1.6-2.516l-7.176,0c-2.324,0-4.648,0-7-.021a2.643,2.643,0,0,0-2.642,1.865c-.163.426-.333.862-.508,1.309a7.706,7.706,0,0,0-7.235-4.488l-.327,0a17.679,17.679,0,0,0-7.873,2.007,33.652,33.652,0,0,0-9.084,6.8,55.533,55.533,0,0,0-9,12.169,56.737,56.737,0,0,0-4.26,9.524,25.372,25.372,0,0,0-.275-3.575c-.316-2.14-.714-4.29-1.1-6.368-.212-1.149-.425-2.3-.624-3.447a14.6,14.6,0,0,1,.034-6.178,5.567,5.567,0,0,1,2.848-4.041,10.065,10.065,0,0,1,1.215-.464c.268-.09.549-.185.844-.293a1.766,1.766,0,0,0,.5-3.032c-.225-.182-.441-.368-.652-.551a12.3,12.3,0,0,0-1.718-1.312,13.392,13.392,0,0,0-6.953-1.966,15.741,15.741,0,0,0-5.664,1.121,15.363,15.363,0,0,0-7.973,7.364c-3.748,6.775-7.425,12.807-11.242,18.442a53.249,53.249,0,0,1-6.072,7.769,13.432,13.432,0,0,1-1.6,1.37.765.765,0,0,1,.02-.176c.082-.267.162-.538.241-.808a18.378,18.378,0,0,1,.86-2.487q4.606-9.953,9.261-19.883l3.212-6.876c.124-.265.24-.534.373-.843l.2-.453a1.766,1.766,0,0,0-1.617-2.475l-7.627,0c-2.773,0-5.547,0-8.339-.015a2.754,2.754,0,0,0-2.658,1.672q-5.357,11.129-10.759,22.235a34.553,34.553,0,0,1-3.936,6.555,7.767,7.767,0,0,1-.918.982,2.63,2.63,0,0,1,.143-.591l.256-.657c.682-1.749,1.386-3.557,2.184-5.254q3.619-7.7,7.3-15.376l3.092-6.491a3.921,3.921,0,0,0,.2-.557l.057-.185a1.767,1.767,0,0,0-1.676-2.321l-7.893.008c-2.234,0-4.469-.006-6.769-.032a3.439,3.439,0,0,0-3.269,1.947c-4.021,7.28-8.229,15.139-11.754,23.278a77.845,77.845,0,0,0-3.388,9.048,19.145,19.145,0,0,0-.609-4.357,19.821,19.821,0,0,0-5.391-9.169,33.09,33.09,0,0,0,12.339-8.572,25.733,25.733,0,0,0,5.628-10.15A25.308,25.308,0,0,0,111.273,21.3a30.176,30.176,0,0,0-8.858-9.739A48.186,48.186,0,0,0,84.858,3.908,70.728,70.728,0,0,0,72.5,2.158C70.573,2.052,68.8,2,67.09,2a65.659,65.659,0,0,0-9.681.665,57.1,57.1,0,0,0-11.925,3.02,45.411,45.411,0,0,0-14.931,9.05c-6.28,5.808-9.955,12.244-11.235,19.676a22.49,22.49,0,0,0,.378,9.678A23.54,23.54,0,0,0,28.37,57.008,22.488,22.488,0,0,0,39.89,61.7c.831.082,1.663.124,2.475.124a22.877,22.877,0,0,0,12.123-3.449c.133-.082.267-.165.4-.249-1.194,1.426-2.427,2.818-3.71,4.144a38.5,38.5,0,0,1-8.987,7.181A21.2,21.2,0,0,1,32.077,72.2a3.433,3.433,0,0,1-3.359-2.173.509.509,0,0,1,.478-.806c.125-.026.25-.057.38-.091l.115-.03a1.805,1.805,0,0,0,1.277-2.178,2.27,2.27,0,0,0-.2-.588c-.1-.192-.2-.38-.315-.561a9.727,9.727,0,0,0-3.83-3.546A15.677,15.677,0,0,0,19.273,60.4a18.383,18.383,0,0,0-4.206.509A16.047,16.047,0,0,0,6.692,65.9,17.689,17.689,0,0,0,2.364,81.661,20.372,20.372,0,0,0,8.308,92.667,28.028,28.028,0,0,0,25.038,100.5a28.889,28.889,0,0,0,3.428.2,32.7,32.7,0,0,0,12.211-2.5,43.308,43.308,0,0,0,11.3-6.831l.3-.25a12.062,12.062,0,0,0,3.243,4.071,22.5,22.5,0,0,0,13.655,4.952q.855.045,1.7.045A34.54,34.54,0,0,0,83.551,97.7,30.642,30.642,0,0,0,95,90.02a24.676,24.676,0,0,0,5.293-8.756,12.434,12.434,0,0,0,.464,2.644,9.471,9.471,0,0,0,9.367,7.058,11.385,11.385,0,0,0,2.837-.364,14.183,14.183,0,0,0,6.051-3.491,29.182,29.182,0,0,0,4.03-4.534,14.254,14.254,0,0,0,.423,1.955,8.4,8.4,0,0,0,4.292,5.46,10.783,10.783,0,0,0,4.876,1.145,13.728,13.728,0,0,0,3.643-.524,23.094,23.094,0,0,0,5.541-2.5,36.716,36.716,0,0,0,5.328-3.925c.062.149.128.3.2.448,1.933,3.94,5.473,6.3,10.239,6.814a22.941,22.941,0,0,0,2.465.135,22.437,22.437,0,0,0,11.984-3.509,23.511,23.511,0,0,0,9.24-10.664,17.17,17.17,0,0,0,.838,7.015,9.609,9.609,0,0,0,9.091,6.556,10.186,10.186,0,0,0,3.032-.468,16.272,16.272,0,0,0,6.979-4.61,31.978,31.978,0,0,0,3.184-3.92,15.4,15.4,0,0,0,.57,2.834,8.132,8.132,0,0,0,5.179,5.7,10.531,10.531,0,0,0,3.488.581,13.527,13.527,0,0,0,2.767-.3,14.205,14.205,0,0,0,2.948-.967,1.926,1.926,0,0,0,.184.623,1.829,1.829,0,0,0,1.369.978,2.579,2.579,0,0,0,.395.041,1.876,1.876,0,0,0,.584-.1q.387-.13.77-.271a33.421,33.421,0,0,1,8.253-1.884c.857-.085,1.761-.128,2.686-.128a43.854,43.854,0,0,1,6.352.528,3.819,3.819,0,0,0,.538.042,2.466,2.466,0,0,0,2.362-1.616q1.94-4.357,3.9-8.7l2.287-5.087a130.182,130.182,0,0,1,7.8-15.43,18.769,18.769,0,0,1,3.414-4.374,4.46,4.46,0,0,1,.436-.348,2.415,2.415,0,0,1-.187.554c-1.548,3.076-2.769,5.4-3.96,7.548l-.138.247c-2.33,4.194-4.739,8.532-5.986,13.424a16.737,16.737,0,0,0-.283,8.344,8.084,8.084,0,0,0,4.62,5.808,12.491,12.491,0,0,0,5.121,1.1,15.3,15.3,0,0,0,5.232-.989,21.394,21.394,0,0,0,8.57-6.189,45.392,45.392,0,0,0,8.445-14.107c.1-.263.193-.532.283-.8l.1-.313a1.766,1.766,0,0,0-1.67-2.339M57.459,30.372A9.317,9.317,0,0,0,55.877,30c-.213-.036-.434-.073-.668-.121a1.762,1.762,0,0,0-1.666.548,1.765,1.765,0,0,0-.371,1.714l.1.313c.068.224.116.373.173.517a1.109,1.109,0,0,1-.108,1.143,2.169,2.169,0,0,1-1.978,1.051,4.13,4.13,0,0,1-.6-.046c-.561-.083-1.187-.35-1.574-1.71a6.929,6.929,0,0,1,.8-5.195,19.3,19.3,0,0,1,5.754-6.7A28.166,28.166,0,0,1,71.523,15.67c.772-.044,1.549-.067,2.308-.067A34.9,34.9,0,0,1,86.75,18.015a18.9,18.9,0,0,1,7.023,4.549q.081.086.159.177l-.449.047a27.723,27.723,0,0,0-2.808.391,25.173,25.173,0,0,0-9.465,4.332A49.492,49.492,0,0,0,71.293,37c-2.261,2.8-4.482,5.677-6.656,8.529a12.718,12.718,0,0,0-.124-7.942,11.252,11.252,0,0,0-7.053-7.214M85.7,50.234l-.141.122a5.232,5.232,0,0,1-1.095.809,5.72,5.72,0,0,0-2.785,3l-.086.166a2.344,2.344,0,0,0,.221,2.391c1.811,2.432,2.141,5.247,1.01,8.6a28.447,28.447,0,0,1-7.314,11.357,14.593,14.593,0,0,1-6.4,3.951,8.794,8.794,0,0,1-2.274.307,8.332,8.332,0,0,1-2.045-.258,1.4,1.4,0,0,1-.874-.468,1.381,1.381,0,0,1,.132-.97,11.462,11.462,0,0,1,1.473-2.58C70.012,70.612,73.99,64.173,77.679,58.1c3.289-5.417,6.8-11.174,10.342-16.765A47.372,47.372,0,0,1,94.463,33.1a19.106,19.106,0,0,1,2.378-2.061A15.836,15.836,0,0,1,95.634,36,36.027,36.027,0,0,1,85.7,50.234m77.895,14.941a18.97,18.97,0,0,1-.414,3.057,6.139,6.139,0,0,1-3.9,4.572,3.558,3.558,0,0,1-1.256.26,2.858,2.858,0,0,1-.855-.139.2.2,0,0,1,.037-.086l6.327-9.534v.475a1.761,1.761,0,0,0,.122.644q-.033.375-.064.75m46.263-4.336a47.251,47.251,0,0,1-4.781,8.193c-.177.231-.358.446-.545.645a21.147,21.147,0,0,1,1.538-5.437A48.157,48.157,0,0,1,211.4,54.177a15.862,15.862,0,0,1,1.871-2.331,46.163,46.163,0,0,1-3.418,8.992" transform="translate(-2.004 -2)"/>
  </g>
  <g id="그룹_1911" data-name="그룹 1911" transform="translate(3.538 3.533)">
    <path id="패스_2902" data-name="패스 2902" class="cls-2" d="M93.052,59.439c-.162-.136-.313-.283-.524-.476.274-.115.467-.209.669-.279a31.736,31.736,0,0,0,13.649-8.85,23.9,23.9,0,0,0,5.247-9.458A23.534,23.534,0,0,0,109.968,22.4a28.642,28.642,0,0,0-8.355-9.175A46.524,46.524,0,0,0,84.686,5.861a68.584,68.584,0,0,0-12.048-1.7,72.941,72.941,0,0,0-14.736.49A55.735,55.735,0,0,0,46.341,7.572a43.4,43.4,0,0,0-14.355,8.694c-5.517,5.1-9.4,11.161-10.694,18.68a20.666,20.666,0,0,0,.344,8.923,21.727,21.727,0,0,0,8.039,11.97A20.677,20.677,0,0,0,40.3,60.177,21.206,21.206,0,0,0,53.8,57.1a20.51,20.51,0,0,0,9.217-11.312,11.132,11.132,0,0,0,.068-7.376,9.538,9.538,0,0,0-5.976-6.144,16.136,16.136,0,0,0-2.018-.425c.117.373.16.545.225.707a2.865,2.865,0,0,1-.276,2.775,4.086,4.086,0,0,1-4.3,1.776,3.663,3.663,0,0,1-3.017-2.974,8.743,8.743,0,0,1,.913-6.463,21.128,21.128,0,0,1,6.261-7.312,29.834,29.834,0,0,1,16.764-6.216,37.07,37.07,0,0,1,15.98,2.467A20.7,20.7,0,0,1,95.3,21.591,8.475,8.475,0,0,1,96.588,23.4c.365.687.029,1.174-.746,1.243-.328.029-.662-.008-.988.031-1.2.14-2.408.222-3.586.467a23.515,23.515,0,0,0-8.8,4.044A48.078,48.078,0,0,0,72.9,38.344c-3.25,4.025-6.374,8.151-9.5,12.274A140.683,140.683,0,0,1,52.68,63.732a40.593,40.593,0,0,1-9.4,7.5A22.781,22.781,0,0,1,32.39,74.2a5.2,5.2,0,0,1-5.12-3.407,2.222,2.222,0,0,1,1.819-3.07c.133-.026.264-.064.41-.1a1.4,1.4,0,0,0-.067-.26c-.074-.147-.156-.29-.242-.43a7.972,7.972,0,0,0-3.146-2.908,14.4,14.4,0,0,0-10.334-1.157,14.3,14.3,0,0,0-7.47,4.45,15.982,15.982,0,0,0-3.9,14.26A18.61,18.61,0,0,0,9.781,91.642a26.211,26.211,0,0,0,15.7,7.335A29.637,29.637,0,0,0,40.252,96.8a41.78,41.78,0,0,0,10.841-6.561c.717-.585,1.427-1.18,2.17-1.8a1.84,1.84,0,0,1,.177.335,10.03,10.03,0,0,0,3.44,5.288A20.938,20.938,0,0,0,69.5,98.613a32.334,32.334,0,0,0,13.635-2.319,28.759,28.759,0,0,0,10.8-7.236,22.2,22.2,0,0,0,5.922-12.293,19.278,19.278,0,0,0-.349-7.565,18.921,18.921,0,0,0-6.457-9.76m-5.967-7.631A7.094,7.094,0,0,1,85.4,53.02a4.316,4.316,0,0,0-2,2.353.614.614,0,0,0,.067.528c2.361,3.17,2.469,6.652,1.267,10.222a30.084,30.084,0,0,1-7.757,12.06A16.449,16.449,0,0,1,69.8,82.573a10.185,10.185,0,0,1-5.211.054c-1.985-.506-2.711-1.868-1.948-3.8a13.294,13.294,0,0,1,1.7-2.983c4.385-5.908,8.253-12.15,12.067-18.432,3.414-5.623,6.837-11.239,10.36-16.794a49.187,49.187,0,0,1,6.683-8.536,16.693,16.693,0,0,1,4.64-3.453,3.177,3.177,0,0,1,.356-.142,1.442,1.442,0,0,1,.257-.02c.034.245.071.456.093.667A16.072,16.072,0,0,1,97.506,36.9,38.025,38.025,0,0,1,87.085,51.807" transform="translate(-4.007 -4.001)"/>
    <path id="패스_2903" data-name="패스 2903" class="cls-2" d="M304.312,73.649c-.889,1.227-1.722,2.5-2.687,3.665a5.925,5.925,0,0,1-3.764,2.268c-1.371.2-2.318-.5-2.249-1.886a11.307,11.307,0,0,1,.549-2.885,38.816,38.816,0,0,1,3.447-6.959,71.38,71.38,0,0,0,4.779-9.3,15.55,15.55,0,0,0,1.257-8.029,6.656,6.656,0,0,0-4.356-5.65,13.535,13.535,0,0,0-10.069.331,19.882,19.882,0,0,0-8.845,7.378c-.375.531-.65.608-1.351.33l4.429-7.561c-.3-.021-.457-.042-.616-.042-4.742,0-9.483,0-14.225-.011a.7.7,0,0,0-.731.5c-.738,1.65-1.453,3.312-2.243,4.938q-5.7,11.729-11.428,23.442a11.573,11.573,0,0,1-3.272,4.262,5.546,5.546,0,0,1-2.572,1.155,1.792,1.792,0,0,1-2.3-1.925,6.66,6.66,0,0,1,.209-1.571,32.344,32.344,0,0,1,2.394-6.05q5.293-11.192,10.579-22.39c.348-.736.692-1.474,1.1-2.352h-.76c-4.466,0-8.933.016-13.4-.018a.925.925,0,0,0-1.012.732c-.773,2.011-1.573,4.012-2.384,6.008-.065.162-.287.259-.435.386a1.757,1.757,0,0,1-.188-.493c-.038-.656.01-1.322-.07-1.971-.424-3.5-2.527-5.891-6.353-5.976a15.828,15.828,0,0,0-7.381,1.823,31.915,31.915,0,0,0-8.607,6.453,53.477,53.477,0,0,0-8.713,11.782,45.356,45.356,0,0,0-5.937,17.634,16.233,16.233,0,0,0,.682,7.093,7.853,7.853,0,0,0,9.934,4.992,14.706,14.706,0,0,0,6.228-4.146,37.7,37.7,0,0,0,6.136-8.977c.083-.161.179-.313.343-.6a2.785,2.785,0,0,1,.038.389c-.023.2-.06.4-.087.6a19.094,19.094,0,0,0,.289,8.212,6.409,6.409,0,0,0,4.073,4.549,9.7,9.7,0,0,0,5.307.215,15.455,15.455,0,0,0,7.386-4.2c.182-.17.37-.335.555-.5l.1.072c-.99,1.733-1.978,3.466-2.989,5.238a.976.976,0,0,0,.23.031c.242-.082.484-.167.723-.255a35.019,35.019,0,0,1,8.69-1.984,38.886,38.886,0,0,1,9.466.409.8.8,0,0,0,1.033-.546c2.051-4.6,4.13-9.195,6.193-13.793a132.519,132.519,0,0,1,7.9-15.637,20.538,20.538,0,0,1,3.748-4.77,3.544,3.544,0,0,1,1.963-1.022c.986-.1,1.589.407,1.509,1.392a5.4,5.4,0,0,1-.478,1.955c-1.288,2.558-2.6,5.106-3.994,7.611-2.362,4.252-4.742,8.486-5.956,13.25a15.2,15.2,0,0,0-.279,7.486,6.39,6.39,0,0,0,3.624,4.617,11.636,11.636,0,0,0,9.029.061,19.9,19.9,0,0,0,7.865-5.713,43.851,43.851,0,0,0,8.112-13.57c.134-.342.24-.695.36-1.043a1.93,1.93,0,0,0-.536.575M239.028,57.122a47.924,47.924,0,0,1-3.559,9.4,48.728,48.728,0,0,1-4.969,8.5,9.248,9.248,0,0,1-1.549,1.613c-1,.8-1.994.343-2.139-.926-.035-.308-.04-.619-.056-.878a22.021,22.021,0,0,1,1.692-6.322,50.344,50.344,0,0,1,5.532-10.424,13.194,13.194,0,0,1,3.113-3.436,4.228,4.228,0,0,1,1.34-.556c.354-.093.611.126.737.5a4.4,4.4,0,0,1-.143,2.535" transform="translate(-27.794 -8.684)"/>
    <path id="패스_2904" data-name="패스 2904" class="cls-2" d="M196.6,47.417a22.873,22.873,0,0,1,2.239-.836,20.8,20.8,0,0,0-2.169-1.722,12.1,12.1,0,0,0-11.073-.713,13.671,13.671,0,0,0-7.064,6.572c-3.514,6.348-7.255,12.566-11.326,18.578a54.753,54.753,0,0,1-6.279,8.021,13.143,13.143,0,0,1-2.247,1.825,1.492,1.492,0,0,1-2.363-1.306,3.221,3.221,0,0,1,.094-1.087,27.628,27.628,0,0,1,1.186-3.518q6.2-13.4,12.475-26.764c.175-.374.333-.755.552-1.258h-.74c-5.073,0-10.144.01-15.214-.012a1.011,1.011,0,0,0-1.079.673Q148.228,57,142.823,68.11A35.779,35.779,0,0,1,138.676,75a7.716,7.716,0,0,1-1.815,1.717,1.4,1.4,0,0,1-2.294-1.361,5.588,5.588,0,0,1,.314-1.715c.791-2.021,1.563-4.056,2.486-6.018,3.434-7.3,6.926-14.583,10.391-21.872a5.278,5.278,0,0,0,.183-.541h-.721c-4.631,0-9.263.028-13.895-.024a1.709,1.709,0,0,0-1.772,1.036c-4.178,7.565-8.24,15.188-11.678,23.125a61.446,61.446,0,0,0-4.24,12.589,13.144,13.144,0,0,0,.093,6.3c1.4,4.8,5.855,6.561,10.068,5.479a12.644,12.644,0,0,0,5.3-3.089,32.29,32.29,0,0,0,6.132-7.892c.286-.492.571-.983.919-1.579a2.168,2.168,0,0,1,.051.313,2.551,2.551,0,0,1-.032.272,16.589,16.589,0,0,0,.264,7.123,6.656,6.656,0,0,0,3.387,4.375,9.825,9.825,0,0,0,7.258.5,20.98,20.98,0,0,0,5.109-2.313,39.21,39.21,0,0,0,6.736-5.248c.139-.13.294-.24.4-.328a18.871,18.871,0,0,0,.881,2.839c1.792,3.655,4.987,5.416,8.843,5.835A20.584,20.584,0,0,0,184.375,91.4a21.771,21.771,0,0,0,10.1-22.112c-.485-3.27-1.151-6.513-1.716-9.771a16.42,16.42,0,0,1,.063-6.912,7.353,7.353,0,0,1,3.77-5.188M178.167,73.488a7.941,7.941,0,0,1-4.977,5.786,4.6,4.6,0,0,1-3.326.117,1.766,1.766,0,0,1-.848-2.708q3.819-5.748,7.632-11.5c.272-.411.521-.885,1.141-.746.47.1.776.619.786,1.313.013.95,0,1.9,0,2.852l.194.016a37.377,37.377,0,0,1-.6,4.871" transform="translate(-17.048 -8.587)"/>
  </g>
  <rect id="사각형_3593" data-name="사각형 3593" class="cls-3" width="290.498" height="107.678" transform="translate(0.001)"/>
</svg>
