<svg id="그룹_2161" data-name="그룹 2161" xmlns="http://www.w3.org/2000/svg" width="313.526" height="108" viewBox="0 0 313.526 108">
  <defs>
    <style>
      .cls-1 {
        fill: #fff;
      }

      .cls-2 {
        fill: #f4548b;
      }

      .cls-3 {
        fill: none;
      }
    </style>
  </defs>
  <g id="그룹_1916" data-name="그룹 1916" transform="translate(0)">
    <path id="패스_2905" data-name="패스 2905" d="M117.734,101.338a3.733,3.733,0,0,1-3.7-3.262q-1.4.706-2.846,1.271a26.991,26.991,0,0,1-9.825,1.945,24.077,24.077,0,0,1-4.61-.447A16.162,16.162,0,0,1,83.917,89.689,24.2,24.2,0,0,1,82.8,79.6a39.826,39.826,0,0,1,5.236-15.74A54.49,54.49,0,0,1,100.4,48.547a34.148,34.148,0,0,1,13.062-7.3,24.89,24.89,0,0,1,6.636-.957,19.689,19.689,0,0,1,8.547,1.916,14.3,14.3,0,0,1,7.8,8.616c3.292-7.075,6.321-13.6,9.227-19.88,1.682-3.635,3.338-7.351,4.94-10.944l1.462-3.273a4.189,4.189,0,0,1,3.877-2.6,4.561,4.561,0,0,1,1.44.238,13.975,13.975,0,0,0,4.417.666c.621,0,1.273-.033,1.94-.1a31.082,31.082,0,0,0,6.4-1.5c.2-.066,1.055-.333,1.055-.333a3.721,3.721,0,0,1,4.64,4.74l-.066.2a6.626,6.626,0,0,1-.292.786c-1.078,2.376-3.288,7.266-3.288,7.266-2.323,5.135-4.706,10.406-7.115,15.643a20.236,20.236,0,0,1,6.61-1.138,19.606,19.606,0,0,1,4.595.552,11.158,11.158,0,0,1,8.6,10.176,19.706,19.706,0,0,1-.408,5.733q.354-.47.721-.937a46.148,46.148,0,0,1,9.579-9.2,33.537,33.537,0,0,1,14.181-6.044,28.9,28.9,0,0,1,4.635-.412,19.789,19.789,0,0,1,3.309.267c5.8.975,9.765,4.228,11.464,9.41a15.679,15.679,0,0,1,.759,4.249,51.133,51.133,0,0,1,4.418-4.621,34.571,34.571,0,0,1,13.623-8.037,24.521,24.521,0,0,1,7.116-1.131,19.7,19.7,0,0,1,2.054.107,13.094,13.094,0,0,1,10.854,8.009,17.761,17.761,0,0,1,1.491,7.895q2.864-6.031,5.72-12.067a4.381,4.381,0,0,1,4.11-2.674c3.213.011,6.408.012,9.6.012h5.449a6.9,6.9,0,0,1,.741.047l.217.021A3.669,3.669,0,0,1,296.785,43q.72-.381,1.462-.707a19.5,19.5,0,0,1,7.845-1.723,17.814,17.814,0,0,1,5.442.859,10.822,10.822,0,0,1,7.613,9.292A19.974,19.974,0,0,1,317.6,60.856a64.8,64.8,0,0,1-4.54,9.022s-1.424,2.507-1.434,2.526a3.717,3.717,0,0,1,4.528-1l.089.044a3.776,3.776,0,0,1,1.875,4.749l-.38.971c-.3.782-.609,1.565-.949,2.335a50.1,50.1,0,0,1-6.883,11.526,27.065,27.065,0,0,1-10.583,8.475,17.765,17.765,0,0,1-6.766,1.421,15.252,15.252,0,0,1-6.066-1.263,10.426,10.426,0,0,1-6.049-7.456,16.776,16.776,0,0,1-.472-3.873q-1.856,4.12-3.7,8.247a4.448,4.448,0,0,1-4.167,2.8,5.581,5.581,0,0,1-.8-.06,46.014,46.014,0,0,0-6.489-.557c-.854,0-1.684.039-2.467.117a33.723,33.723,0,0,0-8.4,1.9c-.26.1-.523.18-.821.273l-.34.107a3.72,3.72,0,0,1-4.38-5.351l.684-1.231q-1.077.912-2.205,1.736a23.843,23.843,0,0,1-10.137,4.631,21.9,21.9,0,0,1-3.707.333,15.613,15.613,0,0,1-9.618-3.126,14.594,14.594,0,0,1-5.357-8.53q-.124-.5-.23-1-.384.439-.776.866a37.118,37.118,0,0,1-13.9,9.835,26.967,26.967,0,0,1-9.826,1.965,23.46,23.46,0,0,1-4.49-.435,15.766,15.766,0,0,1-12.435-10.847l-.013-.038a37.2,37.2,0,0,1-4.228,4.736,21.159,21.159,0,0,1-10.582,5.841,18.565,18.565,0,0,1-3.574.368,13.839,13.839,0,0,1-6.819-1.725,10.635,10.635,0,0,1-5.3-7.877,17.513,17.513,0,0,1-.241-2.034q-1.617,3.64-3.222,7.286a4.45,4.45,0,0,1-4.178,2.825,5.55,5.55,0,0,1-.755-.054,49.887,49.887,0,0,0-6.687-.563,24.124,24.124,0,0,0-2.416.114,33.845,33.845,0,0,0-8.4,1.893c-.232.086-.463.162-.737.251l-.361.119a3.717,3.717,0,0,1-1.172.19m-8.176-25.624a7.266,7.266,0,0,0,.218,1.5c.163.634.386.94,1.346,1.192a8.367,8.367,0,0,0,2.115.273,10.943,10.943,0,0,0,3.457-.618c-.177-.01-.354-.023-.534-.041a13.307,13.307,0,0,1-6.6-2.31M253.651,60.1A26.671,26.671,0,0,0,251.13,63.4q-1.013,1.5-1.9,2.98a14.866,14.866,0,0,1,2.577-.927c.069-.162.139-.322.209-.483.186-.425.36-.823.519-1.229a20.881,20.881,0,0,0,1.115-3.634" transform="translate(-5.778 -0.902)"/>
    <path id="패스_2906" data-name="패스 2906" d="M37.031,108.392q-.981,0-1.969-.04a34.4,34.4,0,0,1-14.245-3.662A28.389,28.389,0,0,1,8.965,93.883,24.023,24.023,0,0,1,5.471,78.273c1.2-9.479,6.555-16.114,15.487-19.19a21.291,21.291,0,0,1,6.931-1.2A20,20,0,0,1,38.036,60.69a13.182,13.182,0,0,1,4.965,5,8.05,8.05,0,0,1,.4.834l.1.227a3.719,3.719,0,0,1-2.727,5.153l-.136.024c.077.751.329,1.128,1.388,1.22.505.044,1.011.066,1.506.066a16.6,16.6,0,0,0,8.113-2.147,27.627,27.627,0,0,0,7.834-6.93C61.083,62.2,62.586,60.164,64,58.1q-.73.31-1.5.587a20.7,20.7,0,0,1-7.014,1.268q-.509,0-1.023-.027A19.321,19.321,0,0,1,40.05,52.742a22.5,22.5,0,0,1-5-16.034,29.7,29.7,0,0,1,7.781-18.763,35.7,35.7,0,0,1,13.209-9.1A43.784,43.784,0,0,1,72.674,5.632c1.251,0,2.532.05,3.809.149A56.721,56.721,0,0,1,87.474,7.789q4.223,1.182,8.436,2.4l.166.048q2.9.829,5.79,1.653c.522.148,1.048.276,1.575.406.293.073.582.143.869.216a27.414,27.414,0,0,1,7.409-2.754,21.719,21.719,0,0,1,4.511-.5,16.553,16.553,0,0,1,4.692.662,11.234,11.234,0,0,1,4.727,2.714,8.88,8.88,0,0,1,2.687,6.837,9.11,9.11,0,0,1-3.535,6.66,13.935,13.935,0,0,1-8,2.7c-.346.022-.691.033-1.033.033a29.432,29.432,0,0,1-5.448-.643l-.164-.03c-.39-.072-.778-.157-1.165-.244l-.292-.065a22.449,22.449,0,0,0-8.138,6.972A55.922,55.922,0,0,0,94.391,45.9c-3.843,8.676-7.525,16.3-11.255,23.316l-1.3,2.463C80.045,75.054,78.219,78.5,76.3,81.858A68.268,68.268,0,0,1,65.352,96.7a38.54,38.54,0,0,1-14.02,9.22,40.9,40.9,0,0,1-14.3,2.472M70.893,43.268a3.724,3.724,0,0,1,1.944.548c1.164-1.963,2.352-3.947,3.589-5.887A48.216,48.216,0,0,1,86.87,26.175,34.545,34.545,0,0,0,79.8,27.919a18.6,18.6,0,0,0-7.731,4.876A11.253,11.253,0,0,0,69.1,41.86a2.386,2.386,0,0,0,.512,1.262c.117.155.153.2.461.2l.11,0,.335-.034c.137-.013.256-.019.373-.019" transform="translate(-0.37 -0.393)"/>
    <path id="패스_2907" data-name="패스 2907" d="M112.447,95.7a3.733,3.733,0,0,1-3.7-3.262q-1.4.706-2.846,1.271a26.991,26.991,0,0,1-9.825,1.945,24.076,24.076,0,0,1-4.61-.447A16.162,16.162,0,0,1,78.63,84.056a24.2,24.2,0,0,1-1.117-10.094,39.826,39.826,0,0,1,5.236-15.74A54.489,54.489,0,0,1,95.11,42.914a34.148,34.148,0,0,1,13.062-7.3,24.89,24.89,0,0,1,6.636-.957,19.689,19.689,0,0,1,8.547,1.916,14.3,14.3,0,0,1,7.8,8.616c3.292-7.075,6.321-13.6,9.227-19.88,1.682-3.635,3.338-7.351,4.94-10.944l1.462-3.273a4.189,4.189,0,0,1,3.877-2.6,4.561,4.561,0,0,1,1.44.238,13.975,13.975,0,0,0,4.417.666c.621,0,1.273-.033,1.94-.1a31.082,31.082,0,0,0,6.4-1.5c.2-.066,1.055-.333,1.055-.333a3.721,3.721,0,0,1,4.64,4.74l-.066.2a6.625,6.625,0,0,1-.292.786c-1.078,2.376-3.288,7.266-3.288,7.266-2.323,5.135-4.706,10.406-7.115,15.643a20.236,20.236,0,0,1,6.61-1.138A19.606,19.606,0,0,1,171,35.51a11.158,11.158,0,0,1,8.6,10.176,19.7,19.7,0,0,1-.408,5.733q.354-.47.721-.937a46.149,46.149,0,0,1,9.579-9.2,33.537,33.537,0,0,1,14.181-6.044,28.9,28.9,0,0,1,4.635-.412,19.788,19.788,0,0,1,3.309.267c5.8.975,9.765,4.228,11.464,9.41a15.678,15.678,0,0,1,.759,4.249,51.131,51.131,0,0,1,4.418-4.621,34.571,34.571,0,0,1,13.623-8.037,24.521,24.521,0,0,1,7.115-1.131,19.7,19.7,0,0,1,2.054.107A13.094,13.094,0,0,1,261.9,43.075a17.761,17.761,0,0,1,1.491,7.895q2.864-6.031,5.72-12.067a4.381,4.381,0,0,1,4.11-2.674c3.213.011,6.408.012,9.6.012h5.449a6.9,6.9,0,0,1,.741.047l.217.021a3.669,3.669,0,0,1,2.269,1.054q.72-.381,1.462-.707a19.5,19.5,0,0,1,7.845-1.723,17.813,17.813,0,0,1,5.442.859,10.822,10.822,0,0,1,7.613,9.292,19.973,19.973,0,0,1-1.545,10.137,64.8,64.8,0,0,1-4.54,9.022s-1.424,2.507-1.434,2.526a3.717,3.717,0,0,1,4.528-1l.089.044a3.776,3.776,0,0,1,1.875,4.749l-.38.971c-.3.782-.609,1.565-.949,2.335A50.1,50.1,0,0,1,304.622,85.4a27.065,27.065,0,0,1-10.583,8.475,17.765,17.765,0,0,1-6.766,1.421,15.253,15.253,0,0,1-6.066-1.263,10.426,10.426,0,0,1-6.049-7.456,16.773,16.773,0,0,1-.473-3.873q-1.856,4.12-3.7,8.247a4.448,4.448,0,0,1-4.167,2.8,5.576,5.576,0,0,1-.8-.06,46.014,46.014,0,0,0-6.489-.557c-.854,0-1.684.039-2.467.117a33.724,33.724,0,0,0-8.4,1.9c-.26.1-.523.18-.821.273l-.34.107a3.72,3.72,0,0,1-4.38-5.351l.684-1.231q-1.077.912-2.205,1.736a23.843,23.843,0,0,1-10.137,4.631,21.9,21.9,0,0,1-3.707.333,15.613,15.613,0,0,1-9.617-3.126,14.593,14.593,0,0,1-5.357-8.53q-.124-.5-.23-1-.384.439-.776.866a37.118,37.118,0,0,1-13.9,9.835,26.967,26.967,0,0,1-9.826,1.965,23.459,23.459,0,0,1-4.49-.435,15.765,15.765,0,0,1-12.435-10.847l-.013-.038a37.2,37.2,0,0,1-4.228,4.736,21.159,21.159,0,0,1-10.582,5.841,18.566,18.566,0,0,1-3.574.368,13.839,13.839,0,0,1-6.819-1.725,10.635,10.635,0,0,1-5.3-7.877,17.519,17.519,0,0,1-.241-2.034q-1.617,3.64-3.222,7.286a4.45,4.45,0,0,1-4.178,2.825,5.545,5.545,0,0,1-.755-.054,49.889,49.889,0,0,0-6.687-.563,24.126,24.126,0,0,0-2.416.114,33.845,33.845,0,0,0-8.4,1.893c-.232.086-.463.162-.737.251l-.361.119a3.717,3.717,0,0,1-1.172.19m-8.176-25.624a7.266,7.266,0,0,0,.218,1.5c.163.634.386.94,1.346,1.192a8.367,8.367,0,0,0,2.115.273,10.942,10.942,0,0,0,3.457-.618c-.177-.01-.354-.023-.534-.041a13.307,13.307,0,0,1-6.6-2.309M248.364,54.47a26.665,26.665,0,0,0-2.521,3.293q-1.013,1.5-1.9,2.98a14.865,14.865,0,0,1,2.577-.927c.069-.162.139-.322.209-.483.186-.425.36-.823.519-1.229a20.878,20.878,0,0,0,1.115-3.634" transform="translate(-5.408 -0.508)"/>
    <path id="패스_2908" data-name="패스 2908" d="M31.745,102.759q-.981,0-1.969-.04a34.4,34.4,0,0,1-14.245-3.662A28.389,28.389,0,0,1,3.679,88.249,24.023,24.023,0,0,1,.185,72.64c1.2-9.479,6.555-16.114,15.487-19.19a21.291,21.291,0,0,1,6.931-1.2A20,20,0,0,1,32.75,55.057a13.182,13.182,0,0,1,4.965,5,8.05,8.05,0,0,1,.4.834l.1.227a3.719,3.719,0,0,1-2.727,5.153l-.136.024c.077.751.329,1.128,1.388,1.22.505.044,1.011.066,1.506.066a16.6,16.6,0,0,0,8.113-2.147,27.627,27.627,0,0,0,7.834-6.93c1.611-1.941,3.113-3.977,4.531-6.045q-.73.31-1.5.587A20.7,20.7,0,0,1,50.2,54.318q-.509,0-1.023-.027a19.321,19.321,0,0,1-14.413-7.182,22.5,22.5,0,0,1-5-16.034,29.7,29.7,0,0,1,7.781-18.763,35.7,35.7,0,0,1,13.209-9.1A43.784,43.784,0,0,1,67.388,0c1.251,0,2.532.05,3.809.149A56.721,56.721,0,0,1,82.188,2.156q4.223,1.182,8.436,2.4l.166.048q2.9.829,5.79,1.653c.522.148,1.048.276,1.575.406.293.073.582.143.869.216a27.414,27.414,0,0,1,7.409-2.754,21.719,21.719,0,0,1,4.511-.5,16.553,16.553,0,0,1,4.692.662A11.234,11.234,0,0,1,120.363,7a8.88,8.88,0,0,1,2.687,6.837,9.11,9.11,0,0,1-3.535,6.66,13.935,13.935,0,0,1-8,2.7c-.346.022-.691.033-1.033.033a29.432,29.432,0,0,1-5.448-.643l-.164-.03c-.39-.072-.778-.157-1.165-.244l-.292-.065a22.45,22.45,0,0,0-8.138,6.972,55.923,55.923,0,0,0-6.168,11.053c-3.843,8.676-7.525,16.3-11.255,23.316l-1.3,2.463c-1.787,3.374-3.613,6.822-5.527,10.178A68.268,68.268,0,0,1,60.066,91.066a38.541,38.541,0,0,1-14.02,9.22,40.9,40.9,0,0,1-14.3,2.472M65.607,37.635a3.724,3.724,0,0,1,1.944.548c1.164-1.964,2.352-3.947,3.589-5.887A48.216,48.216,0,0,1,81.584,20.542a34.545,34.545,0,0,0-7.066,1.744,18.6,18.6,0,0,0-7.731,4.876,11.254,11.254,0,0,0-2.97,9.065,2.386,2.386,0,0,0,.512,1.262c.117.155.153.2.461.2l.11,0,.335-.034c.137-.013.256-.019.373-.019" transform="translate(0 0.001)"/>
  </g>
  <g id="그룹_1915" data-name="그룹 1915" transform="translate(1.861 1.861)">
    <path id="패스_2909" data-name="패스 2909" class="cls-1" d="M310.278,67.626l-.088-.043a1.843,1.843,0,0,0-.819-.192,1.862,1.862,0,0,0-1.54.817s-.212.321-.27.4c-.307.424-.607.853-.908,1.282-.686.979-1.335,1.9-2.048,2.775a4.33,4.33,0,0,1-2.7,1.7,1.762,1.762,0,0,1-.27.023h-.05a1.3,1.3,0,0,1,0-.18,9.98,9.98,0,0,1,.476-2.413,32.381,32.381,0,0,1,2.838-5.858s1.08-1.908,1.4-2.466a63.527,63.527,0,0,0,4.422-8.772,18.25,18.25,0,0,0,1.44-9.213,8.933,8.933,0,0,0-6.339-7.781,15.947,15.947,0,0,0-4.873-.771,17.656,17.656,0,0,0-7.1,1.567,20.124,20.124,0,0,0-2.962,1.6,1.864,1.864,0,0,0-1.7-1.8l-.227-.023c-.215-.022-.38-.035-.547-.036h-5.449q-4.794,0-9.6-.013a2.543,2.543,0,0,0-2.428,1.611q-5.362,11.318-10.744,22.623a9.449,9.449,0,0,1-1.816,2.63q.144-.346.282-.695a38.9,38.9,0,0,0,3.014-13.285,15.94,15.94,0,0,0-1.325-7.133,11.163,11.163,0,0,0-9.353-6.926,17.785,17.785,0,0,0-1.859-.1,22.651,22.651,0,0,0-6.579,1.052,32.762,32.762,0,0,0-12.9,7.622,50.12,50.12,0,0,0-8.57,10.388,22.7,22.7,0,0,0,.627-2.427,16.2,16.2,0,0,0-.262-8.377c-1.491-4.546-4.857-7.289-10-8.154a17.99,17.99,0,0,0-3-.241,27.149,27.149,0,0,0-4.338.387,31.74,31.74,0,0,0-13.4,5.727,44.279,44.279,0,0,0-9.191,8.836,47.538,47.538,0,0,0-7.475,13.3c-.23.643-.407,1.281-.579,1.9a17.327,17.327,0,0,1-.686,2.122,12.38,12.38,0,0,1-3.252,4.292,3.83,3.83,0,0,1-2.053.992,1.428,1.428,0,0,1-.194.016c-.023,0-.044,0-.062,0a1.05,1.05,0,0,1,0-.15,5.94,5.94,0,0,1,.345-1.963c.8-1.945,1.65-3.795,2.535-5.5.76-1.463,1.55-2.911,2.338-4.359,1.112-2.036,2.259-4.142,3.311-6.273a19.459,19.459,0,0,0,2.145-10.179,9.327,9.327,0,0,0-7.178-8.511,17.732,17.732,0,0,0-4.158-.5,18.57,18.57,0,0,0-6.768,1.318,20.64,20.64,0,0,0-3.714,1.9l.061-.131c3.146-6.763,6.268-13.67,9.288-20.349q1.614-3.569,3.23-7.137a4.935,4.935,0,0,0,.216-.589l.073-.226a1.862,1.862,0,0,0-2.323-2.37s-.832.26-1.031.326a32.813,32.813,0,0,1-6.8,1.588,21.278,21.278,0,0,1-2.126.11,15.811,15.811,0,0,1-5-.758,2.706,2.706,0,0,0-.859-.145,2.337,2.337,0,0,0-2.178,1.5l-1.461,3.273c-1.607,3.6-3.268,7.331-4.951,10.967-3.7,7.994-7.6,16.392-11.987,25.807a14.589,14.589,0,0,0-.134-3.828,12.643,12.643,0,0,0-7.4-9.817,17.842,17.842,0,0,0-7.746-1.736,23.037,23.037,0,0,0-6.14.89,32.332,32.332,0,0,0-12.351,6.92A52.628,52.628,0,0,0,84.52,59.258a38.053,38.053,0,0,0-5.014,15.017A22.352,22.352,0,0,0,80.533,83.6a14.388,14.388,0,0,0,11.434,9.928,22.23,22.23,0,0,0,4.253.412,25.139,25.139,0,0,0,9.148-1.817,32.21,32.21,0,0,0,7.2-3.951l-1.627,3.087a1.861,1.861,0,0,0,2.237,2.631l.366-.121c.248-.081.459-.151.669-.227a35.678,35.678,0,0,1,8.866-2c.835-.083,1.684-.123,2.6-.123a51.3,51.3,0,0,1,6.938.58,3.905,3.905,0,0,0,.5.035,2.585,2.585,0,0,0,2.476-1.713q2.718-6.175,5.472-12.333.686-1.532,1.362-3.068c1.863-4.218,3.79-8.58,6.048-12.654a32.381,32.381,0,0,1,4.615-6.871,6.324,6.324,0,0,1,.716-.638,3.933,3.933,0,0,1-.26.719c-1.221,2.477-2.284,4.514-3.347,6.41l-.6,1.067a74.153,74.153,0,0,0-5.62,11.516c-1.039,2.938-2.136,6.847-1.391,11.025a8.856,8.856,0,0,0,4.371,6.579,12,12,0,0,0,5.914,1.49,16.629,16.629,0,0,0,3.214-.333,19.382,19.382,0,0,0,9.668-5.371,38.062,38.062,0,0,0,6.333-7.911,20.741,20.741,0,0,0,.94,3.96,13.824,13.824,0,0,0,11.035,9.63,21.532,21.532,0,0,0,4.132.4,25.107,25.107,0,0,0,9.147-1.837,35.3,35.3,0,0,0,13.207-9.363,47.074,47.074,0,0,0,3.455-4.236,24.769,24.769,0,0,0,.724,5.18,12.814,12.814,0,0,0,4.671,7.495,13.792,13.792,0,0,0,8.5,2.751,20.206,20.206,0,0,0,3.391-.305,22.073,22.073,0,0,0,9.357-4.3,40.633,40.633,0,0,0,7.671-7.4,14.521,14.521,0,0,0,1.911-.307l-5.338,9.613a1.861,1.861,0,0,0,1.627,2.763,1.884,1.884,0,0,0,.569-.089l.346-.11c.263-.081.5-.155.725-.239a35.575,35.575,0,0,1,8.864-2c.842-.084,1.734-.126,2.65-.126a47.847,47.847,0,0,1,6.755.576,3.831,3.831,0,0,0,.535.041,2.581,2.581,0,0,0,2.466-1.7q2.231-5.007,4.49-10l1.692-3.762c2.025-4.514,4.119-9.181,6.539-13.557a43.455,43.455,0,0,1,4.3-6.7,7.86,7.86,0,0,1,1.763-1.726,4.6,4.6,0,0,1-.327.962c-1.66,3.217-2.959,5.651-4.209,7.889-2.19,3.927-4.676,8.379-6.056,13.281a18.764,18.764,0,0,0-.512,9.558,8.524,8.524,0,0,0,4.978,6.191,13.4,13.4,0,0,0,5.33,1.111,15.926,15.926,0,0,0,6.058-1.281,25.337,25.337,0,0,0,9.846-7.927,48.237,48.237,0,0,0,6.626-11.106c.328-.744.622-1.5.916-2.259.128-.329.256-.658.388-.985a1.925,1.925,0,0,0-.969-2.39M107.245,56.773a27.629,27.629,0,0,1,5.507-6.793,7.205,7.205,0,0,1,1.381-.989,5.843,5.843,0,0,1-.168.746,20.81,20.81,0,0,1-3.484,6.516c-1.712,2.265-3.357,4.239-5.748,5.23a39.985,39.985,0,0,1,2.512-4.71m17.006,8.078a10.694,10.694,0,0,1-1.524,2.627,26.155,26.155,0,0,1-8.974,6.238,14.263,14.263,0,0,1-5.662,1.333,10.157,10.157,0,0,1-2.587-.334,3.267,3.267,0,0,1-2.676-2.53,11.757,11.757,0,0,1,.25-6.013l.032.049a10.35,10.35,0,0,0,8.082,4.458q.552.053,1.092.052a13.352,13.352,0,0,0,7.133-2.24,22.659,22.659,0,0,0,5.222-4.472q-.193.414-.388.832m74.18-6.13a27.626,27.626,0,0,1,5.877-7.788,7.837,7.837,0,0,1,1.146-.848,8.945,8.945,0,0,1-1.044,2.5,17.3,17.3,0,0,1-5.387,5.949,4.537,4.537,0,0,1-.68.388,1.484,1.484,0,0,1,.088-.2m18.543,5.317-.128.313a6.8,6.8,0,0,1-.818,1.619,27.048,27.048,0,0,1-10.385,7.762,14.084,14.084,0,0,1-5.553,1.318,9.675,9.675,0,0,1-2.515-.332,3.857,3.857,0,0,1-3.016-2.7,6.37,6.37,0,0,1-.2-.843,7.375,7.375,0,0,0,2.364,1.135,10.73,10.73,0,0,0,2.973.394,16.8,16.8,0,0,0,2.9-.276,23.048,23.048,0,0,0,14.18-8.541q.3-.361.575-.729-.191.437-.375.879m32.147-5.115c-.172.436-.36.866-.546,1.295-.2.445-.389.89-.567,1.34a13.118,13.118,0,0,0-4.783,1.93,10.635,10.635,0,0,0-4.832,7.778,13.812,13.812,0,0,0-.011,2.6c.011.193.023.386.033.579a4.188,4.188,0,0,1-1.531.572c-.025,0-.048.007-.076.01q0-.035-.008-.078a10.5,10.5,0,0,1,.649-4.043,54.642,54.642,0,0,1,6.994-14.044,20.575,20.575,0,0,1,4.394-5.068A2.126,2.126,0,0,1,250,51.208v-1.86l0,1.86c.239,0,.428,0,.516.583.044.281.056.566.068.781l.009.173a18.779,18.779,0,0,1-1.472,6.177" transform="translate(-7.409 -2.509)"/>
    <path id="패스_2910" data-name="패스 2910" class="cls-1" d="M76.348,62.85c3.71-6.977,7.372-14.564,11.2-23.2A57.7,57.7,0,0,1,93.92,28.244a24.137,24.137,0,0,1,9.393-7.809c.313.058.625.128.936.2.365.081.729.162,1.1.23l.163.03a28.033,28.033,0,0,0,5.112.612q.455,0,.914-.029a12.207,12.207,0,0,0,6.976-2.308,7.25,7.25,0,0,0,2.823-5.3,7.022,7.022,0,0,0-2.129-5.4,9.393,9.393,0,0,0-3.955-2.261,14.68,14.68,0,0,0-4.164-.586,19.89,19.89,0,0,0-4.128.463,25.682,25.682,0,0,0-7.515,2.909l-.025.014c-.513-.14-1.031-.268-1.549-.4-.553-.136-1.106-.271-1.654-.426q-2.954-.837-5.9-1.686c-2.827-.81-5.652-1.62-8.483-2.412A54.8,54.8,0,0,0,71.192,2.143C69.964,2.048,68.73,2,67.528,2A41.937,41.937,0,0,0,51.6,5.074,33.859,33.859,0,0,0,39.067,13.7,27.879,27.879,0,0,0,31.76,31.312a20.7,20.7,0,0,0,4.578,14.753,17.524,17.524,0,0,0,13.078,6.508q.465.025.925.025a18.858,18.858,0,0,0,6.384-1.158,20.016,20.016,0,0,0,8.8-5.847,116.373,116.373,0,0,1-9.764,14.242,29.384,29.384,0,0,1-8.364,7.371,18.441,18.441,0,0,1-9.014,2.378c-.549,0-1.11-.024-1.667-.073a3.026,3.026,0,0,1-3.091-3.032c-.034-.446-.016-1.507.912-1.758a3.625,3.625,0,0,1,.387-.073l.362-.062A1.86,1.86,0,0,0,36.641,62l-.1-.238a6.439,6.439,0,0,0-.306-.649,11.351,11.351,0,0,0-4.278-4.3,18.165,18.165,0,0,0-9.212-2.554,19.434,19.434,0,0,0-6.326,1.1C8.2,58.178,3.275,64.286,2.17,73.013A22.211,22.211,0,0,0,5.415,87.437a26.57,26.57,0,0,0,11.095,10.1A32.549,32.549,0,0,0,29.99,101q.95.038,1.895.038a39.01,39.01,0,0,0,13.651-2.355,36.719,36.719,0,0,0,13.352-8.791A66.507,66.507,0,0,0,69.543,75.444c1.908-3.345,3.733-6.794,5.5-10.128Zm-7.7-22.5q-.617,1.044-1.237,2.086c.053-.166.1-.336.143-.513a1.861,1.861,0,0,0-1.81-2.291,1.611,1.611,0,0,0-.178.009s-.372.039-.428.042c-.072,0-.142.007-.212.007a2.235,2.235,0,0,1-1.944-.939,4.26,4.26,0,0,1-.883-2.226,13.17,13.17,0,0,1,3.441-10.47,20.362,20.362,0,0,1,8.472-5.376,38.135,38.135,0,0,1,9.391-2.08,47.831,47.831,0,0,1,4.875-.258h.153A45.084,45.084,0,0,0,72.849,33.436c-1.456,2.282-2.849,4.638-4.2,6.915" transform="translate(-2.001 -2)"/>
  </g>
  <g id="그룹_1914" data-name="그룹 1914" transform="translate(3.724 3.721)">
    <path id="패스_2911" data-name="패스 2911" class="cls-2" d="M309.208,69.837c-1,1.388-1.941,2.827-3.024,4.147a6.165,6.165,0,0,1-3.858,2.358c-1.579.246-2.562-.516-2.461-2.112a11.749,11.749,0,0,1,.564-2.872,39.267,39.267,0,0,1,3.431-6.982,77.55,77.55,0,0,0,5.26-10.2,16.479,16.479,0,0,0,1.336-8.288,7.1,7.1,0,0,0-5.065-6.27,14.681,14.681,0,0,0-10.656.728A21.314,21.314,0,0,0,285.9,47.93a.911.911,0,0,1-1.387.289l4.648-7.926c-.284-.025-.448-.051-.614-.052-5.014,0-10.03,0-15.045-.013-.44,0-.589.2-.752.547Q267.392,52.095,262.008,63.4a10.694,10.694,0,0,1-5.638,5.451,10.537,10.537,0,0,1-1.537.393,1.868,1.868,0,0,1,.188-.748c.685-1.547,1.424-3.073,2.044-4.646a37.629,37.629,0,0,0,2.885-12.661,14.039,14.039,0,0,0-1.163-6.308,9.283,9.283,0,0,0-7.852-5.841,19.582,19.582,0,0,0-7.708.887,31.118,31.118,0,0,0-12.172,7.209A49.716,49.716,0,0,0,218.832,64.89a9.5,9.5,0,0,1-1.224,2.4,28.791,28.791,0,0,1-11.089,8.294,13.822,13.822,0,0,1-9.288,1.073,5.7,5.7,0,0,1-4.307-3.937,10.75,10.75,0,0,1-.273-4.579c.113-.938.331-1.864.5-2.8l.181.011c.03.2.052.4.09.6s.091.414.142.619a5.206,5.206,0,0,0,3.8,4.093,11.279,11.279,0,0,0,5.05.075,21.15,21.15,0,0,0,13.055-7.887,21.512,21.512,0,0,0,4.555-9.481,14.434,14.434,0,0,0-.206-7.432c-1.351-4.118-4.413-6.2-8.546-6.9a20.531,20.531,0,0,0-6.732.148,30.047,30.047,0,0,0-12.628,5.409,42.215,42.215,0,0,0-8.8,8.466,45.474,45.474,0,0,0-7.185,12.781c-.486,1.356-.743,2.8-1.3,4.12a14.252,14.252,0,0,1-3.718,4.945,5.679,5.679,0,0,1-3.027,1.451,1.876,1.876,0,0,1-2.391-2.05,7.779,7.779,0,0,1,.483-2.6c.787-1.918,1.651-3.811,2.605-5.651,1.844-3.551,3.863-7.012,5.633-10.6a17.555,17.555,0,0,0,1.958-9.213,7.441,7.441,0,0,0-5.759-6.845,16.059,16.059,0,0,0-9.813.742A19.916,19.916,0,0,0,151.33,47.7a1.492,1.492,0,0,1-2.07.539c.509-.8,1.028-1.581,1.511-2.384a70.767,70.767,0,0,0,3.808-6.454c4.243-9.124,8.354-18.308,12.511-27.47.078-.171.124-.357.22-.642-.428.135-.72.223-1.01.318a34.05,34.05,0,0,1-7.189,1.671,18.975,18.975,0,0,1-7.89-.732.528.528,0,0,0-.761.347c-2.129,4.759-4.232,9.53-6.422,14.262q-8.945,19.329-17.964,38.624a12.064,12.064,0,0,1-1.842,3.1,27.918,27.918,0,0,1-9.6,6.686,14.188,14.188,0,0,1-9.458,1.091,5.11,5.11,0,0,1-4.007-3.867,14.133,14.133,0,0,1,.378-7.41,36.6,36.6,0,0,1,4.259-9.44,29.762,29.762,0,0,1,5.884-7.233,6.227,6.227,0,0,1,3.053-1.663c.905-.14,1.5.3,1.477,1.219a8.259,8.259,0,0,1-.329,2.153,22.65,22.65,0,0,1-3.782,7.1c-2.065,2.731-4.246,5.367-7.955,6.3a8.921,8.921,0,0,0,.649,1.511,8.5,8.5,0,0,0,6.712,3.639,11.178,11.178,0,0,0,7.066-1.917,21.852,21.852,0,0,0,7.87-8.666,15.2,15.2,0,0,0,1.95-9.729,10.847,10.847,0,0,0-6.362-8.442,17.511,17.511,0,0,0-12.587-.733A30.606,30.606,0,0,0,97.8,46.024,50.511,50.511,0,0,0,86.29,60.294,36.659,36.659,0,0,0,81.5,74.587a20.434,20.434,0,0,0,.936,8.553,12.455,12.455,0,0,0,10.03,8.7,21.9,21.9,0,0,0,12.367-1.311,33.838,33.838,0,0,0,12.564-8.918c.589-.638,1.151-1.3,1.726-1.948l.183.121c-2.172,4.121-4.344,8.244-6.577,12.48.406-.136.695-.223.978-.328a37.378,37.378,0,0,1,9.328-2.106,42.427,42.427,0,0,1,9.974.465.806.806,0,0,0,1.024-.584q2.721-6.181,5.478-12.344c2.389-5.337,4.639-10.74,7.48-15.865a33.977,33.977,0,0,1,4.9-7.255,7.4,7.4,0,0,1,2.068-1.523,1.35,1.35,0,0,1,2.011,1.5,7.178,7.178,0,0,1-.609,2.21c-1.08,2.19-2.2,4.366-3.392,6.5a80.162,80.162,0,0,0-6.089,12.294c-1.153,3.262-1.937,6.583-1.313,10.078a7.044,7.044,0,0,0,3.444,5.28,11.194,11.194,0,0,0,7.861.957,17.826,17.826,0,0,0,8.754-4.9,38.375,38.375,0,0,0,7.259-9.659c.746-1.361,1.421-2.759,2.2-4.283-.016.312-.016.473-.033.632a23.161,23.161,0,0,0,.878,10.108,12.049,12.049,0,0,0,9.633,8.411,21.648,21.648,0,0,0,12.244-1.343,33.663,33.663,0,0,0,12.515-8.89,47.824,47.824,0,0,0,7.035-10.056c.115-.219.251-.428.378-.641a.288.288,0,0,1,.077.263,25.346,25.346,0,0,0-.137,12.186,11.1,11.1,0,0,0,3.986,6.461c3.136,2.363,6.72,2.74,10.455,2.1a20.468,20.468,0,0,0,8.575-3.97,38.809,38.809,0,0,0,7.335-7.091,1.546,1.546,0,0,1,1.147-.653,11.607,11.607,0,0,0,4.315-1.193c.66-.335,1.291-.726,1.936-1.093l.141.1-7.9,14.237c.39-.126.7-.212.992-.322a37.16,37.16,0,0,1,9.326-2.111,40.579,40.579,0,0,1,9.857.459.806.806,0,0,0,1.034-.575q2.629-5.906,5.3-11.794c2.379-5.279,4.688-10.593,7.494-15.67a45.092,45.092,0,0,1,4.491-6.987,7.676,7.676,0,0,1,3.025-2.53,1.634,1.634,0,0,1,1.7.125,1.523,1.523,0,0,1,.432,1.645,8.722,8.722,0,0,1-.637,2.031c-1.377,2.666-2.775,5.323-4.238,7.942-2.309,4.138-4.6,8.282-5.891,12.879a16.655,16.655,0,0,0-.495,8.611,6.743,6.743,0,0,0,3.907,4.925,12.366,12.366,0,0,0,9.943-.182c3.762-1.549,6.6-4.281,9.11-7.378a46.58,46.58,0,0,0,6.369-10.684c.461-1.046.855-2.122,1.279-3.184l-.148-.073c-.1.148-.2.3-.3.444M196.454,59.793a4.778,4.778,0,0,1,.482-1.821,29.623,29.623,0,0,1,6.28-8.294,9.008,9.008,0,0,1,2.2-1.464c1.2-.544,2.17.169,2.119,1.62a9.55,9.55,0,0,1-1.371,3.824,19.226,19.226,0,0,1-5.968,6.568,4.232,4.232,0,0,1-2.468.868c-.827-.024-1.342-.48-1.27-1.3m54.539-.055c-.384.984-.852,1.937-1.224,2.924a1.213,1.213,0,0,1-1.059.822,11.258,11.258,0,0,0-4.322,1.7,8.723,8.723,0,0,0-4.008,6.453,27.178,27.178,0,0,0,.051,3.5.81.81,0,0,1-.239.57,6.192,6.192,0,0,1-2.866,1.287,1.744,1.744,0,0,1-2.242-1.746,12.236,12.236,0,0,1,.731-4.766,56.793,56.793,0,0,1,7.224-14.519,22.471,22.471,0,0,1,4.807-5.505,3.764,3.764,0,0,1,2.3-.967,2.285,2.285,0,0,1,2.35,2.163c.073.474.081.959.1,1.218a20.428,20.428,0,0,1-1.6,6.871" transform="translate(-9.411 -4.509)"/>
    <path id="패스_2912" data-name="패스 2912" class="cls-2" d="M92.568,27.273a26.1,26.1,0,0,1,10.223-8.441,1.407,1.407,0,0,1,.767-.127c.759.125,1.5.328,2.262.468a23.452,23.452,0,0,0,5.736.586,10.331,10.331,0,0,0,5.95-1.919,5.184,5.184,0,0,0,.538-7.9,7.516,7.516,0,0,0-3.183-1.809,14.846,14.846,0,0,0-7.381-.086,23.7,23.7,0,0,0-6.97,2.7,1.665,1.665,0,0,1-1.365.219c-1.094-.3-2.207-.539-3.3-.848-4.8-1.359-9.582-2.753-14.382-4.1A53.388,53.388,0,0,0,71.19,4.138a40.656,40.656,0,0,0-18.75,2.8,31.828,31.828,0,0,0-11.851,8.144,25.968,25.968,0,0,0-6.83,16.469,18.807,18.807,0,0,0,4.153,13.47,15.7,15.7,0,0,0,11.744,5.836,16.686,16.686,0,0,0,6.581-1.026,18.161,18.161,0,0,0,8.223-5.559,6.5,6.5,0,0,0,1.428-2.635c-.245.024-.374.041-.5.048a4.132,4.132,0,0,1-3.739-1.667,6.127,6.127,0,0,1-1.254-3.188A15.1,15.1,0,0,1,64.3,24.951a22.443,22.443,0,0,1,9.21-5.876,40.182,40.182,0,0,1,9.844-2.186,46.087,46.087,0,0,1,9.529-.038c.311.033.6.324.892.495a3.041,3.041,0,0,1-.6.752,20.451,20.451,0,0,1-1.825.994,42.809,42.809,0,0,0-16.8,15.485c-1.965,3.082-3.791,6.254-5.667,9.393A134.66,134.66,0,0,1,57.329,61.164a31.665,31.665,0,0,1-8.895,7.809A20.17,20.17,0,0,1,36.692,71.5a4.882,4.882,0,0,1-4.784-4.739,3.279,3.279,0,0,1,2.279-3.7c.269-.073.548-.1.9-.169-.132-.295-.215-.526-.334-.738a9.507,9.507,0,0,0-3.588-3.605,16.317,16.317,0,0,0-14-1.306c-7.641,2.63-12,8.178-13.007,16.14a20.445,20.445,0,0,0,3,13.235,24.612,24.612,0,0,0,10.336,9.394,30.584,30.584,0,0,0,12.717,3.265,37.722,37.722,0,0,0,14.823-2.2,35.146,35.146,0,0,0,12.683-8.36A65.582,65.582,0,0,0,68.067,74.662c2.354-4.128,4.547-8.348,6.779-12.546,4.013-7.546,7.675-15.262,11.137-23.076a60.426,60.426,0,0,1,6.584-11.767" transform="translate(-4.003 -4)"/>
  </g>
  <rect id="사각형_3594" data-name="사각형 3594" class="cls-3" width="313.526" height="107.998" transform="translate(0 0.002)"/>
</svg>
