<svg data-name="그룹 1955" xmlns="http://www.w3.org/2000/svg" width="103.104" height="101.545" viewBox="0 0 103.104 101.545">
    <defs>
        <clipPath id="p2s55pc0za">
            <path data-name="사각형 3608" style="fill:none" d="M0 0h103.104v101.545H0z"/>
        </clipPath>
    </defs>
    <g data-name="그룹 1954" style="clip-path:url(#p2s55pc0za)">
        <g data-name="그룹 1953" style="isolation:isolate">
            <g data-name="그룹 1952">
                <g data-name="그룹 1951" style="clip-path:url(#p2s55pc0za)">
                    <path data-name="패스 2930" d="M102.257 44.946c-3.479-17.776-14.781-27.677-32.779-28.8a11.455 11.455 0 0 0-10.5-6.71 12.321 12.321 0 0 0-1.719.122 12.856 12.856 0 0 0-1.619.337C54.553 7.143 52.366 2.508 49.5.922A7.493 7.493 0 0 0 45.884 0a10.718 10.718 0 0 0-7.59 3.743 7.314 7.314 0 0 0-1.649 6.084 10.721 10.721 0 0 0 .743 2.369 11.772 11.772 0 0 0-1.721.378c-5.563 1.671-6.694 5.433-6.9 7.366a42.861 42.861 0 0 0-14.408 6.269C4.522 33.046-.306 43.641.015 57.7c.738 32.362 27.764 43.845 50.685 43.845a70.825 70.825 0 0 0 9.8-.676 51.46 51.46 0 0 0 34.047-20.876 45.006 45.006 0 0 0 7.71-35.047" style="fill:#fffaf8"/>
                </g>
            </g>
        </g>
        <path data-name="패스 2931" d="M6.014 57.565c.752 33.006 32.151 40.384 53.655 37.363s41.609-23.744 36.7-48.829c-6.314-32.266-39.762-22.975-46.9-22.372S5.2 21.847 6.014 57.565" style="fill:#d53d34"/>
        <path data-name="패스 2933" d="M66.741 27.829a11.2 11.2 0 0 1-.937-1.153c-1.125-1.5-2.666-3.55-5.272-3.865a25.3 25.3 0 0 0-3.029-.145h-.425a7.629 7.629 0 0 0 1.76-1.949c.052-.094.418-.287 1.217-.287a6.462 6.462 0 0 1 2.353.462 1.5 1.5 0 0 0 .613.139 1.248 1.248 0 0 0 1.242-1.331c0-1.5-2.006-4.266-5.284-4.266a6.256 6.256 0 0 0-.878.063c-2.484.352-4.632 2.091-6.267 3.642a32.484 32.484 0 0 0-1.165-5.373c-.523-1.618-2.8-6.885-4.071-7.589A1.452 1.452 0 0 0 45.884 6a4.905 4.905 0 0 0-2.973 1.576 1.384 1.384 0 0 0-.366 1.159 9.215 9.215 0 0 0 1.271 2.789 24.169 24.169 0 0 1 2.33 4.981 20.428 20.428 0 0 1 .71 3.905c-2.2-1.055-5.043-2.341-7.636-2.341a6.329 6.329 0 0 0-1.827.252c-.662.2-2.675.8-2.661 2.359.016 1.863 3.089 2.821 3.705 2.995a35.6 35.6 0 0 1 3.786 1.36 11.415 11.415 0 0 0-4.284 3.065 7.693 7.693 0 0 0-1.4 5.383 4.972 4.972 0 0 1-.11 1.6 1.427 1.427 0 0 0 .024 1.422 2 2 0 0 0 1.808.813 4.63 4.63 0 0 0 3.833-2.123 13.924 13.924 0 0 0 .955-1.958 5.2 5.2 0 0 1 2.289-2.945 20.015 20.015 0 0 1 1.927-1.081 4.132 4.132 0 0 0 2.122 3.862c2.269 1.228 3.139 2.238 3.295 2.642a2.294 2.294 0 0 0 2.25 1.427 3.862 3.862 0 0 0 2.83-1.332 3.5 3.5 0 0 0 .817-2.835 5.088 5.088 0 0 0-3.117-3.775 3.606 3.606 0 0 1-1.018-.684 9.346 9.346 0 0 1-.119-.19 7.886 7.886 0 0 1 2.212-.376 4.547 4.547 0 0 1 1.868.384 8.006 8.006 0 0 1 2.356 1.8 6.7 6.7 0 0 0 3.456 2.182 4.4 4.4 0 0 0 .848.088 2.512 2.512 0 0 0 2.455-1.489 2.856 2.856 0 0 0-.779-3.086" style="fill:#2c5e2e"/>
    </g>
</svg>
