<svg id="그룹_2168" data-name="그룹 2168" xmlns="http://www.w3.org/2000/svg" width="290.773" height="120.756" viewBox="0 0 290.773 120.756">
  <defs>
    <style>
      .cls-1 {
        fill: #fff;
      }

      .cls-2 {
        fill: #354eb7;
      }

      .cls-3 {
        fill: none;
      }
    </style>
  </defs>
  <g id="그룹_1910" data-name="그룹 1910" transform="translate(0)">
    <path id="패스_2890" data-name="패스 2890" d="M39.942,116.516c-.977,0-1.969-.031-2.95-.092a40.8,40.8,0,0,1-23.015-8.537A35.55,35.55,0,0,1,1.355,89.172,37.031,37.031,0,0,1,.2,75.344a37.559,37.559,0,0,1,7.31-18.993A34.153,34.153,0,0,1,26.024,43.53a31.025,31.025,0,0,1,8.331-1.16,29.939,29.939,0,0,1,4.724.376A22.626,22.626,0,0,1,52,48.949c-1.024-2.523-2.048-5.1-2.968-7.716A30.238,30.238,0,0,1,61.14,5.638,33.623,33.623,0,0,1,74.411.512,37.9,37.9,0,0,1,80.575,0a37.243,37.243,0,0,1,8.75,1.051,28.112,28.112,0,0,1,14.949,8.576A20.53,20.53,0,0,1,109.691,26.7a21.9,21.9,0,0,1-7.741,14.056,19.864,19.864,0,0,1-13.193,4.953c-.449,0-.9-.013-1.357-.043a16.416,16.416,0,0,1-3.4-.661c-.311-.086-.6-.167-.9-.239a5.333,5.333,0,0,1-1.648-.734l-.142-.087a4.1,4.1,0,0,1,.927-7.53,2.4,2.4,0,0,0,1.935-2.043,1.753,1.753,0,0,0-.133-1.342,1.875,1.875,0,0,0-1.183-.83,4.477,4.477,0,0,0-1.132-.149c-2.019,0-3.416,1.366-3.733,3.655A15.561,15.561,0,0,0,79.052,42.4c.541,1.711,1.108,3.415,1.673,5.119.975,2.941,1.97,5.94,2.845,8.96a52.454,52.454,0,0,1,1.65,7.861,58.293,58.293,0,0,1,6.621-10.149,48.91,48.91,0,0,1,13.616-11.83,35.306,35.306,0,0,1,12.89-4.527,31.767,31.767,0,0,1,4.318-.321,19.688,19.688,0,0,1,7.584,1.405,14.715,14.715,0,0,1,9.389,12.884c.035.375.058.75.075,1.125q1.767-2.1,3.72-4.023a40.016,40.016,0,0,1,13.963-9.22,28.09,28.09,0,0,1,10.095-2c.693,0,1.393.032,2.083.092a14.152,14.152,0,0,1,11.788,8.108,19.149,19.149,0,0,1,2,8.972q1.3-2.517,2.746-5.175,1.01-1.867,2.037-3.724l.139-.253c.711-1.3,1.424-2.591,2.127-3.891a5.085,5.085,0,0,1,4.6-2.731q4.879.014,9.718.012l8.006,0a4.091,4.091,0,0,1,3.441,1.869c.014.024.029.047.044.071a4.739,4.739,0,0,1,3.907-1.946q6.638.011,13.252.008h5.117a5.635,5.635,0,0,1,.857.071l.139.019a4.1,4.1,0,0,1,3.539,4.612c2.236-4.687,10.21-21.388,10.21-21.388q2.651-5.546,5.3-11.093a4.633,4.633,0,0,1,4.208-2.791,4.881,4.881,0,0,1,1.651.3,13.556,13.556,0,0,0,4.65.673c.385,0,.773-.008,1.161-.023A36.414,36.414,0,0,0,280.74,7.507a4.646,4.646,0,0,1,1.239-.241l.082-.006a3.639,3.639,0,0,1,.374-.017,4.1,4.1,0,0,1,3.731,5.8l-.32.706c-.225.5-.442.98-.666,1.455l-7.131,15.13q-6.781,14.386-13.558,28.774c-2.187,4.645-4.334,9.213-6.44,13.749a4.1,4.1,0,0,1,4.8-1.3l.172.071a4.086,4.086,0,0,1,2.285,5.209l-.205.566c-.166.456-.333.915-.511,1.371a56.392,56.392,0,0,1-9.923,16.881,24.92,24.92,0,0,1-9.639,7.191,17.928,17.928,0,0,1-6.572,1.3,16.19,16.19,0,0,1-6.706-1.467,11.21,11.21,0,0,1-5.9-6.357q-.663.72-1.357,1.4a20.748,20.748,0,0,1-10.592,6.012,19.051,19.051,0,0,1-3.773.4,13.428,13.428,0,0,1-7.733-2.327,11.342,11.342,0,0,1-4.148-5.214,32.247,32.247,0,0,1-2.907,2.84,18.352,18.352,0,0,1-7.14,3.98,15.07,15.07,0,0,1-4,.545,12.959,12.959,0,0,1-12.875-9.738,16.817,16.817,0,0,1-.618-3.744,18.094,18.094,0,0,1-3.065.732,46.6,46.6,0,0,1-8.212,7.8,26.29,26.29,0,0,1-11.514,5.223,23.725,23.725,0,0,1-3.8.321,17.337,17.337,0,0,1-10.458-3.318,15.957,15.957,0,0,1-5.811-8.59q-.3-1-.519-2.036-1.616,1.845-3.353,3.48a38.049,38.049,0,0,1-15.927,9.345,28.777,28.777,0,0,1-7.789,1.127,24.886,24.886,0,0,1-5.138-.533,17.417,17.417,0,0,1-13.667-12.6q-.208-.675-.379-1.363-.732,1.491-1.581,2.947a46.973,46.973,0,0,1-21.949,19.819,43.327,43.327,0,0,1-17.6,3.684M36.411,74.073a1.378,1.378,0,0,0-.473.685,4.354,4.354,0,0,0,2.984,5.381,10.8,10.8,0,0,0,3.69.667,12.21,12.21,0,0,0,4.962-1.136,14.962,14.962,0,0,0,8.369-9.6A16.254,16.254,0,0,0,56.6,66.94,17.09,17.09,0,0,1,46.56,77.314a12.734,12.734,0,0,1-4.778.97c-.246,0-.492-.007-.743-.024A4.889,4.889,0,0,1,37.3,76.429a4.433,4.433,0,0,1-.889-2.356M166.782,59.189a29.357,29.357,0,0,0-2.757,3.6q-1.122,1.661-2.107,3.3a17.053,17.053,0,0,1,2.882-1.024c.065-.133.111-.228.151-.325a30.674,30.674,0,0,0,1.832-5.55" transform="translate(0 0)"/>
    <path id="패스_2891" data-name="패스 2891" d="M44.077,120.652c-.976,0-1.969-.031-2.95-.092a40.8,40.8,0,0,1-23.015-8.537A35.562,35.562,0,0,1,5.49,93.308,37.031,37.031,0,0,1,4.334,79.48a37.55,37.55,0,0,1,7.31-18.993A34.154,34.154,0,0,1,30.159,47.666a31.026,31.026,0,0,1,8.332-1.16,29.949,29.949,0,0,1,4.724.376,22.623,22.623,0,0,1,12.921,6.2c-1.024-2.523-2.047-5.1-2.968-7.716A30.238,30.238,0,0,1,65.275,9.774,33.627,33.627,0,0,1,78.547,4.648a37.887,37.887,0,0,1,6.164-.512,37.237,37.237,0,0,1,8.75,1.051,28.119,28.119,0,0,1,14.95,8.576,20.526,20.526,0,0,1,5.416,17.078,21.9,21.9,0,0,1-7.74,14.056,19.866,19.866,0,0,1-13.194,4.953c-.448,0-.9-.013-1.356-.043a16.425,16.425,0,0,1-3.4-.661c-.311-.086-.6-.167-.9-.239a5.356,5.356,0,0,1-1.648-.734l-.141-.087a4.1,4.1,0,0,1,.927-7.53,2.4,2.4,0,0,0,1.934-2.043,1.749,1.749,0,0,0-.133-1.342A1.873,1.873,0,0,0,87,36.34a4.469,4.469,0,0,0-1.131-.149c-2.019,0-3.416,1.366-3.734,3.655a15.561,15.561,0,0,0,1.056,6.692c.542,1.711,1.108,3.415,1.673,5.119.975,2.941,1.97,5.94,2.846,8.96a52.576,52.576,0,0,1,1.65,7.861A58.235,58.235,0,0,1,95.977,58.33,48.882,48.882,0,0,1,109.593,46.5a35.3,35.3,0,0,1,12.89-4.527,31.756,31.756,0,0,1,4.318-.321,19.679,19.679,0,0,1,7.583,1.405,14.714,14.714,0,0,1,9.39,12.884q.051.563.075,1.125,1.767-2.1,3.719-4.023a40.029,40.029,0,0,1,13.964-9.22,28.091,28.091,0,0,1,10.1-2c.693,0,1.393.032,2.083.092A14.152,14.152,0,0,1,185.5,50.025a19.15,19.15,0,0,1,2,8.971q1.3-2.517,2.746-5.175,1.01-1.867,2.037-3.724l.139-.253c.711-1.3,1.424-2.591,2.127-3.891a5.084,5.084,0,0,1,4.6-2.731c3.253.009,6.486.012,9.718.012l8.006,0a4.088,4.088,0,0,1,3.44,1.869l.045.071a4.739,4.739,0,0,1,3.907-1.946q6.638.011,13.252.008h5.117a5.637,5.637,0,0,1,.857.071l.138.019a4.1,4.1,0,0,1,3.54,4.612c2.236-4.687,10.21-21.388,10.21-21.388q2.651-5.546,5.3-11.093a4.635,4.635,0,0,1,4.209-2.791,4.881,4.881,0,0,1,1.651.3,13.554,13.554,0,0,0,4.649.673c.386,0,.774-.008,1.162-.023a36.42,36.42,0,0,0,10.536-1.968,4.646,4.646,0,0,1,1.239-.241l.082-.006a3.64,3.64,0,0,1,.374-.017,4.1,4.1,0,0,1,3.731,5.8l-.32.706c-.226.5-.442.98-.666,1.455l-7.131,15.13Q275.4,48.854,268.627,63.242c-2.186,4.645-4.335,9.213-6.441,13.749a4.1,4.1,0,0,1,4.8-1.3l.172.071a4.087,4.087,0,0,1,2.285,5.209l-.2.566c-.166.456-.333.915-.512,1.371A56.394,56.394,0,0,1,258.8,99.785a24.911,24.911,0,0,1-9.638,7.191,17.928,17.928,0,0,1-6.572,1.3,16.189,16.189,0,0,1-6.706-1.467,11.208,11.208,0,0,1-5.9-6.357q-.661.72-1.356,1.4a20.752,20.752,0,0,1-10.592,6.012,19.049,19.049,0,0,1-3.773.4,13.425,13.425,0,0,1-7.733-2.327,11.343,11.343,0,0,1-4.149-5.214,32.381,32.381,0,0,1-2.907,2.841,18.359,18.359,0,0,1-7.14,3.98,15.07,15.07,0,0,1-4,.545,12.959,12.959,0,0,1-12.875-9.738,16.817,16.817,0,0,1-.618-3.744,18.1,18.1,0,0,1-3.065.732,46.6,46.6,0,0,1-8.212,7.8,26.288,26.288,0,0,1-11.515,5.223,23.7,23.7,0,0,1-3.8.321,17.337,17.337,0,0,1-10.458-3.318,15.951,15.951,0,0,1-5.811-8.59q-.3-1-.52-2.036-1.615,1.845-3.352,3.48a38.062,38.062,0,0,1-15.927,9.345,28.779,28.779,0,0,1-7.79,1.127,24.893,24.893,0,0,1-5.138-.533,17.42,17.42,0,0,1-13.667-12.6q-.208-.675-.378-1.363-.733,1.491-1.582,2.947a46.971,46.971,0,0,1-21.948,19.819,43.328,43.328,0,0,1-17.6,3.684M40.546,78.209a1.384,1.384,0,0,0-.473.685,4.354,4.354,0,0,0,2.985,5.381,10.8,10.8,0,0,0,3.689.667,12.215,12.215,0,0,0,4.963-1.136,14.96,14.96,0,0,0,8.368-9.6,16.256,16.256,0,0,0,.659-3.126A17.094,17.094,0,0,1,50.7,81.45a12.729,12.729,0,0,1-4.777.97c-.247,0-.493-.007-.743-.024a4.889,4.889,0,0,1-3.739-1.831,4.427,4.427,0,0,1-.89-2.356M170.917,63.325a29.456,29.456,0,0,0-2.756,3.6q-1.122,1.661-2.107,3.3a17.052,17.052,0,0,1,2.881-1.024c.065-.133.111-.228.151-.325a30.587,30.587,0,0,0,1.831-5.55" transform="translate(0.103 0.104)"/>
  </g>
  <path id="패스_2892" data-name="패스 2892" class="cls-1" d="M284.048,10.094a2.05,2.05,0,0,0-1.663-.852c-.072,0-.143,0-.215.011l-.1.008a2.606,2.606,0,0,0-.708.132,38.455,38.455,0,0,1-11.128,2.08c-.414.015-.826.025-1.238.025a15.515,15.515,0,0,1-5.344-.8,2.816,2.816,0,0,0-.956-.174,2.546,2.546,0,0,0-2.358,1.623q-2.645,5.551-5.3,11.1l-3.5,7.33Q244.2,45.936,236.88,61.3q-.906,1.9-1.819,3.789c-1.55,3.22-3.153,6.55-4.653,9.874a14.27,14.27,0,0,1-3.634,4.929,3.7,3.7,0,0,1-2.3,1.032q-.043,0-.074,0a.635.635,0,0,1,0-.078,4.533,4.533,0,0,1,.224-1.406c.671-1.816,1.339-3.586,2.121-5.267Q231.5,63.947,236.3,53.743l4.117-8.777c.112-.237.2-.485.3-.748l.1-.276a2.049,2.049,0,0,0-1.668-2.772L239,41.149a3.718,3.718,0,0,0-.56-.049h-5.117q-6.623,0-13.252-.009a2.787,2.787,0,0,0-2.6,1.688l-1.814,3.767Q210.809,56.61,205.94,66.66l-.064.129a52.121,52.121,0,0,1-5.234,9.17,12.019,12.019,0,0,1-1.4,1.5c.128-.376.253-.754.378-1.132a31.455,31.455,0,0,1,1.309-3.508q4.656-9.93,9.381-19.828l3.521-7.413c.159-.336.31-.676.478-1.058l.24-.541a2.05,2.05,0,0,0-1.872-2.886h-8.007q-4.851,0-9.718-.012a3.01,3.01,0,0,0-2.791,1.655c-.732,1.353-1.474,2.7-2.215,4.05q-1.049,1.908-2.09,3.82c-3.552,6.554-6.452,12.4-8.865,17.867a7.733,7.733,0,0,1-1.319,2.065c.083-.2.166-.407.247-.611a42.729,42.729,0,0,0,3.331-14.708,17.277,17.277,0,0,0-1.769-8.456,12.185,12.185,0,0,0-10.141-7c-.627-.056-1.267-.084-1.9-.084a26.092,26.092,0,0,0-9.365,1.864,38.035,38.035,0,0,0-13.255,8.764,56.416,56.416,0,0,0-8.19,10.192,21.753,21.753,0,0,0,.916-8.571,12.594,12.594,0,0,0-8.124-11.17,17.67,17.67,0,0,0-6.807-1.252,29.631,29.631,0,0,0-4.039.3,33.246,33.246,0,0,0-12.143,4.27A46.816,46.816,0,0,0,93.389,55.428,49.921,49.921,0,0,0,83.241,75.493c.1-.876.181-1.757.227-2.642A47.927,47.927,0,0,0,81.55,57c-.865-2.986-1.855-5.969-2.812-8.855-.572-1.723-1.144-3.446-1.691-5.177-.8-2.531-1.493-5.017-1.133-7.595.459-3.293,2.723-5.422,5.765-5.422a6.574,6.574,0,0,1,1.643.213,3.9,3.9,0,0,1,2.444,1.787,3.77,3.77,0,0,1,.337,2.909,4.4,4.4,0,0,1-3.37,3.482,2.05,2.05,0,0,0-.464,3.765c.09.051.166.1.233.141a3.334,3.334,0,0,0,1.038.476c.315.077.628.164.943.251a14.722,14.722,0,0,0,2.994.6q.62.038,1.228.039A17.875,17.875,0,0,0,100.57,39.15a19.909,19.909,0,0,0,7.038-12.776,18.554,18.554,0,0,0-4.913-15.433,26.148,26.148,0,0,0-13.9-7.948A35.186,35.186,0,0,0,80.524,2a35.845,35.845,0,0,0-5.83.484,31.615,31.615,0,0,0-12.47,4.811A28.186,28.186,0,0,0,50.916,40.5c1.154,3.277,2.482,6.528,3.766,9.671l.488,1.2a48.381,48.381,0,0,1,3.214,9.972,19.463,19.463,0,0,1-.537,9.3,16.928,16.928,0,0,1-9.487,10.858,14.252,14.252,0,0,1-5.8,1.313,12.843,12.843,0,0,1-4.389-.79,6.388,6.388,0,0,1-4.259-7.853,3.483,3.483,0,0,1,3.254-2.5,3.006,3.006,0,0,1,.448.034,1.185,1.185,0,0,1,.807.415.748.748,0,0,1,.086.6,2.592,2.592,0,0,0,2.618,3.452c.2.013.4.019.607.019a10.708,10.708,0,0,0,4.017-.824,14.83,14.83,0,0,0,5.972-23.665C48.585,47.9,44.327,45.621,38.7,44.72a27.919,27.919,0,0,0-4.4-.351,28.925,28.925,0,0,0-7.78,1.086A32.142,32.142,0,0,0,9.1,57.529,35.511,35.511,0,0,0,2.189,75.5,35,35,0,0,0,3.276,88.565a33.564,33.564,0,0,0,11.911,17.656,38.787,38.787,0,0,0,21.881,8.106c.943.059,1.892.088,2.822.088a41.281,41.281,0,0,0,16.776-3.51,44.963,44.963,0,0,0,21-18.975A43.031,43.031,0,0,0,82.43,80.106a26.69,26.69,0,0,0,.932,10.671,15.472,15.472,0,0,0,12.132,11.2,22.819,22.819,0,0,0,4.714.489,26.7,26.7,0,0,0,7.233-1.05,36.047,36.047,0,0,0,15.079-8.865,49.639,49.639,0,0,0,6.2-7.1,25.342,25.342,0,0,0,1.035,6.563,13.947,13.947,0,0,0,5.058,7.521,15.321,15.321,0,0,0,9.247,2.924,21.629,21.629,0,0,0,3.471-.294,24.325,24.325,0,0,0,10.629-4.851,45.017,45.017,0,0,0,8.361-8.084,15.8,15.8,0,0,0,6.292-2.006,16.117,16.117,0,0,0,.431,6.387,10.975,10.975,0,0,0,10.9,8.249,13.008,13.008,0,0,0,3.453-.472,16.358,16.358,0,0,0,6.347-3.559,32.966,32.966,0,0,0,5.19-5.712c.058.408.13.809.214,1.205a10.269,10.269,0,0,0,4.147,6.743,11.409,11.409,0,0,0,6.574,1.968,17.007,17.007,0,0,0,3.37-.36,18.809,18.809,0,0,0,9.564-5.47,34.711,34.711,0,0,0,3.824-4.435,16.085,16.085,0,0,0,.446,2.444,9.4,9.4,0,0,0,5.264,6.549,14.14,14.14,0,0,0,5.861,1.286,15.891,15.891,0,0,0,5.821-1.163,22.943,22.943,0,0,0,8.848-6.636,54.376,54.376,0,0,0,9.557-16.279c.172-.437.332-.879.492-1.321l.209-.573a2.05,2.05,0,0,0-1.141-2.6l-.164-.068a2.049,2.049,0,0,0-2.5.793l-.546.853A20.51,20.51,0,0,1,255.09,79.9a3.849,3.849,0,0,1-2.3,1.024c-.029,0-.052,0-.073,0a1.035,1.035,0,0,1-.008-.131,2.232,2.232,0,0,1,.043-.571c.1-.305.192-.613.287-.921a22.67,22.67,0,0,1,.992-2.8c2.775-6.033,5.628-12.1,8.549-18.311q6.775-14.391,13.559-28.775l7.132-15.13c.219-.464.432-.934.653-1.425l.322-.711a2.049,2.049,0,0,0-.2-2.047M111.614,63.566a30.049,30.049,0,0,1,6.362-8.435,9.252,9.252,0,0,1,1.321-.983,9.866,9.866,0,0,1-1.166,2.782,19.064,19.064,0,0,1-5.9,6.512,5.387,5.387,0,0,1-.748.432,2.115,2.115,0,0,1,.132-.308m19.965,6.976a4.139,4.139,0,0,1-.635,1.133,30.273,30.273,0,0,1-11.92,8.716,14.914,14.914,0,0,1-5.647,1.26,10.469,10.469,0,0,1-2.747-.362,4.236,4.236,0,0,1-3.343-3,7.685,7.685,0,0,1-.211-.894,7.523,7.523,0,0,0,3.442,1.446,17.786,17.786,0,0,0,2.624.195,20.714,20.714,0,0,0,6.953-1.278,26.073,26.073,0,0,0,12.314-9.226q-.432.995-.831,2.012M166.8,65.467c-.071.173-.154.341-.236.509-.119.245-.249.513-.367.809a14.211,14.211,0,0,0-6.39,2.953,12.127,12.127,0,0,0-4.2,7.468,12.989,12.989,0,0,0-.072,3.834,4.605,4.605,0,0,1-1.577.572.987.987,0,0,1-.1.014c-.005-.032-.009-.07-.013-.112a11.368,11.368,0,0,1,.684-4.336,60.332,60.332,0,0,1,7.754-15.589,22.568,22.568,0,0,1,4.849-5.577,2.331,2.331,0,0,1,1.254-.635h.032c.26.01.448.016.544.621a8.364,8.364,0,0,1,.079.93l.013.236a25.319,25.319,0,0,1-2.25,8.3" transform="translate(0.05 0.051)"/>
  <g id="그룹_2066" data-name="그룹 2066" transform="translate(4.098 4.101)">
    <path id="패스_2893" data-name="패스 2893" class="cls-2" d="M129.566,76.7c-.483.855-.962,1.714-1.452,2.565A49.793,49.793,0,0,1,119.1,90.826a34.254,34.254,0,0,1-14.23,8.385A22.68,22.68,0,0,1,93.9,99.74a13.341,13.341,0,0,1-10.6-9.793,25.379,25.379,0,0,1-.531-12.168,47.407,47.407,0,0,1,10.2-21.3,44.576,44.576,0,0,1,12.472-10.848,31.1,31.1,0,0,1,11.395-4.013,18.658,18.658,0,0,1,9.793.817,10.534,10.534,0,0,1,6.856,9.455c.505,5.644-1.372,10.614-4.673,15.1A24,24,0,0,1,117.394,75.6a17.489,17.489,0,0,1-8.583.986,5.838,5.838,0,0,1-4.771-4.624,7.2,7.2,0,0,0-.41-1.39c-.127.529-.279,1.054-.376,1.589a13.585,13.585,0,0,0,.058,6.493,6.269,6.269,0,0,0,4.774,4.389,14.842,14.842,0,0,0,9.7-.979,32.188,32.188,0,0,0,12.719-9.3,6.211,6.211,0,0,0,.969-1.7,55.429,55.429,0,0,1,12.768-19.511,36.292,36.292,0,0,1,12.547-8.309,23.151,23.151,0,0,1,10.356-1.653,10.123,10.123,0,0,1,8.5,5.884,15.17,15.17,0,0,1,1.546,7.465A41.266,41.266,0,0,1,174,68.95c-.718,1.811-1.566,3.571-2.355,5.354-.058.131-.112.263-.254.6a10.878,10.878,0,0,0,1.757-.42,10.364,10.364,0,0,0,5.707-5.407c2.662-6.036,5.647-11.918,8.791-17.717,1.425-2.63,2.884-5.242,4.306-7.873a.975.975,0,0,1,1-.581c5.634.018,11.267.011,16.9.011h.817c-.27.6-.474,1.085-.7,1.555-4.307,9.081-8.639,18.151-12.906,27.251a50.68,50.68,0,0,0-1.828,5.01,4.6,4.6,0,0,0-.165,1.192c-.04.632,0,1.276.637,1.62a1.839,1.839,0,0,0,2.055-.06,15.4,15.4,0,0,0,2.492-2.505,54.931,54.931,0,0,0,5.515-9.652Q211.567,55.4,217.3,43.44a.752.752,0,0,1,.758-.528q9.183.018,18.365.01c.125,0,.249.029.472.055-.125.325-.217.616-.345.891q-6.842,14.6-13.678,29.207c-.822,1.764-1.511,3.594-2.185,5.422a6.572,6.572,0,0,0-.352,2.056,2.011,2.011,0,0,0,2.357,2.182,5.734,5.734,0,0,0,3.424-1.536,16.332,16.332,0,0,0,4.145-5.624c2.068-4.579,4.291-9.087,6.453-13.623q7.325-15.361,14.654-30.721,4.4-9.213,8.8-18.427c.171-.36.341-.556.77-.4a19.271,19.271,0,0,0,7.352.891A40.3,40.3,0,0,0,280.015,11.1a2.179,2.179,0,0,1,.357-.039c-.342.752-.645,1.436-.963,2.111q-10.345,21.954-20.69,43.906c-2.872,6.1-5.74,12.2-8.557,18.326a34.6,34.6,0,0,0-1.37,3.956,3.992,3.992,0,0,0-.14,1.2,2.027,2.027,0,0,0,2.369,2.175,5.856,5.856,0,0,0,3.376-1.5,22.115,22.115,0,0,0,4.306-5.326c.177-.282.36-.561.539-.842l.155.064c-.228.617-.444,1.239-.685,1.852a52.435,52.435,0,0,1-9.19,15.677,21.17,21.17,0,0,1-8.058,6.083,12.508,12.508,0,0,1-10.088-.084,7.434,7.434,0,0,1-4.126-5.207,19.364,19.364,0,0,1,.12-8.9,6.42,6.42,0,0,0,.166-1.3c-.152.24-.32.471-.453.72a42.032,42.032,0,0,1-7.516,10.531,17.038,17.038,0,0,1-8.535,4.928c-2.941.589-5.811.472-8.383-1.291a8.332,8.332,0,0,1-3.3-5.475,20.349,20.349,0,0,1-.047-7.473.467.467,0,0,0-.13-.4c-.315.535-.632,1.068-.943,1.605a36.5,36.5,0,0,1-7.626,9.642,14.39,14.39,0,0,1-5.555,3.136c-4.937,1.357-10.247-.75-11.841-6.361a15.144,15.144,0,0,1-.1-7.248c.213-1.059.49-2.1.731-3.158a3.639,3.639,0,0,0,.03-.526c-.688.648-1.275,1.249-1.912,1.792a13.742,13.742,0,0,1-7.847,3.3,1.424,1.424,0,0,0-1.065.574,43.414,43.414,0,0,1-8.109,7.88,22.639,22.639,0,0,1-9.743,4.479c-3.978.649-7.81.2-11.179-2.261a11.889,11.889,0,0,1-4.3-6.452,26.243,26.243,0,0,1-.5-12.044c.135-.8.3-1.605.45-2.408l-.1-.04m39.521-19.772c-.027-.346-.031-.924-.121-1.487a2.511,2.511,0,0,0-2.5-2.345,4.029,4.029,0,0,0-2.6,1.053,24.621,24.621,0,0,0-5.3,6.059,62.744,62.744,0,0,0-8.01,16.116,13.18,13.18,0,0,0-.773,5.132,1.933,1.933,0,0,0,2.512,1.944A6.632,6.632,0,0,0,155.388,82a.855.855,0,0,0,.274-.671,11.6,11.6,0,0,1-.055-3.992,10.076,10.076,0,0,1,3.495-6.245,12.168,12.168,0,0,1,5.615-2.547,1.394,1.394,0,0,0,1.271-.956c.174-.541.477-1.039.693-1.568a26.907,26.907,0,0,0,2.407-9.083m-49.665-3.471c.047-1.59-1.064-2.379-2.36-1.757a10.857,10.857,0,0,0-2.462,1.666,32.379,32.379,0,0,0-6.8,8.991,5.707,5.707,0,0,0-.581,2.12c-.086.872.482,1.368,1.357,1.406a4.631,4.631,0,0,0,2.779-.968,21.184,21.184,0,0,0,6.538-7.188,10.517,10.517,0,0,0,1.53-4.27" transform="translate(-2.034 -3.825)"/>
    <path id="패스_2894" data-name="패스 2894" class="cls-2" d="M83.223,40.274a6.454,6.454,0,0,0,4.809-4.921,5.767,5.767,0,0,0-4.246-7.22c-4.62-1.194-9.2,1.513-9.953,6.911-.412,2.956.335,5.738,1.209,8.5,1.478,4.666,3.127,9.283,4.489,13.982A45.8,45.8,0,0,1,81.37,72.7a39.786,39.786,0,0,1-5.52,18.153A42.791,42.791,0,0,1,55.79,108.98a39.44,39.44,0,0,1-18.642,3.251A36.61,36.61,0,0,1,16.4,104.555a31.453,31.453,0,0,1-11.2-16.6,32.81,32.81,0,0,1-1.023-12.3,33.366,33.366,0,0,1,6.515-16.949A30.043,30.043,0,0,1,27.025,47.379a26.276,26.276,0,0,1,11.3-.685c4.619.74,8.717,2.575,11.762,6.256a12.781,12.781,0,0,1-5.152,20.454,8.5,8.5,0,0,1-3.73.663c-.81-.053-.914-.192-.746-.98a2.86,2.86,0,0,0-2.589-3.468,5.484,5.484,0,0,0-5.987,3.947,8.463,8.463,0,0,0,5.537,10.326,15.174,15.174,0,0,0,11.721-.577,18.889,18.889,0,0,0,10.608-12.11,21.415,21.415,0,0,0,.6-10.267,50.69,50.69,0,0,0-3.334-10.394c-1.457-3.571-2.94-7.137-4.219-10.773A26.133,26.133,0,0,1,63.311,8.951,29.4,29.4,0,0,1,74.98,4.457a33.043,33.043,0,0,1,13.28.479,24.355,24.355,0,0,1,12.856,7.32,16.582,16.582,0,0,1,4.412,13.789,17.9,17.9,0,0,1-6.337,11.5,15.869,15.869,0,0,1-11.636,3.938,21.213,21.213,0,0,1-3.581-.792,3.86,3.86,0,0,1-.75-.412" transform="translate(-3.998 -4.001)"/>
  </g>
  <rect id="사각형_3592" data-name="사각형 3592" class="cls-3" width="290.773" height="120.755" transform="translate(0)"/>
</svg>
