<svg xmlns="http://www.w3.org/2000/svg" width="95.312" height="9.66" viewBox="0 0 95.312 9.66">
  <defs>
    <style>
      .cls-1 {
        fill: #104d88;
      }
    </style>
  </defs>
  <path id="패스_3490" data-name="패스 3490" class="cls-1" d="M-43.848.168c2.506,0,3.892-1.246,3.892-3.122,0-3.472-5.278-2.6-5.278-3.752,0-.406.308-.644,1.008-.644a4.33,4.33,0,0,1,2.73.98l1.316-1.806a5.7,5.7,0,0,0-3.794-1.3c-2.394,0-3.71,1.4-3.71,2.968,0,3.6,5.278,2.576,5.278,3.808,0,.462-.5.742-1.316.742a4.228,4.228,0,0,1-3-1.232l-1.274,1.876A5.771,5.771,0,0,0-43.848.168Zm9.17,0A4.359,4.359,0,0,0-30.6-2.338l-2.072-.98a2.242,2.242,0,0,1-2,1.358,2.58,2.58,0,0,1-2.6-2.7,2.572,2.572,0,0,1,2.6-2.7,2.242,2.242,0,0,1,2,1.358L-30.6-7a4.306,4.306,0,0,0-4.074-2.492,4.767,4.767,0,0,0-5.054,4.83A4.775,4.775,0,0,0-34.678.168ZM-22.022,0l-1.9-3.43a2.812,2.812,0,0,0,1.862-2.8,3.007,3.007,0,0,0-3.248-3.108h-4.676V0h2.408V-3.136h1.232L-24.78,0Zm-3.654-5.236h-1.9v-2h1.9a1.028,1.028,0,0,1,1.162.994A1.03,1.03,0,0,1-25.676-5.236Zm9.044,5.4a4.741,4.741,0,0,0,4.984-4.83,4.741,4.741,0,0,0-4.984-4.83,4.753,4.753,0,0,0-5,4.83A4.753,4.753,0,0,0-16.632.168Zm0-2.128a2.535,2.535,0,0,1-2.548-2.7,2.528,2.528,0,0,1,2.548-2.7,2.517,2.517,0,0,1,2.534,2.7A2.524,2.524,0,0,1-16.632-1.96ZM-4.732,0V-2.1H-8.484V-9.338h-2.408V0ZM2.2,0V-2.1H-1.554V-9.338H-3.962V0Zm7.91,0c2.926,0,5.04-1.778,5.04-4.676s-2.114-4.662-5.054-4.662H6.174V0Zm-.014-2.1H8.582V-7.238h1.526a2.391,2.391,0,0,1,2.576,2.562A2.479,2.479,0,0,1,10.094-2.1ZM20.454.168a4.741,4.741,0,0,0,4.984-4.83,4.741,4.741,0,0,0-4.984-4.83,4.753,4.753,0,0,0-5,4.83A4.753,4.753,0,0,0,20.454.168Zm0-2.128a2.535,2.535,0,0,1-2.548-2.7,2.528,2.528,0,0,1,2.548-2.7,2.517,2.517,0,0,1,2.534,2.7A2.524,2.524,0,0,1,20.454-1.96ZM35.63,0,38.3-9.338H35.588l-1.4,6.23-1.6-6.23H30.744l-1.6,6.23-1.414-6.23h-2.7L27.706,0h2.548l1.414-5.852L33.082,0ZM47.32,0V-9.338H44.9V-4.2l-3.78-5.138H38.64V0h2.408V-5.4L45,0Z" transform="translate(47.992 9.492)"/>
</svg>
