<svg xmlns="http://www.w3.org/2000/svg" width="1920" height="72.452" viewBox="0 0 1920 72.452">
  <defs>
    <style>
      .cls-1 {
        fill: #f7f2dc;
      }

      .cls-2 {
        fill: #88c3d5;
      }
    </style>
  </defs>
  <g id="그룹_2446" data-name="그룹 2446" transform="translate(0 -15373.548)">
    <g id="그룹_1983" data-name="그룹 1983" transform="translate(0 15373.549)">
      <rect id="사각형_3484" data-name="사각형 3484" class="cls-1" width="36.226" height="36.226" transform="translate(0 -0.001)"/>
      <rect id="사각형_3485" data-name="사각형 3485" class="cls-1" width="36.226" height="36.226" transform="translate(72.454 -0.001)"/>
      <rect id="사각형_3687" data-name="사각형 3687" class="cls-1" width="36.226" height="36.226" transform="translate(1014.34 -0.001)"/>
      <rect id="사각형_3486" data-name="사각형 3486" class="cls-1" width="36.227" height="36.226" transform="translate(144.906 -0.001)"/>
      <rect id="사각형_3693" data-name="사각형 3693" class="cls-1" width="36.227" height="36.226" transform="translate(1086.792 -0.001)"/>
      <rect id="사각형_3487" data-name="사각형 3487" class="cls-1" width="36.226" height="36.226" transform="translate(217.36 -0.001)"/>
      <rect id="사각형_3694" data-name="사각형 3694" class="cls-1" width="36.226" height="36.226" transform="translate(1159.246 -0.001)"/>
      <rect id="사각형_3488" data-name="사각형 3488" class="cls-1" width="36.226" height="36.226" transform="translate(289.811 -0.001)"/>
      <rect id="사각형_3695" data-name="사각형 3695" class="cls-1" width="36.226" height="36.226" transform="translate(1231.698 -0.001)"/>
      <rect id="사각형_3489" data-name="사각형 3489" class="cls-1" width="36.227" height="36.226" transform="translate(362.264 -0.001)"/>
      <rect id="사각형_3705" data-name="사각형 3705" class="cls-1" width="36.227" height="36.226" transform="translate(1304.151 -0.001)"/>
      <rect id="사각형_3490" data-name="사각형 3490" class="cls-1" width="36.226" height="36.226" transform="translate(434.716 -0.001)"/>
      <rect id="사각형_3706" data-name="사각형 3706" class="cls-1" width="36.226" height="36.226" transform="translate(1376.603 -0.001)"/>
      <rect id="사각형_3491" data-name="사각형 3491" class="cls-1" width="36.226" height="36.226" transform="translate(507.17 -0.001)"/>
      <rect id="사각형_3713" data-name="사각형 3713" class="cls-1" width="36.226" height="36.226" transform="translate(1449.056 -0.001)"/>
      <rect id="사각형_3492" data-name="사각형 3492" class="cls-1" width="36.226" height="36.226" transform="translate(579.623 -0.001)"/>
      <rect id="사각형_3714" data-name="사각형 3714" class="cls-1" width="36.226" height="36.226" transform="translate(1521.509 -0.001)"/>
      <rect id="사각형_3493" data-name="사각형 3493" class="cls-1" width="36.227" height="36.226" transform="translate(652.076 -0.001)"/>
      <rect id="사각형_3715" data-name="사각형 3715" class="cls-1" width="36.227" height="36.226" transform="translate(1593.962 -0.001)"/>
      <rect id="사각형_3494" data-name="사각형 3494" class="cls-1" width="36.226" height="36.226" transform="translate(724.529 -0.001)"/>
      <rect id="사각형_3716" data-name="사각형 3716" class="cls-1" width="36.226" height="36.226" transform="translate(1666.415 -0.001)"/>
      <rect id="사각형_3498" data-name="사각형 3498" class="cls-1" width="36.226" height="36.226" transform="translate(36.227 36.225)"/>
      <rect id="사각형_3688" data-name="사각형 3688" class="cls-1" width="36.226" height="36.226" transform="translate(978.113 36.225)"/>
      <rect id="사각형_3499" data-name="사각형 3499" class="cls-1" width="36.226" height="36.226" transform="translate(108.679 36.225)"/>
      <rect id="사각형_3689" data-name="사각형 3689" class="cls-1" width="36.226" height="36.226" transform="translate(1050.565 36.225)"/>
      <rect id="사각형_3500" data-name="사각형 3500" class="cls-1" width="36.226" height="36.226" transform="translate(181.133 36.225)"/>
      <rect id="사각형_3696" data-name="사각형 3696" class="cls-1" width="36.226" height="36.226" transform="translate(1123.019 36.225)"/>
      <rect id="사각형_3501" data-name="사각형 3501" class="cls-1" width="36.226" height="36.226" transform="translate(253.585 36.225)"/>
      <rect id="사각형_3697" data-name="사각형 3697" class="cls-1" width="36.226" height="36.226" transform="translate(1195.471 36.225)"/>
      <rect id="사각형_3502" data-name="사각형 3502" class="cls-1" width="36.226" height="36.226" transform="translate(326.037 36.225)"/>
      <rect id="사각형_3698" data-name="사각형 3698" class="cls-1" width="36.226" height="36.226" transform="translate(1267.924 36.225)"/>
      <rect id="사각형_3503" data-name="사각형 3503" class="cls-1" width="36.226" height="36.226" transform="translate(398.491 36.225)"/>
      <rect id="사각형_3707" data-name="사각형 3707" class="cls-1" width="36.226" height="36.226" transform="translate(1340.378 36.225)"/>
      <rect id="사각형_3504" data-name="사각형 3504" class="cls-1" width="36.226" height="36.226" transform="translate(470.944 36.225)"/>
      <rect id="사각형_3708" data-name="사각형 3708" class="cls-1" width="36.226" height="36.226" transform="translate(1412.831 36.225)"/>
      <rect id="사각형_3505" data-name="사각형 3505" class="cls-1" width="36.226" height="36.226" transform="translate(543.397 36.225)"/>
      <rect id="사각형_3717" data-name="사각형 3717" class="cls-1" width="36.226" height="36.226" transform="translate(1485.283 36.225)"/>
      <rect id="사각형_3506" data-name="사각형 3506" class="cls-1" width="36.226" height="36.226" transform="translate(615.849 36.225)"/>
      <rect id="사각형_3718" data-name="사각형 3718" class="cls-1" width="36.226" height="36.226" transform="translate(1557.735 36.225)"/>
      <rect id="사각형_3507" data-name="사각형 3507" class="cls-1" width="36.226" height="36.226" transform="translate(688.302 36.225)"/>
      <rect id="사각형_3719" data-name="사각형 3719" class="cls-1" width="36.226" height="36.226" transform="translate(1630.188 36.225)"/>
      <rect id="사각형_3495" data-name="사각형 3495" class="cls-1" width="36.226" height="36.226" transform="translate(796.982 -0.001)"/>
      <rect id="사각형_3727" data-name="사각형 3727" class="cls-1" width="36.226" height="36.226" transform="translate(1738.868 -0.001)"/>
      <rect id="사각형_3496" data-name="사각형 3496" class="cls-1" width="36.227" height="36.226" transform="translate(869.433 -0.001)"/>
      <rect id="사각형_3728" data-name="사각형 3728" class="cls-1" width="36.227" height="36.226" transform="translate(1811.32 -0.001)"/>
      <rect id="사각형_3497" data-name="사각형 3497" class="cls-1" width="36.226" height="36.226" transform="translate(941.887 -0.001)"/>
      <rect id="사각형_3729" data-name="사각형 3729" class="cls-1" width="36.226" height="36.226" transform="translate(1883.774 -0.001)"/>
      <rect id="사각형_3508" data-name="사각형 3508" class="cls-1" width="36.226" height="36.226" transform="translate(760.755 36.225)"/>
      <rect id="사각형_3730" data-name="사각형 3730" class="cls-1" width="36.226" height="36.226" transform="translate(1702.641 36.225)"/>
      <rect id="사각형_3509" data-name="사각형 3509" class="cls-1" width="36.226" height="36.226" transform="translate(833.209 36.225)"/>
      <rect id="사각형_3731" data-name="사각형 3731" class="cls-1" width="36.226" height="36.226" transform="translate(1775.095 36.225)"/>
      <rect id="사각형_3510" data-name="사각형 3510" class="cls-1" width="36.226" height="36.226" transform="translate(905.66 36.225)"/>
      <rect id="사각형_3732" data-name="사각형 3732" class="cls-1" width="36.226" height="36.226" transform="translate(1847.547 36.225)"/>
    </g>
    <g id="그룹_1982" data-name="그룹 1982" transform="translate(0 15373.549)">
      <rect id="사각형_3511" data-name="사각형 3511" class="cls-2" width="36.227" height="36.226" transform="translate(36.227 -0.001)"/>
      <rect id="사각형_3686" data-name="사각형 3686" class="cls-2" width="36.227" height="36.226" transform="translate(978.113 -0.001)"/>
      <rect id="사각형_3512" data-name="사각형 3512" class="cls-2" width="36.226" height="36.226" transform="translate(108.679 -0.001)"/>
      <rect id="사각형_3690" data-name="사각형 3690" class="cls-2" width="36.226" height="36.226" transform="translate(1050.565 -0.001)"/>
      <rect id="사각형_3513" data-name="사각형 3513" class="cls-2" width="36.226" height="36.226" transform="translate(181.133 -0.001)"/>
      <rect id="사각형_3699" data-name="사각형 3699" class="cls-2" width="36.226" height="36.226" transform="translate(1123.019 -0.001)"/>
      <rect id="사각형_3514" data-name="사각형 3514" class="cls-2" width="36.227" height="36.226" transform="translate(253.585 -0.001)"/>
      <rect id="사각형_3700" data-name="사각형 3700" class="cls-2" width="36.227" height="36.226" transform="translate(1195.471 -0.001)"/>
      <rect id="사각형_3515" data-name="사각형 3515" class="cls-2" width="36.226" height="36.226" transform="translate(326.037 -0.001)"/>
      <rect id="사각형_3701" data-name="사각형 3701" class="cls-2" width="36.226" height="36.226" transform="translate(1267.924 -0.001)"/>
      <rect id="사각형_3516" data-name="사각형 3516" class="cls-2" width="36.226" height="36.226" transform="translate(398.491 -0.001)"/>
      <rect id="사각형_3709" data-name="사각형 3709" class="cls-2" width="36.226" height="36.226" transform="translate(1340.378 -0.001)"/>
      <rect id="사각형_3517" data-name="사각형 3517" class="cls-2" width="36.227" height="36.226" transform="translate(470.943 -0.001)"/>
      <rect id="사각형_3710" data-name="사각형 3710" class="cls-2" width="36.227" height="36.226" transform="translate(1412.829 -0.001)"/>
      <rect id="사각형_3518" data-name="사각형 3518" class="cls-2" width="36.227" height="36.226" transform="translate(543.397 -0.001)"/>
      <rect id="사각형_3720" data-name="사각형 3720" class="cls-2" width="36.227" height="36.226" transform="translate(1485.283 -0.001)"/>
      <rect id="사각형_3519" data-name="사각형 3519" class="cls-2" width="36.226" height="36.226" transform="translate(615.849 -0.001)"/>
      <rect id="사각형_3721" data-name="사각형 3721" class="cls-2" width="36.226" height="36.226" transform="translate(1557.735 -0.001)"/>
      <rect id="사각형_3520" data-name="사각형 3520" class="cls-2" width="36.226" height="36.226" transform="translate(688.302 -0.001)"/>
      <rect id="사각형_3722" data-name="사각형 3722" class="cls-2" width="36.226" height="36.226" transform="translate(1630.188 -0.001)"/>
      <rect id="사각형_3524" data-name="사각형 3524" class="cls-2" width="36.226" height="36.226" transform="translate(0 36.225)"/>
      <rect id="사각형_3525" data-name="사각형 3525" class="cls-2" width="36.226" height="36.226" transform="translate(72.454 36.225)"/>
      <rect id="사각형_3692" data-name="사각형 3692" class="cls-2" width="36.226" height="36.226" transform="translate(1014.34 36.225)"/>
      <rect id="사각형_3526" data-name="사각형 3526" class="cls-2" width="36.226" height="36.226" transform="translate(144.906 36.225)"/>
      <rect id="사각형_3702" data-name="사각형 3702" class="cls-2" width="36.226" height="36.226" transform="translate(1086.792 36.225)"/>
      <rect id="사각형_3527" data-name="사각형 3527" class="cls-2" width="36.226" height="36.226" transform="translate(217.36 36.225)"/>
      <rect id="사각형_3703" data-name="사각형 3703" class="cls-2" width="36.226" height="36.226" transform="translate(1159.246 36.225)"/>
      <rect id="사각형_3528" data-name="사각형 3528" class="cls-2" width="36.226" height="36.226" transform="translate(289.811 36.225)"/>
      <rect id="사각형_3704" data-name="사각형 3704" class="cls-2" width="36.226" height="36.226" transform="translate(1231.698 36.225)"/>
      <rect id="사각형_3529" data-name="사각형 3529" class="cls-2" width="36.226" height="36.226" transform="translate(362.264 36.225)"/>
      <rect id="사각형_3711" data-name="사각형 3711" class="cls-2" width="36.226" height="36.226" transform="translate(1304.151 36.225)"/>
      <rect id="사각형_3530" data-name="사각형 3530" class="cls-2" width="36.226" height="36.226" transform="translate(434.716 36.225)"/>
      <rect id="사각형_3712" data-name="사각형 3712" class="cls-2" width="36.226" height="36.226" transform="translate(1376.603 36.225)"/>
      <rect id="사각형_3531" data-name="사각형 3531" class="cls-2" width="36.226" height="36.226" transform="translate(507.17 36.225)"/>
      <rect id="사각형_3723" data-name="사각형 3723" class="cls-2" width="36.226" height="36.226" transform="translate(1449.056 36.225)"/>
      <rect id="사각형_3532" data-name="사각형 3532" class="cls-2" width="36.226" height="36.226" transform="translate(579.623 36.225)"/>
      <rect id="사각형_3724" data-name="사각형 3724" class="cls-2" width="36.226" height="36.226" transform="translate(1521.509 36.225)"/>
      <rect id="사각형_3533" data-name="사각형 3533" class="cls-2" width="36.226" height="36.226" transform="translate(652.076 36.225)"/>
      <rect id="사각형_3725" data-name="사각형 3725" class="cls-2" width="36.226" height="36.226" transform="translate(1593.962 36.225)"/>
      <rect id="사각형_3534" data-name="사각형 3534" class="cls-2" width="36.226" height="36.226" transform="translate(724.529 36.225)"/>
      <rect id="사각형_3726" data-name="사각형 3726" class="cls-2" width="36.226" height="36.226" transform="translate(1666.415 36.225)"/>
      <rect id="사각형_3521" data-name="사각형 3521" class="cls-2" width="36.227" height="36.226" transform="translate(760.755 -0.001)"/>
      <rect id="사각형_3733" data-name="사각형 3733" class="cls-2" width="36.227" height="36.226" transform="translate(1702.641 -0.001)"/>
      <rect id="사각형_3522" data-name="사각형 3522" class="cls-2" width="36.226" height="36.226" transform="translate(833.209 -0.001)"/>
      <rect id="사각형_3734" data-name="사각형 3734" class="cls-2" width="36.226" height="36.226" transform="translate(1775.095 -0.001)"/>
      <rect id="사각형_3523" data-name="사각형 3523" class="cls-2" width="36.226" height="36.226" transform="translate(905.66 -0.001)"/>
      <rect id="사각형_3735" data-name="사각형 3735" class="cls-2" width="36.226" height="36.226" transform="translate(1847.547 -0.001)"/>
      <rect id="사각형_3535" data-name="사각형 3535" class="cls-2" width="36.226" height="36.226" transform="translate(796.982 36.225)"/>
      <rect id="사각형_3736" data-name="사각형 3736" class="cls-2" width="36.226" height="36.226" transform="translate(1738.868 36.225)"/>
      <rect id="사각형_3536" data-name="사각형 3536" class="cls-2" width="36.226" height="36.226" transform="translate(869.435 36.225)"/>
      <rect id="사각형_3737" data-name="사각형 3737" class="cls-2" width="36.226" height="36.226" transform="translate(1811.321 36.225)"/>
      <rect id="사각형_3537" data-name="사각형 3537" class="cls-2" width="36.226" height="36.226" transform="translate(941.887 36.225)"/>
      <rect id="사각형_3738" data-name="사각형 3738" class="cls-2" width="36.226" height="36.226" transform="translate(1883.774 36.225)"/>
    </g>
  </g>
</svg>
