<svg xmlns="http://www.w3.org/2000/svg" width="128.728" height="134.189" viewBox="0 0 128.728 134.189">
  <defs>
    <style>
      .cls-1, .cls-2 {
        fill: none;
        stroke: #000;
        stroke-linecap: round;
        stroke-width: 4px;
      }

      .cls-1 {
        stroke-miterlimit: 10.002;
      }

      .cls-2 {
        stroke-linejoin: round;
      }
    </style>
  </defs>
  <g id="그룹_2182" data-name="그룹 2182" transform="translate(-979.38 -17074.957)">
    <path id="패스_3422" data-name="패스 3422" class="cls-1" d="M92.451,107.789A107.493,107.493,0,0,1,83.026,131.5a162.224,162.224,0,0,1,27.554.49" transform="translate(979.966 17075)"/>
    <path id="패스_3423" data-name="패스 3423" class="cls-2" d="M2,26.763C8.385,10.213,27.25-.5,44.733,2.5s31.695,19.39,32.193,37.122c.175,6.215-1.312,12.739-5.472,17.358S60.073,63.745,54.57,60.852c-6.715-3.464-9.062-11.131-7.888-18.172,1.187-7.121,5.32-13.379,14-18.7,11.722-7.181,25.533-8.789,37.743-4.142,12.384,4.583,23.349,17.562,26.3,33.494,1.792,9.672,3.1,20.71-3.868,37.081-6,14.107-21.057,32.4-35.041,38.689" transform="translate(979.966 17075)"/>
  </g>
</svg>
