<svg xmlns="http://www.w3.org/2000/svg" width="111.072" height="69.57" viewBox="0 0 111.072 69.57">
  <defs>
    <style>
      .cls-1 {
        fill: #eb97d2;
      }

      .cls-2 {
        fill: #222;
      }
    </style>
  </defs>
  <g id="그룹_2191" data-name="그룹 2191" transform="translate(-804.256 -1164.384)">
    <path id="패스_2438" data-name="패스 2438" class="cls-1" d="M43.351,1,7.887,9.1A10.571,10.571,0,0,0,0,19.592V36A10.571,10.571,0,0,0,7.887,46.491l35.464,8.1a39.562,39.562,0,0,0,17.648,0l35.464-8.1A10.571,10.571,0,0,0,104.351,36V19.592A10.571,10.571,0,0,0,96.464,9.1L61,1A39.562,39.562,0,0,0,43.351,1" transform="translate(804.256 1178.906) rotate(-8)"/>
    <g id="그룹_2078" data-name="그룹 2078">
      <path id="패스_2439" data-name="패스 2439" class="cls-2" d="M16.868,41.258a4.733,4.733,0,0,1,1.96.386V44.1a3.775,3.775,0,0,0-1.656-.423c-.939,0-1.445.451-1.445,1.068s.507,1.058,1.445,1.058a3.586,3.586,0,0,0,1.693-.442v2.346a4.776,4.776,0,0,1-2.024.415,3.552,3.552,0,0,1-3.856-3.432c0-1.969,1.62-3.432,3.884-3.432" transform="translate(796.74 1163.127) rotate(-8)"/>
      <path id="패스_2440" data-name="패스 2440" class="cls-2" d="M27.432,41.258a3.443,3.443,0,1,1,0,6.864,3.443,3.443,0,1,1,0-6.864m0,4.509a1.031,1.031,0,1,0-1.03-1.03,1.028,1.028,0,0,0,1.03,1.03" transform="translate(792.446 1163.73) rotate(-8)"/>
      <path id="패스_2441" data-name="패스 2441" class="cls-2" d="M37.3,41.428h2.558L41.184,43.1l1.279-1.675h2.484V48.09H42.206V44.842h-.018L41,46.406l-1.215-1.564h-.018V48.09H37.3Z" transform="translate(787 1164.426) rotate(-8)"/>
      <path id="패스_2442" data-name="패스 2442" class="cls-2" d="M51.49,41.428h2.558L55.373,43.1l1.279-1.675h2.485V48.09H56.395V44.842h-.018l-1.187,1.564-1.215-1.564h-.018V48.09H51.49Z" transform="translate(781.322 1165.225) rotate(-8)"/>
      <path id="패스_2443" data-name="패스 2443" class="cls-2" d="M65.663,45.062V41.427h2.742v3.45c0,.626.2,1.068.837,1.068.607,0,.819-.386.819-1.058v-3.46h2.466v3.6a3.151,3.151,0,0,1-.608,2.089,3.677,3.677,0,0,1-2.843,1.077,3.628,3.628,0,0,1-2.788-1.058,2.991,2.991,0,0,1-.626-2.071" transform="translate(775.65 1166.021) rotate(-8)"/>
      <path id="패스_2444" data-name="패스 2444" class="cls-2" d="M78.524,41.428h2.494l1.96,2.843L83,44.262V41.428h2.466V48.09H82.968l-1.96-2.844-.018.01V48.09H78.524Z" transform="translate(770.504 1166.744) rotate(-8)"/>
      <rect id="사각형_1603" data-name="사각형 1603" class="cls-2" width="2.742" height="6.662" transform="translate(861.7 1195.762) rotate(-8)"/>
      <path id="패스_2445" data-name="패스 2445" class="cls-2" d="M101.119,41.258a4.733,4.733,0,0,1,1.96.386V44.1a3.775,3.775,0,0,0-1.656-.423c-.939,0-1.445.451-1.445,1.068s.507,1.058,1.445,1.058a3.586,3.586,0,0,0,1.693-.442v2.346a4.776,4.776,0,0,1-2.024.415,3.552,3.552,0,0,1-3.856-3.432c0-1.969,1.62-3.432,3.884-3.432" transform="translate(763.025 1167.865) rotate(-8)"/>
      <path id="패스_2446" data-name="패스 2446" class="cls-2" d="M110.152,41.428h2.622l2.54,6.662h-2.963l-.23-.874h-1.527l-.257.874h-2.724Zm1.527,4.113-.294-1.353h-.018l-.294,1.353Z" transform="translate(758.863 1168.381) rotate(-8)"/>
      <path id="패스_2447" data-name="패스 2447" class="cls-2" d="M121,43.691h-1.859V41.428h6.46v2.264h-1.859v4.4H121Z" transform="translate(754.248 1169.029) rotate(-8)"/>
      <rect id="사각형_1604" data-name="사각형 1604" class="cls-2" width="2.742" height="6.662" transform="translate(885.106 1192.473) rotate(-8)"/>
      <path id="패스_2448" data-name="패스 2448" class="cls-2" d="M140.617,41.258A3.443,3.443,0,1,1,136.9,44.69a3.537,3.537,0,0,1,3.717-3.432m0,4.509a1.031,1.031,0,1,0-1.03-1.03,1.028,1.028,0,0,0,1.03,1.03" transform="translate(747.153 1170.096) rotate(-8)"/>
      <path id="패스_2449" data-name="패스 2449" class="cls-2" d="M150.487,41.428h2.494l1.96,2.843.018-.009V41.428h2.466V48.09h-2.494l-1.96-2.844-.018.01V48.09h-2.466Z" transform="translate(741.707 1170.791) rotate(-8)"/>
    </g>
  </g>
</svg>
