<svg xmlns="http://www.w3.org/2000/svg" width="99.204" height="99.204" viewBox="0 0 99.204 99.204">
  <defs>
    <style>
      .cls-1 {
        fill: #a9d16a;
      }

      .cls-2 {
        fill: #222;
      }
    </style>
  </defs>
  <g id="그룹_2193" data-name="그룹 2193" transform="translate(-1132 -998)">
    <path id="패스_2417" data-name="패스 2417" class="cls-1" d="M40.5,0A40.5,40.5,0,1,1,0,40.5,40.5,40.5,0,0,1,40.5,0" transform="matrix(0.966, 0.259, -0.259, 0.966, 1152.964, 998)"/>
    <g id="그룹_2076" data-name="그룹 2076" transform="translate(-0.196 0.193)">
      <path id="패스_2418" data-name="패스 2418" class="cls-2" d="M67.938,124.681h3.187a2.29,2.29,0,0,1,2.065.934,4.971,4.971,0,0,1,.618,2.732,5.359,5.359,0,0,1-.548,2.711,2.1,2.1,0,0,1-1.966.913h-.983v4.775H67.938Zm2.514,5.112a1.027,1.027,0,0,0,.639-.161.77.77,0,0,0,.267-.464,4.5,4.5,0,0,0,.063-.864,2.614,2.614,0,0,0-.168-1.1.679.679,0,0,0-.674-.337h-.267v2.921Z" transform="matrix(0.966, 0.259, -0.259, 0.966, 1128.965, 897.791)"/>
      <path id="패스_2419" data-name="패스 2419" class="cls-2" d="M92.317,135.671a3.757,3.757,0,0,1-.758-2.507V127.42a3.283,3.283,0,0,1,.758-2.352,3.5,3.5,0,0,1,4.438,0,3.282,3.282,0,0,1,.758,2.352v5.744a3.75,3.75,0,0,1-.758,2.514,3.216,3.216,0,0,1-4.438-.007m2.654-1.608a2.186,2.186,0,0,0,.113-.786v-5.9a1.635,1.635,0,0,0-.106-.639.418.418,0,0,0-.428-.246q-.6,0-.6.913v5.885a1.9,1.9,0,0,0,.126.786.466.466,0,0,0,.463.267.427.427,0,0,0,.435-.281" transform="matrix(0.966, 0.259, -0.259, 0.966, 1112.38, 893.652)"/>
      <path id="패스_2420" data-name="패스 2420" class="cls-2" d="M116.47,135.748a3.878,3.878,0,0,1-.73-2.626v-1.18h2.374v1.5q0,.9.576.9a.5.5,0,0,0,.449-.19,1.2,1.2,0,0,0,.126-.639,2.9,2.9,0,0,0-.14-.976,2.133,2.133,0,0,0-.358-.646q-.218-.26-.78-.808l-1.039-1.039a3.587,3.587,0,0,1-1.208-2.612,3.461,3.461,0,0,1,.709-2.352,2.609,2.609,0,0,1,2.071-.808,2.884,2.884,0,0,1,2.345.864,4.2,4.2,0,0,1,.716,2.7h-2.458l-.014-.829a.528.528,0,0,0-.134-.379.49.49,0,0,0-.372-.14.54.54,0,0,0-.421.155.6.6,0,0,0-.14.421,1.752,1.752,0,0,0,.674,1.222l1.4,1.348a8.058,8.058,0,0,1,.815.906,3.558,3.558,0,0,1,.52,1.011,4.351,4.351,0,0,1,.2,1.383,4.654,4.654,0,0,1-.653,2.7,2.459,2.459,0,0,1-2.156.92,3.046,3.046,0,0,1-2.373-.814" transform="matrix(0.966, 0.259, -0.259, 0.966, 1095.479, 889.123)"/>
      <rect id="사각형_1597" data-name="사각형 1597" class="cls-2" width="2.331" height="12.064" transform="matrix(0.966, 0.259, -0.259, 0.966, 1181.458, 1040.936)"/>
      <path id="패스_2421" data-name="패스 2421" class="cls-2" d="M151.564,136.745V127h-1.433v-2.317h5.28V127H153.98v9.747Z" transform="matrix(0.966, 0.259, -0.259, 0.966, 1071.52, 882.398)"/>
      <rect id="사각형_1598" data-name="사각형 1598" class="cls-2" width="2.331" height="12.064" transform="matrix(0.966, 0.259, -0.259, 0.966, 1189.909, 1043.199)"/>
      <path id="패스_2422" data-name="패스 2422" class="cls-2" d="M183.32,136.708l-1.489-12.078h2.3l.885,8.216.786-8.216h2.3l-1.489,12.078Z" transform="matrix(0.966, 0.259, -0.259, 0.966, 1049.355, 876.498)"/>
      <path id="패스_2423" data-name="패스 2423" class="cls-2" d="M207.029,136.745V124.681h4.831v2.331h-2.374v2.345h2.275v2.275h-2.275V134.4h2.528v2.345Z" transform="matrix(0.966, 0.259, -0.259, 0.966, 1031.755, 871.744)"/>
    </g>
  </g>
</svg>
