<svg xmlns="http://www.w3.org/2000/svg" width="411.245" height="309.544" viewBox="0 0 411.245 309.544">
  <defs>
    <style>
      .cls-1 {
        fill: #104d88;
      }

      .cls-2 {
        fill: #f4fcea;
      }

      .cls-3 {
        fill: #e8434e;
      }

      .cls-4 {
        fill: none;
      }
    </style>
  </defs>
  <g id="그룹_2192" data-name="그룹 2192" transform="translate(-754.235 -834.98)">
    <path id="패스_2392" data-name="패스 2392" class="cls-1" d="M410.2,66.426a7.483,7.483,0,0,0-6.054-3.688l-.429-.026c-.5-.032-.975-.058-1.446-.058h-1.079a7.5,7.5,0,0,0-6.774-9.645l-.43-.026c-.5-.032-.974-.058-1.445-.058l-10.826,0c-3.841,0-7.681-.006-11.617-.035a9.768,9.768,0,0,0-5.917,1.843,7.506,7.506,0,0,0-2.472-1.3l-.018-.006a8.221,8.221,0,0,0-2.761-.493l-2.827,0q-4.134-.006-8.269-.008-5.9,0-11.8.037a9.479,9.479,0,0,0-7.877,4.769c-1.223,2.171-2.453,4.386-3.683,6.619a19.444,19.444,0,0,0-3.056-1.647c-2.45-5.9-7.7-10.045-14.935-11.243a30.724,30.724,0,0,0-5-.417,30.044,30.044,0,0,0-18.142,6.248q-.332.245-.659.5a17.928,17.928,0,0,0-9.221-5.8,26.649,26.649,0,0,0-7.139-.972,29.257,29.257,0,0,0-7.992,1.148,34.258,34.258,0,0,0-5.173,1.932,7.527,7.527,0,0,0-4.043-1.18s-8.334.01-11.573.011c6.453-5.451,9.654-12.921,9.3-21.806-.311-7.712-5.22-14.625-12.118-18.395A24.469,24.469,0,0,0,213.386,0a23.041,23.041,0,0,0-5.714.717,24.1,24.1,0,0,0-9.914,5.06,7.549,7.549,0,0,0-2.366,7.706,7.461,7.461,0,0,0,.993,2.171,15.1,15.1,0,0,1-2.13.168H194a71.806,71.806,0,0,1-16.91-2.469c-5.3-1.312-10.636-2.679-15.846-4.012-6.2-1.587-12.609-3.229-18.95-4.778A130.487,130.487,0,0,0,111.055.568,107.052,107.052,0,0,0,92.36,2.2c-14.9,2.651-27.1,7.7-37.279,15.434-13.7,10.407-21.453,23.616-23.043,39.258-1.187,11.676,2.589,22.329,10.332,30.07a32.36,32.36,0,0,0-8.433-1.111c-15.14,0-28.845,10.508-32.585,24.985-3.784,14.643.41,27.887,12.128,38.3,1.04.924,2.109,1.789,3.2,2.608a45.28,45.28,0,0,0,6.528,7.121c9.042,8.032,20.056,12.1,32.736,12.1h0a66.351,66.351,0,0,0,9.281-.68,60.239,60.239,0,0,0,5.942-1.16,49.751,49.751,0,0,0-9.808,31.768c.337,9.951,4.047,18.349,10.832,24.7a33.348,33.348,0,0,0-9.078-1.268,33.941,33.941,0,0,0-25.309,11.522,33.414,33.414,0,0,0-8.321,26.468c1.432,11.968,6.929,21.33,16.342,27.965,4.3,6.263,10.557,11.207,18.763,14.764a53.362,53.362,0,0,0,21.323,4.505,61.5,61.5,0,0,0,26.142-6.239c10.439-4.9,19.708-12.606,29.169-24.255,2.859-3.521,5.608-7.233,8.357-11.3,2.056,5.616,5.711,9.637,10.578,11.742a18.876,18.876,0,0,0,14.793,11.161,20.846,20.846,0,0,0,3.026.223,22.645,22.645,0,0,0,13.385-4.638,40.143,40.143,0,0,0,4.766-4.047c3.163,5.6,8.912,8.881,16.125,8.88a24.944,24.944,0,0,0,3.2-.211,26.957,26.957,0,0,0,4.2-.892,7.506,7.506,0,0,0,6.03,1.181c1.319-.306,2.626-.626,3.943-.948,2.8-.684,5.436-1.331,8.061-1.805a30.045,30.045,0,0,1,5.4-.453,59.114,59.114,0,0,1,8.857.785,10.472,10.472,0,0,0,1.583.123,8.876,8.876,0,0,0,8.312-5.66c.56-1.318,1.161-2.677,1.79-4.07.2.1.394.215.6.308.182.081.369.152.553.229a17.445,17.445,0,0,0,9.175,9.5,23.884,23.884,0,0,0,9.812,1.994,31.861,31.861,0,0,0,3.341-.182,36.787,36.787,0,0,0,18.64-7.755c.2-.149.395-.3.6-.455a24.258,24.258,0,0,0,7.121,5.782,26.842,26.842,0,0,0,13.309,3.232,44.178,44.178,0,0,0,5.49-.368c20.412-2.542,36.047-20.443,35.6-40.752a88.9,88.9,0,0,0-1.577-13.189c-.211-1.23-.422-2.46-.614-3.689-.124-.793-.259-1.584-.394-2.375-.574-3.368-1.069-6.276-.64-8.9.6-3.654,1.675-4.168,3.253-4.535a8.3,8.3,0,0,0,2.541-1.079l.177-.105a7.52,7.52,0,0,0,.56-12.713c-.486-.337-.941-.677-1.423-1.037a28.14,28.14,0,0,0-4.313-2.8c-.259-.129-.523-.244-.785-.364a7.469,7.469,0,0,0-3.208-5.528c-.486-.337-.941-.677-1.423-1.037a28.13,28.13,0,0,0-4.312-2.8,25.082,25.082,0,0,0-10.345-2.627,55.887,55.887,0,0,0,8.543-5.461c7.827-6.036,14.129-14.118,19.269-24.709,3.011-6.2,5.731-12.561,8.361-18.709l.108-.254q1-2.336,2.005-4.669,4.013-9.294,7.991-18.6l.052-.12c3.865-9.021,7.861-18.349,11.846-27.485,1.377-3.159,2.937-6.271,4.593-9.575.785-1.566,1.576-3.145,2.357-4.75a7.5,7.5,0,0,0-.282-7.113M113.726,42.373q-2.349,3.8-4.691,7.61s-1.884,3.063-3.3,5.354a17.418,17.418,0,0,0-1.914-.948c-.292-.62-.606-1.235-.952-1.844a18.737,18.737,0,0,0-4.114-5,28.4,28.4,0,0,1,6.805-4.6A47.382,47.382,0,0,1,115.725,39.3c-.667.981-1.332,1.994-2,3.072M179.7,138.331a7.492,7.492,0,0,0,9.42,5.2l.5-.15.023-.008a7.494,7.494,0,0,0-.4,3.774l-.766-.195c-4.63-1.177-9.357-2.372-14.121-3.517a63.093,63.093,0,0,0,5.351-5.107m45.477,14.094a7.461,7.461,0,0,0,.642,1.248c-.971.073-1.962.11-2.964.11-1.056,0-2.133-.041-3.2-.123a90.737,90.737,0,0,1-14.135-2.435,41.5,41.5,0,0,1,10.114-1.307,36.738,36.738,0,0,1,6.882.651,10.038,10.038,0,0,0,1.908.186c.1,0,.206-.012.31-.016a7.422,7.422,0,0,0,.446,1.684M161.068,52.462a18.234,18.234,0,0,1,2.881-3.244l1.929.762c1,.4,2.009.794,3.018,1.193a40.9,40.9,0,0,0-7.827,1.29m32.276,134.843q2.423,1.007,4.838,1.986a33.4,33.4,0,0,0-8.791,2.63,19.443,19.443,0,0,1,3.954-4.616m10.53-99.6a34.3,34.3,0,0,0-.694-8.721C201.6,71.549,197.323,66,191.323,63.1a22.119,22.119,0,0,0-3.252-4.836,69.543,69.543,0,0,0,20.821,3.578c1.015,0,2.039-.029,3.044-.088,1.344-.077,2.775-.191,4.265-.361-4.309,9.475-8.388,18.186-12.327,26.312M118.65,131.807a21.882,21.882,0,0,0,7.147,7.827,109.347,109.347,0,0,0-11.306,2.182c-1.539.383-3.039.8-4.514,1.239,3.23-3.766,6.114-7.582,8.673-11.248m9.7,53.626a29.031,29.031,0,0,1,6.563-4.384,47.1,47.1,0,0,1,10.182-3.676c-.551.817-1.095,1.647-1.625,2.513-2.649,4.323-5.307,8.642-7.99,13l-.269.438q-.44-.229-.893-.435a20.356,20.356,0,0,0-5.969-7.46M319.69,202.409c-.321.554-.648,1.108-.971,1.662a18.889,18.889,0,0,0-5.178-3.269c-2.436-6-7.78-10.1-15.291-11.318a28.788,28.788,0,0,0-12.666.766,34.249,34.249,0,0,0-5.355,2.033,7.519,7.519,0,0,0-3.6-1.174l-.593-.04c-.5-.036-.985-.068-1.515-.068l-7.409,0a25.542,25.542,0,0,0,5.775-7.275c4.55-8.5,4.715-16.856.478-24.151a23.269,23.269,0,0,0-9.238-8.818l-.13-.241a9.371,9.371,0,0,0,6.41-5.478l1.709-3.717c.174.074.344.153.521.222a17.249,17.249,0,0,0,6.035,7.748,28,28,0,0,0,.584,10.111,28.485,28.485,0,0,0,13.194,18.352c3.986,6.711,10.5,11.388,19.265,13.694a49.087,49.087,0,0,0,12.471,1.658c1.468,0,2.925-.078,4.372-.218a29.5,29.5,0,0,0-8.869,9.521" transform="translate(754.235 834.98)"/>
    <g id="그룹_2083" data-name="그룹 2083">
      <path id="패스_2393" data-name="패스 2393" class="cls-2" d="M370.182,244.246c-.539-.374-1.043-.75-1.53-1.114a24.778,24.778,0,0,0-3.744-2.449,21.42,21.42,0,0,0-9.657-2.258,25.328,25.328,0,0,0-21.419,12.685c-6.087,10.52-12.658,20.995-18.867,30.822a55.147,55.147,0,0,1-7.68,9.811,29.981,29.981,0,0,1,1.683-4.006c1.452-2.8,3.02-5.637,4.537-8.377,1.35-2.438,2.745-4.958,4.073-7.483a37.185,37.185,0,0,0,4.5-14.512c.73-9.369-4.335-15.856-13.547-17.354a25.032,25.032,0,0,0-11.025.669,30.141,30.141,0,0,0-7.084,3.047l-.035-.068a3.759,3.759,0,0,0-3.094-1.981c-.242-.015-.452-.03-.641-.044-.481-.035-.863-.058-1.244-.058l-9.982,0c-3.509,0-7.019-.005-10.591-.032a5.647,5.647,0,0,0-5.417,3.519l-1.427,3.11c-2.582,5.629-5.251,11.449-7.992,17.1-4.335,8.936-8.762,17.692-12.133,24.321a8.819,8.819,0,0,1-4.312,4.438,29.77,29.77,0,0,1,1.941-5.779c4.5-9.693,9.145-19.519,13.641-29.023q2.523-5.333,5.042-10.669c.168-.357.321-.723.485-1.121l.2-.489a3.759,3.759,0,0,0-2.722-5.152l-.19-.044a5.168,5.168,0,0,0-1.257-.169s-7.26-.01-9.378-.01c-4.72,0-8.351.015-11.771.048a5.588,5.588,0,0,0-4.757,3.367c-.02.047-.041.094-.061.141a12.474,12.474,0,0,0-1.455-1.76,13.974,13.974,0,0,0-10.17-3.838,22.044,22.044,0,0,0-2.654.167A31.172,31.172,0,0,0,198.4,243.93c-7.425,4.327-13.792,10.348-19.929,18.861a3.756,3.756,0,0,0-2.769-1.223h-5.046c1.222-2.642,2.4-5.173,3.608-7.719q1.37-2.881,2.731-5.764c2.933-6.206,5.967-12.624,9.107-18.828a23.441,23.441,0,0,1,7.52-8.9c.223-.153.341-.2.346-.212a1.777,1.777,0,0,1,.431.137c9.942,4.147,19.707,8.1,29.864,10.815a60.542,60.542,0,0,0,15.62,2.159A50.718,50.718,0,0,0,255.4,230.84c7.33-2.351,12.346-6.21,15.334-11.8,3.959-7.4,4.141-14.294.542-20.49a20.625,20.625,0,0,0-30.12-5.6,5.073,5.073,0,0,0-1.012,1.094l-.038.055a3.759,3.759,0,0,0,2.432,6.064,3.033,3.033,0,0,1,.972.268,2.955,2.955,0,0,1-.38.883,3.926,3.926,0,0,1-.774,1.039l-.3.183a10.526,10.526,0,0,1-3.12,1.5,42.078,42.078,0,0,1-5.186.314c-1.15,0-2.323-.045-3.487-.134-6.919-.525-13.582-2.206-20.634-3.987q-1.393-.351-2.784-.7-4.206-1.049-8.407-2.125c-7.942-2.02-16.152-4.109-24.333-5.851a108.235,108.235,0,0,0-22.507-2.408,104.7,104.7,0,0,0-25.3,3.125c-13.628,3.4-24.541,9.009-33.362,17.155-11.718,10.821-17.41,23.654-16.918,38.145.4,11.729,6.03,21.049,16.289,26.952a34.988,34.988,0,0,0,17.414,4.69,34.629,34.629,0,0,0,17.953-4.97l-.3.68a2.3,2.3,0,0,1-.239.444,70.232,70.232,0,0,1-12.692,12.1c-6.317,4.49-12.552,6.738-19.06,6.871l-.349,0a6.033,6.033,0,0,1-3.586-.853,1.466,1.466,0,0,1-.764-1.64,3.407,3.407,0,0,1,.715-.205,5.726,5.726,0,0,0,.971-.289l.134-.049a3.76,3.76,0,0,0,2.263-4.961l-.071-.191a7.127,7.127,0,0,0-.464-1.05c-2.471-4.449-6.557-7.507-12.147-9.091A29.6,29.6,0,0,0,74,274.9a30.175,30.175,0,0,0-22.5,10.258,29.7,29.7,0,0,0-7.4,23.525c1.672,13.974,9.457,24.068,23.14,30a49.625,49.625,0,0,0,19.828,4.195,57.775,57.775,0,0,0,24.544-5.882c9.908-4.65,18.757-12.029,27.848-23.222,6.573-8.093,12.585-17.266,19.444-29.676.943.011,1.885.014,2.828.014l3.339,0c.583,0,1.165,0,1.747.008a72.07,72.07,0,0,0-3.776,14.388,30.718,30.718,0,0,0,.514,13.461c2.632,8.763,8.575,11.4,13.1,12.063a17.121,17.121,0,0,0,2.479.183,18.981,18.981,0,0,0,11.184-3.927,39.876,39.876,0,0,0,8.357-8.3c1.326,7.7,6.853,12.42,14.734,12.42a21.158,21.158,0,0,0,2.713-.18,23.037,23.037,0,0,0,5.712-1.5,3.762,3.762,0,0,0,4.149,1.859c1.31-.3,2.608-.622,3.9-.938,2.854-.7,5.551-1.358,8.286-1.853a33.8,33.8,0,0,1,6.071-.513,62.7,62.7,0,0,1,9.421.828,6.743,6.743,0,0,0,1.018.08,5.079,5.079,0,0,0,4.851-3.37c1.052-2.475,2.2-5.042,3.526-7.851q1.959-4.165,3.9-8.338,1.629-3.488,3.29-7.033a30.964,30.964,0,0,0-2,15.276c.951,7.2,5.091,10.473,8.4,11.95a20.158,20.158,0,0,0,8.278,1.668,28.213,28.213,0,0,0,2.945-.162,33.144,33.144,0,0,0,16.767-7.014c1.266-.959,2.519-1.956,3.749-2.953a18.776,18.776,0,0,0,8.052,7.986,23.192,23.192,0,0,0,11.494,2.765,40.542,40.542,0,0,0,5.026-.34c18.522-2.307,32.71-18.532,32.3-36.939a85.821,85.821,0,0,0-1.52-12.618c-.216-1.255-.431-2.508-.626-3.762-.122-.776-.253-1.55-.386-2.325-.6-3.546-1.174-6.9-.644-10.139.745-4.554,2.515-6.753,6.109-7.59a4.531,4.531,0,0,0,1.416-.613c.07-.044.162-.1.295-.176a3.759,3.759,0,0,0,.28-6.357M157.568,228.668q-3.976,6.487-7.967,12.967-3.033,4.93-6.062,9.86a19.735,19.735,0,0,0-.677-7.4c-2.051-7.239-8.226-12.1-15.366-12.1a16.256,16.256,0,0,0-1.748.1,13.872,13.872,0,0,0-7.367,3.151q.122-.818.336-1.684c2.067-8.338,7.347-14.66,15.693-18.79a48.654,48.654,0,0,1,21.714-5.217,55,55,0,0,1,17.025,2.86,31.886,31.886,0,0,0-4.454,3.114,52.386,52.386,0,0,0-11.127,13.142m44.1,56.946c.472-1.432,1.027-2.838,1.569-4.147a71.061,71.061,0,0,1,6.95-13.217,86.725,86.725,0,0,1-8.519,17.364m76.909-6.692c-1.4,2.616-2.82,5.284-4.208,7.987,1.369-2.852,2.755-5.694,4.157-8.5a36.4,36.4,0,0,1,2.692-4.452c-.878,1.669-1.77,3.339-2.641,4.97m53.756,9.453c-1,3.341-2.93,5.306-5.887,6.008a2.71,2.71,0,0,1-.352.058l.255-.383c2.2-3.333,4.457-6.737,6.723-10.135a24.634,24.634,0,0,1-.739,4.452" transform="translate(743.347 788.162)"/>
      <path id="패스_2394" data-name="패스 2394" class="cls-2" d="M457.671,76.682a3.76,3.76,0,0,0-3.044-1.844l-.446-.027c-.417-.027-.81-.05-1.2-.05l-10.827,0c-3.85,0-7.7-.006-11.616-.035A5.818,5.818,0,0,0,424.9,78.31c-3.469,7.346-7.785,16.488-12.052,25.177-2.165,4.408-4.253,8.5-6.328,12.4,3.776-8.085,7.675-16.26,11.45-24.176q2.321-4.866,4.637-9.733c.19-.4.367-.8.548-1.221l.229-.523a3.758,3.758,0,0,0-2.367-5.127l-.13-.044a4.513,4.513,0,0,0-1.529-.283l-2.827,0q-4.131-.007-8.263-.008-5.886,0-11.773.036a5.689,5.689,0,0,0-4.628,2.854c-6.717,11.936-13.7,24.838-19.281,38.3a34.977,34.977,0,0,1-5.956,9.343,6.6,6.6,0,0,1-2.464,1.959,14.123,14.123,0,0,1,1.166-3.908c1.8-3.614,3.8-7.248,5.73-10.763.947-1.723,1.894-3.446,2.825-5.177a46.1,46.1,0,0,0,5.49-15.147c1.528-9.983-3.6-17.446-13.074-19.013a26.98,26.98,0,0,0-4.384-.366,26.362,26.362,0,0,0-15.9,5.51,34.406,34.406,0,0,0-3.819,3.295,13.336,13.336,0,0,0-9.3-7.995,22.885,22.885,0,0,0-6.131-.835,25.515,25.515,0,0,0-6.964,1,30.118,30.118,0,0,0-6.9,2.921c-.021-.041-.042-.08-.065-.12a3.759,3.759,0,0,0-3.271-1.906s-10.822.012-12.6.012c-3.878,0-6.86-.014-9.67-.047h-.126a6.082,6.082,0,0,0-6.011,3.89c-13.6,30.031-24.884,52.488-36.6,72.817a7.422,7.422,0,0,0-.559,1.267c-.037.1-.077.214-.126.339a3.759,3.759,0,0,0,4.6,4.975l.514-.155c.366-.109.656-.2.943-.3a48.409,48.409,0,0,1,16.413-3.048,40.444,40.444,0,0,1,7.588.718,6.344,6.344,0,0,0,1.2.119,5.1,5.1,0,0,0,4.72-3.092l.4-.786c-.13.265-.256.544-.4.858l-.247.547a3.76,3.76,0,0,0,4.431,5.193l.338-.092a7.727,7.727,0,0,0,.745-.228,50.037,50.037,0,0,1,17.584-3.238,51.539,51.539,0,0,1,8.569.731,7.551,7.551,0,0,0,1.264.114,5.444,5.444,0,0,0,5.157-3.534c2.81-6.112,5.668-12.327,8.563-18.577A29.2,29.2,0,0,0,325.7,144.2c.916,6.529,4.629,10.96,10.457,12.479a25.763,25.763,0,0,0,6.4.8c.638,0,1.279-.023,1.905-.07a22.725,22.725,0,0,0,2.826-.39,22.906,22.906,0,0,0-3.942,19.585c2.4,9.978,9.324,16.742,20.031,19.56a45.326,45.326,0,0,0,11.515,1.534c9.667,0,18.892-3.334,27.417-9.909,7.354-5.672,13.3-13.318,18.183-23.374,2.968-6.115,5.672-12.435,8.287-18.546q1.057-2.469,2.119-4.935,4.011-9.289,7.987-18.593c3.884-9.065,7.9-18.439,11.907-27.627,1.419-3.253,3-6.412,4.678-9.757.778-1.553,1.563-3.12,2.339-4.712a3.757,3.757,0,0,0-.141-3.557M287.42,137.843,280.444,151.1c6.157-12.042,11.354-22.186,16.792-32.621,1.887-3.623,3.7-7.011,5.708-10.15q-7.748,14.765-15.523,29.516m78.922,9.467a21.657,21.657,0,0,0-3.456.282,53.755,53.755,0,0,0,4.282-4.926,17.488,17.488,0,0,0,1.787,4.814,20.007,20.007,0,0,0-2.613-.17m16.176,11.275a8.38,8.38,0,0,1-3.941,1.308,4.126,4.126,0,0,1-1.166-.168c-.661-.192-.693-.394-.756-.655a2.033,2.033,0,0,1,.6-.6c.191-.145.4-.268.624-.41.18-.114.369-.232.568-.362a3.755,3.755,0,0,0,1.6-2.248,16.94,16.94,0,0,0,3,.263,18.349,18.349,0,0,0,4.132-.48,25.2,25.2,0,0,1-4.665,3.35" transform="translate(693.797 816.904)"/>
      <path id="패스_2395" data-name="패스 2395" class="cls-2" d="M56.217,158.072c11.8-1.674,22.529-6.937,32.806-16.088,10.648-9.483,18.405-20.907,23.972-29.8,8.782-14.027,16.976-29.822,25.787-49.708l.536-1.211c2.853-6.452,5.548-12.547,9.284-18.148,2.193-3.289,4.1-5.291,6.351-6.635q1.914.755,3.826,1.513c5.682,2.25,11.558,4.576,17.439,6.673,6.427,2.291,14.983,4.921,24.192,4.921.944,0,1.895-.028,2.826-.082,5.986-.347,13.761-1.344,20.814-6A22.607,22.607,0,0,0,234.6,22.791C234.215,13.148,225.069,5,214.632,5a19.249,19.249,0,0,0-4.781.6,20.408,20.408,0,0,0-8.4,4.276,3.759,3.759,0,0,0,1.8,6.563,3.175,3.175,0,0,1,1.219.42,2.746,2.746,0,0,1-.495.915,6.134,6.134,0,0,1-2.435,2.016,18.659,18.659,0,0,1-6.026,1.033h-.266a75.259,75.259,0,0,1-17.813-2.58c-5.278-1.307-10.64-2.68-15.827-4.008-6.2-1.588-12.62-3.231-18.957-4.779A126.772,126.772,0,0,0,112.3,5.568,103.264,103.264,0,0,0,94.264,7.138C79.962,9.682,68.3,14.5,58.6,21.864c-12.837,9.751-20.1,22.08-21.577,36.644A32.844,32.844,0,0,0,54.39,91.567,33.425,33.425,0,0,0,70.357,95.61a34.651,34.651,0,0,0,19.294-5.836,87.484,87.484,0,0,1-9.774,10.2c-6.987,6.169-13.636,9.406-20.924,10.187a27.037,27.037,0,0,1-2.8.191,6.216,6.216,0,0,1-3.537-.857,1.464,1.464,0,0,1-.814-1.677,2.794,2.794,0,0,1,.655-.167,4.5,4.5,0,0,0,1.451-.5l.111-.056a3.76,3.76,0,0,0,1.823-5.014C53.678,97.5,50.033,94.348,44.7,92.468a28.552,28.552,0,0,0-9.515-1.621A30.15,30.15,0,0,0,6.238,113.012c-3.408,13.189.391,25.135,10.986,34.548,8.333,7.4,18.507,11.155,30.239,11.155a62.644,62.644,0,0,0,8.754-.643M88.474,48.286a14.482,14.482,0,0,0-8.126,2.532,9.725,9.725,0,0,0-1.013.806,19.818,19.818,0,0,1,.819-3.481c2.451-7.551,7.589-13.291,15.27-17.061A48.87,48.87,0,0,1,117.1,25.91a55.01,55.01,0,0,1,17.015,2.853,35.526,35.526,0,0,0-5.848,4.314A55.771,55.771,0,0,0,118.171,45.59q-2.531,4.092-5.05,8.193c-3.187,5.181-6.441,10.467-9.738,15.734a20.564,20.564,0,0,0-2.534-13.875,14.153,14.153,0,0,0-12.375-7.355" transform="translate(752.988 833.74)"/>
      <path id="패스_2396" data-name="패스 2396" class="cls-2" d="M228.924,88.128c-2.015-9.508-8.938-15.185-18.519-15.185-.2,0-.4,0-.606.008a40.3,40.3,0,0,0-22.61,7.991c-12.372,8.837-21.353,21.277-26.7,36.974-2.754,8.092-3.386,15.61-1.93,22.983,2.059,10.431,8.753,16.37,19.358,17.176.623.047,1.255.071,1.878.071a27,27,0,0,0,11.558-2.721c6.481-3.059,12.379-7.872,18.029-14.714a2.229,2.229,0,0,1,.169-.186l.038,0a21.306,21.306,0,0,0,12.629-5.948c5.032-4.725,7.806-10.6,9.855-15.722.738-1.846,1.378-3.716,2-5.523.274-.8.548-1.6.831-2.4a3.759,3.759,0,0,0-1.716-4.539l-.3-.168a3.76,3.76,0,0,0-4.981,1.217l-1.1,1.692c.258-.76.506-1.526.738-2.3,2.138-7.121,2.578-13.063,1.383-18.7M207.793,108.94a19.607,19.607,0,0,0-9.786,5.31c.022-.046.044-.091.066-.136a67.629,67.629,0,0,1,9.914-15.383A15.8,15.8,0,0,1,211,96.066q.091-.061.169-.106c.017.092.032.2.042.321.022.247.032.494.044.743l.011.2a33.473,33.473,0,0,1-3.474,11.715" transform="translate(715.084 816.883)"/>
    </g>
    <g id="그룹_2082" data-name="그룹 2082">
      <path id="패스_2397" data-name="패스 2397" class="cls-3" d="M170.579,280.583c2.011-4.389,4.078-8.751,6.118-13.127a6.767,6.767,0,0,0,.244-.887H166.009c2.107-4.529,4.068-8.828,6.1-13.094,3.922-8.243,7.757-16.531,11.879-24.674a27.121,27.121,0,0,1,8.74-10.3,4.079,4.079,0,0,1,4.358-.45c9.624,4.015,19.286,7.949,29.388,10.654,9.691,2.6,19.388,2.888,29.017-.2,5.526-1.773,10.347-4.717,13.168-9.991,2.91-5.44,3.888-11.178.606-16.829-4.893-8.424-16.88-10.567-24.544-4.531a3.335,3.335,0,0,0-.432.533c3.969.544,5.334,3.4,3.313,6.8a6.7,6.7,0,0,1-2.063,2.337,13.469,13.469,0,0,1-4.9,2.2,47.54,47.54,0,0,1-9.423.2c-8.2-.623-16.1-2.808-24.043-4.788-10.858-2.707-21.675-5.616-32.615-7.947a101.3,101.3,0,0,0-46.119.688c-11.831,2.95-22.678,7.918-31.721,16.269-10.267,9.481-16.194,21.037-15.712,35.255.356,10.5,5.336,18.6,14.408,23.821a31.113,31.113,0,0,0,42.475-11.325c2.723-4.587,4.114-9.471,2.6-14.825-1.745-6.159-7.078-9.951-13.088-9.3a10.31,10.31,0,0,0-5.71,2.584c2.655.811,3.484,1.638,3.511,3.317a3.8,3.8,0,0,1-2.666,3.695c-2.587.91-4.82-.2-5.906-3.029a15.943,15.943,0,0,1-.317-9.742c2.457-9.913,8.753-16.84,17.674-21.255,15.909-7.871,32-7.03,48.016-.12a10.069,10.069,0,0,1,1.546,1.113c-.958.429-1.58.77-2.24.994a27.822,27.822,0,0,0-8.962,5.027,48.949,48.949,0,0,0-10.329,12.219c-6.7,10.927-13.442,21.824-20.111,32.767-.883,1.448-1.839,2.357-3.626,1.986-1.033-.214-1.519.324-1.909,1.244-1.4,3.3-2.872,6.568-4.335,9.84a5.63,5.63,0,0,1-.806,1.342,74.232,74.232,0,0,1-13.378,12.732c-6.34,4.507-13.262,7.4-21.162,7.566a10,10,0,0,1-6.164-1.526,5.188,5.188,0,0,1-2.323-5.348c.319-2.051,1.829-2.9,3.7-3.269a5.232,5.232,0,0,0,.6-.2,7.68,7.68,0,0,0-.335-.82c-2.184-3.932-5.7-6.114-9.885-7.3-17.844-5.055-35.426,10.051-33.208,28.59,1.57,13.117,9.1,21.882,20.9,27,13.929,6.038,27.79,4.69,41.279-1.641,10.763-5.051,19.126-13.076,26.527-22.189a198.3,198.3,0,0,0,19.491-29.884,1.977,1.977,0,0,1,2.022-1.195c3.207.059,6.415,0,9.622.036a1.544,1.544,0,0,0,1.656-1.014" transform="translate(742.106 786.922)"/>
      <path id="패스_2398" data-name="패스 2398" class="cls-3" d="M377.476,270.638c-6.056,10.466-12.482,20.722-18.943,30.947a55.157,55.157,0,0,1-10.223,12.342c-1.111.968-2.375,2.366-4.031,1.356-1.739-1.059-1.453-2.981-.98-4.563a40.769,40.769,0,0,1,2.72-7.067c2.768-5.348,5.817-10.551,8.621-15.882a33.569,33.569,0,0,0,4.083-13.053c.572-7.343-3.155-12.173-10.4-13.352a21.3,21.3,0,0,0-9.384.572c-6.8,1.951-11.85,6.256-15.917,11.859-.58.8-1.111,1.443-2.378.9l6.822-11.624c-.745-.044-1.205-.095-1.665-.095-6.845-.005-13.691.023-20.536-.03a1.918,1.918,0,0,0-2.035,1.329c-3.114,6.776-6.2,13.569-9.454,20.277-3.965,8.172-8.047,16.288-12.165,24.384a12.122,12.122,0,0,1-7.373,6.615c-2.94.86-4.793-.674-4.19-3.638a34.556,34.556,0,0,1,2.432-7.6c6.157-13.272,12.45-26.481,18.693-39.713.213-.453.393-.921.626-1.473a4.737,4.737,0,0,0-.711-.139c-7.037-.007-14.074-.029-21.11.038a1.974,1.974,0,0,0-1.341,1.095c-1.228,2.854-2.341,5.758-3.511,8.638a12.494,12.494,0,0,1-.675,1.252l-.481-.1q0-.8,0-1.6c.02-8.036-4.705-12.209-12.668-11.235a27.636,27.636,0,0,0-10.618,3.745c-8.194,4.775-14.455,11.562-19.8,19.257-6.877,9.9-11.888,20.616-13.728,32.633a26.573,26.573,0,0,0,.4,11.81c1.521,5.063,4.561,8.618,10.044,9.425,4.053.6,7.665-.726,10.914-3.072,5.523-3.99,9.268-9.458,12.555-15.291.531-.942,1.026-1.9,1.538-2.857a2.315,2.315,0,0,1,.141,1.129,85.612,85.612,0,0,0-.14,9.854c.714,7.54,5.913,11.4,13.427,10.425a21.662,21.662,0,0,0,11.057-5.08c.885-.724,1.736-1.49,2.6-2.237l.156.162-4.319,7.575c4.18-.97,8.239-2.082,12.366-2.828,5.567-1.007,11.166-.545,16.725.3a1.458,1.458,0,0,0,1.846-1.043c1.141-2.684,2.343-5.342,3.585-7.981,5.128-10.9,10.127-21.859,15.5-32.633,1.9-3.809,4.642-7.223,7.209-10.66a8.926,8.926,0,0,1,3.557-2.534c1.732-.755,3.053.4,2.878,2.281a5.532,5.532,0,0,1-.377,1.672c-.871,2.014-1.718,4.046-2.725,5.994-3.6,6.96-7.466,13.792-10.828,20.864a28.366,28.366,0,0,0-2.9,16.028c.534,4.041,2.321,7.275,6.2,9.01a17.842,17.842,0,0,0,9.294,1.2,29.724,29.724,0,0,0,14.893-6.273c2.7-2.04,5.281-4.227,8.03-6.441.538,5.246,3.445,8.747,7.856,11.18,4.492,2.478,9.3,2.6,14.239,1.985,16.6-2.067,29.379-16.418,29.008-33.124-.118-5.308-1.277-10.6-2.1-15.882-.708-4.53-1.784-9.012-1.025-13.651.873-5.34,3.318-9.33,8.966-10.645a4.61,4.61,0,0,0,.7-.395,43.5,43.5,0,0,0-4.814-3.29c-9.186-4.589-20.762-.35-26.142,8.948M256.339,278.87a37.574,37.574,0,0,1-1.407,5.974,90.863,90.863,0,0,1-11.752,23.474,19.84,19.84,0,0,1-2.17,2.468c-.737.741-1.763,1.4-2.668.72-.642-.483-.831-1.578-1.194-2.413a3.794,3.794,0,0,1-.01-.974,37.117,37.117,0,0,1,3.016-10.445,68.339,68.339,0,0,1,9.9-17.349,18.246,18.246,0,0,1,3.308-3.13,2.835,2.835,0,0,1,2.338-.44c.448.188.75,1.425.637,2.115M376.324,307.1c-1.292,4.295-4.042,7.5-8.618,8.584a8,8,0,0,1-3.793-.1,2.648,2.648,0,0,1-1.435-4.252c3.9-5.9,7.8-11.8,11.753-17.661.344-.51,1.372-1.175,1.6-1.027a2.912,2.912,0,0,1,1.258,1.813,38.406,38.406,0,0,1,.057,4.58l.384.04c-.378,2.683-.435,5.461-1.206,8.026" transform="translate(702.957 770.518)"/>
      <path id="패스_2399" data-name="패스 2399" class="cls-3" d="M454.219,79.76c-7.467,0-14.935.025-22.4-.032a2.129,2.129,0,0,0-2.272,1.428c-3.981,8.43-7.968,16.86-12.077,25.228-2.78,5.66-5.667,11.273-8.706,16.8a16.951,16.951,0,0,1-3.959,4.645,4.021,4.021,0,0,1-3.311.4c-1.2-.4-1.115-1.85-.772-2.9a77.419,77.419,0,0,1,3.146-8.739c5.453-11.7,11.049-23.331,16.591-34.988.253-.535.481-1.08.735-1.654a2.989,2.989,0,0,0-.593-.171c-7.611-.01-15.222-.032-22.832.023a1.986,1.986,0,0,0-1.377.939c-6.944,12.339-13.658,24.8-19.085,37.9a38.679,38.679,0,0,1-6.574,10.35,9.162,9.162,0,0,1-5.766,3.487c-2.328.31-3.764-.785-3.476-3.117a20.1,20.1,0,0,1,1.725-6.445c2.707-5.429,5.734-10.7,8.609-16.043a43.267,43.267,0,0,0,5.084-13.934c1.211-7.912-2.524-13.5-9.971-14.736A22.236,22.236,0,0,0,349.5,82.654a35.776,35.776,0,0,0-7.709,8.053,6.3,6.3,0,0,1-1.375,1.08l-.318-.369c.077-.417.153-.832.232-1.25,1.061-5.676-1.632-10.065-7.2-11.613a20.092,20.092,0,0,0-11.059.164c-6.849,1.948-11.937,6.29-16,11.961-.559.78-1.1,1.314-2.278.79L310.8,79.757h-1.923c-6.8,0-13.6.043-20.391-.035A2.429,2.429,0,0,0,285.82,81.4c-11.264,24.878-23.119,49.461-36.768,73.143a9.572,9.572,0,0,0-.446,1.111c.584-.18.948-.277,1.3-.4,8.448-3.009,17.076-4.183,25.969-2.481a1.482,1.482,0,0,0,1.87-.992q8.652-16.923,17.4-33.8c3.115-5.98,6.32-11.929,10.775-17.064a11.056,11.056,0,0,1,3.175-2.617,3.375,3.375,0,0,1,2.878-.05c.538.358.72,1.853.472,2.662a31.881,31.881,0,0,1-2.3,5.39q-12.553,23.948-25.17,47.861c-.229.435-.414.891-.7,1.52.43-.121.611-.158.781-.221a53.431,53.431,0,0,1,28.1-2.693,1.858,1.858,0,0,0,2.378-1.284c5.83-12.683,11.663-25.365,17.645-37.978,2.272-4.79,4.785-9.5,8.478-13.408A9.559,9.559,0,0,1,344.5,98c1.738-.8,3.165.211,2.947,2.091a12.064,12.064,0,0,1-1.089,3.829c-1.775,3.65-3.7,7.231-5.56,10.839-2.629,5.093-5.481,10.086-7.817,15.31a26.908,26.908,0,0,0-2.313,14.848c.653,4.654,2.978,8.136,7.681,9.362a22.091,22.091,0,0,0,7.081.621c5.972-.444,10.7-3.6,14.906-7.6,5.48-5.224,9.422-11.526,12.679-18.3.2-.418.415-.83.623-1.245a3.936,3.936,0,0,1-.195,1.748,34.683,34.683,0,0,0-1.668,11.292c.524,9.006,8.257,14.37,16.888,11.729,4.584-1.4,7.991-4.415,11.025-7.937,3.878-4.5,6.566-9.736,9.2-15,.548-1.1-5.8,14.711-10.974,21.72-3.43,4.643-7.184,8.979-12.339,11.817-2.471,1.361-5.09,2.293-7.969,1.459a4.438,4.438,0,0,1-3.4-3.692,4.264,4.264,0,0,1,2.019-4.164c.416-.317.874-.576,1.42-.932a15.471,15.471,0,0,0-7.854-3.331c-11.221-1.547-25.23,9.136-21.539,24.5,2.2,9.165,8.612,14.506,17.333,16.8,13.069,3.439,25.047.484,35.679-7.716,7.58-5.847,12.971-13.539,17.1-22.039,3.711-7.648,6.963-15.522,10.336-23.331,6.653-15.4,13.193-30.854,19.9-46.233,2.135-4.9,4.653-9.626,7.083-14.613-.526-.026-.99-.072-1.454-.072" transform="translate(692.557 815.664)"/>
      <path id="패스_2400" data-name="패스 2400" class="cls-3" d="M56.93,155.591c11.906-1.69,21.959-7.271,30.834-15.175C97.15,132.057,104.429,122,111.05,111.43c9.843-15.722,18.031-32.3,25.535-49.236,3.019-6.814,5.968-13.682,10.129-19.921a23.8,23.8,0,0,1,7.9-7.981,2.841,2.841,0,0,1,2.69-.171c7.118,2.8,14.212,5.678,21.416,8.247,8.234,2.936,16.646,5.144,25.538,4.627,6.727-.39,13.222-1.6,18.959-5.387a18.8,18.8,0,0,0,8.869-17.427c-.368-9.151-10.662-16.111-20.062-13.7a16.64,16.64,0,0,0-6.9,3.493c4.254.736,5.612,3.924,3.093,7.292a9.768,9.768,0,0,1-4.179,3.3,22.3,22.3,0,0,1-7.271,1.253,77.318,77.318,0,0,1-19.005-2.689c-11.6-2.875-23.159-5.948-34.772-8.784-15.451-3.774-31.051-5.076-46.833-2.269C83.8,14.279,72.206,18.433,62.116,26.1c-11.309,8.59-18.64,19.574-20.11,34.03A29.131,29.131,0,0,0,57.431,89.507c15.02,8.2,34.616,1.791,41.691-13.682,2.61-5.708,2.878-11.493-.3-17.086A10.394,10.394,0,0,0,83.7,55.172c-.333.226-.623.515-1.053.874.395.106.577.152.758.2,1.865.534,2.713,1.456,2.767,3.009a3.787,3.787,0,0,1-2.618,3.726c-2.707,1-5.072-.25-6.087-3.344a18.029,18.029,0,0,1,.355-11.418C80.717,39.3,86.754,33,95.009,28.947c15.884-7.8,31.909-6.976,47.883-.108a11.174,11.174,0,0,1,1.605,1.116c-.947.437-1.558.791-2.214,1.01a28.981,28.981,0,0,0-10.266,6.148,52.646,52.646,0,0,0-9.409,11.694c-7.191,11.631-14.281,23.329-21.7,34.812a97.831,97.831,0,0,1-17.3,20.419c-6.628,5.851-14.028,10.145-23.011,11.107-3.011.323-6.051.512-8.775-1.245a5.185,5.185,0,0,1-2.493-5.407c.308-2.086,1.837-3.013,3.811-3.314a2.9,2.9,0,0,0,.544-.247,14.691,14.691,0,0,0-8.992-7.678,26.167,26.167,0,0,0-33.571,17.939c-3.147,12.184.611,22.595,9.843,30.8,10.273,9.127,22.648,11.493,35.967,9.6" transform="translate(751.748 832.5)"/>
      <path id="패스_2401" data-name="패스 2401" class="cls-3" d="M225.184,106.986c1.642-5.471,2.521-11.1,1.305-16.837-1.668-7.874-7.354-12.4-15.352-12.2a36.442,36.442,0,0,0-20.52,7.292c-12.379,8.842-20.465,20.856-25.322,35.126a40.228,40.228,0,0,0-1.8,21.044c1.723,8.724,7.1,13.482,15.954,14.154a22.676,22.676,0,0,0,11.546-2.3c6.717-3.17,12.061-8.048,16.735-13.708a3.773,3.773,0,0,1,2.729-1.537,17.567,17.567,0,0,0,10.433-4.948c4.257-4,6.813-9.065,8.938-14.377,1.023-2.556,1.856-5.187,2.775-7.784l-.311-.173c-3.208,4.885-6.194,10.025-12.471,11.4l-.346-.369c.305-.637.658-1.256.908-1.913,1.632-4.28,3.484-8.5,4.8-12.871M211.9,112.924c-.2.423-.981.677-1.54.807-4.859,1.119-8.794,3.44-10.919,8.185a13.773,13.773,0,0,0-1.014,8.269c.159.867-.038,1.426-.782,1.741a24.123,24.123,0,0,1-3.978,1.5,2.131,2.131,0,0,1-2.811-1.93,13.076,13.076,0,0,1,.08-4.116,53.089,53.089,0,0,1,5.007-13.688,72,72,0,0,1,10.473-16.217,19.47,19.47,0,0,1,3.748-3.3c3.046-2.023,5.719-.63,6.036,3.019.038.428.051.858.075,1.291-.291,5.166-2.183,9.856-4.376,14.439" transform="translate(713.842 815.643)"/>
    </g>
    <rect id="사각형_1594" data-name="사각형 1594" class="cls-4" width="411.244" height="309.544" transform="translate(754.235 834.98)"/>
  </g>
</svg>
