<svg xmlns="http://www.w3.org/2000/svg" width="97.409" height="96.875" viewBox="0 0 97.409 96.875">
    <g data-name="그룹 2194">
        <path data-name="패스 2450" d="m48.7 0-9.046 6.393-10.869-2.16-5.668 9.521L12.31 16.2l-1.305 11-8.877 6.639 3.283 10.583L0 54.091l7.3 8.332-1.007 11.036L16.354 78.1l3.565 10.492L31 88.74l7.524 8.134L48.7 92.5l10.182 4.371 7.524-8.134 11.079-.148L81.054 78.1l10.062-4.642-1.011-11.034 7.3-8.332L92 44.422l3.28-10.583-8.88-6.632L85.1 16.2l-10.809-2.445-5.667-9.522-10.869 2.16z" style="fill:#89d6cc"/>
        <g data-name="그룹 2080">
            <path data-name="패스 2451" d="M31.5 64.871c-.607.147-1.232.286-1.831.414v.022c.487.182 1.123.423 1.68.645l2.7 1.069-.564 1.422-6.729-2.668.564-1.422 3.636-.871-2.052-3.126.556-1.4 6.73 2.668-.585 1.476-2.7-1.069c-.557-.221-1.186-.481-1.666-.682l-.017.015c.349.5.709 1.034 1.051 1.557l1 1.525z" transform="translate(-12.198 -26.873)" style="fill:#222"/>
            <path data-name="패스 2452" d="m42.235 43.791 1.077-1.1 7.232 2.96-1.188 1.216-1.493-.648-2.042 2.088.679 1.483-1.139 1.165zm3.035 3.29 1.364-1.394-.789-.352a101.25 101.25 0 0 1-1.777-.815l-.014.014c.261.521.594 1.21.869 1.8z" transform="translate(-19.253 -19.461)" style="fill:#222"/>
            <path data-name="패스 2453" d="m57.985 30.062 1.443-.666 1.341 2.9h.023l.952-3.974 1.716-.792-1.08 4.2 4.32 2.281-1.779.822-3.959-2.159-.014.017 1.512 3.277-1.443.667z" transform="translate(-26.433 -12.552)" style="fill:#222"/>
            <path data-name="패스 2454" d="m79.449 24.453 4.449-.434.135 1.383-2.867.28.134 1.418 2.468-.241.128 1.314-2.468.241.167 1.712 2.976-.291.135 1.384-4.558.445z" transform="translate(-36.218 -10.949)" style="fill:#222"/>
            <path data-name="패스 2455" d="m122.883 36.935 1.216.945-2.124 7.52-1.342-1.044.476-1.556-2.3-1.792-1.4.838-1.287-1zm-2.925 3.387 1.539 1.2.261-.824c.184-.578.421-1.306.608-1.857l-.016-.013c-.488.318-1.135.726-1.691 1.067z" transform="translate(-52.934 -16.838)" style="fill:#222"/>
            <path data-name="패스 2456" d="m147.657 75.736.244 2.015a5.229 5.229 0 0 1-.359 3.105 3.38 3.38 0 0 1-2.692 1.726 3.443 3.443 0 0 1-2.864-.861 5.045 5.045 0 0 1-1.28-3.169l-.236-1.946zm-5.563 2.719a3.136 3.136 0 0 0 .823 2.056 2.146 2.146 0 0 0 1.743.489 2.1 2.1 0 0 0 1.666-1.047 3.452 3.452 0 0 0 .2-2.048l-.052-.427-4.427.537z" transform="translate(-64.035 -34.525)" style="fill:#222"/>
            <path data-name="사각형 1606" transform="rotate(-79.847 70.668 -18.505)" style="fill:#222" d="M0 0h1.59v7.241H0z"/>
            <path data-name="패스 2457" d="m144.089 111.2-1.993 4.134-1.252-.6 1.3-2.7-1.4-.677-1.12 2.324-1.189-.574 1.12-2.324-2.676-1.29.691-1.432z" transform="translate(-62.397 -49.259)" style="fill:#222"/>
            <path data-name="패스 2458" d="m134.17 127.181-3.178 3.312-1-.963 2.078-2.165-1.126-1.08-1.786 1.862-.952-.914 1.786-1.861-2.143-2.056 1.1-1.147z" transform="translate(-58.28 -55.691)" style="fill:#222"/>
            <path data-name="패스 2459" d="m117.654 139.4-3.941 2.109-.656-1.225 2.539-1.359-.67-1.252-2.186 1.17-.623-1.164 2.186-1.17-.811-1.517-2.636 1.41-.656-1.225 4.038-2.161z" transform="translate(-50.236 -60.636)" style="fill:#222"/>
            <path data-name="패스 2460" d="m98.984 146.7-2.241.36a4.356 4.356 0 0 1-2.3-.116 1.859 1.859 0 0 1-1.129-1.54 2.014 2.014 0 0 1 1.134-2.208l-2.5-2.7 1.807-.291 2.261 2.534.7-.113-.454-2.824 1.57-.252zm-2.866-2.77a2.276 2.276 0 0 0-.96.326.753.753 0 0 0-.289.786.712.712 0 0 0 .517.636 2.713 2.713 0 0 0 1.205 0l.6-.1-.286-1.777z" transform="translate(-41.916 -63.615)" style="fill:#222"/>
            <path data-name="패스 2461" d="m78.982 147.391-4.407-.749.233-1.371 2.839.483.238-1.4-2.445-.415.221-1.3 2.445.416.288-1.7-2.948-.5.233-1.37 4.515.767z" transform="translate(-33.996 -63.586)" style="fill:#222"/>
            <path data-name="패스 2462" d="M57.4 135.434c.093.78.169 1.528.244 2.3h.022c.336-.6.676-1.214 1.026-1.82l1.343-2.33 1.326.764-3.615 6.271-1.3-.749-.421-3.613c-.093-.78-.169-1.529-.244-2.3h-.022c-.336.6-.677 1.214-1.026 1.82l-1.343 2.33-1.325-.764 3.615-6.271 1.3.749z" transform="translate(-23.736 -59.75)" style="fill:#222"/>
            <path data-name="패스 2463" d="M41.174 117.716a4.641 4.641 0 0 1 1.7 1.352 3.735 3.735 0 1 1-5.816 4.671 4.645 4.645 0 0 1-.908-1.848l1.255-1.008a3.674 3.674 0 0 0 .761 1.953 2.24 2.24 0 0 0 3.263.406 2.267 2.267 0 0 0 .286-3.333 3.637 3.637 0 0 0-1.806-1.179z" transform="translate(-16.48 -53.662)" style="fill:#222"/>
            <path data-name="패스 2464" d="m28.486 109.058-1.5-4.212 1.31-.465.964 2.714 1.338-.476-.83-2.337 1.244-.442.83 2.337 1.621-.576-1-2.817 1.31-.465 1.533 4.315z" transform="translate(-12.304 -46.642)" style="fill:#222"/>
        </g>
    </g>
</svg>
