<?xml version="1.0" encoding="utf-8"?>
<!-- Generator: Adobe Illustrator 26.0.3, SVG Export Plug-In . SVG Version: 6.00 Build 0)  -->
<svg version="1.1" id="레이어_1" xmlns="http://www.w3.org/2000/svg" xmlns:xlink="http://www.w3.org/1999/xlink" x="0px"
	 y="0px" viewBox="0 0 2208.9 92.3" style="enable-background:new 0 0 2208.9 92.3;" xml:space="preserve">
<style type="text/css">
	.st0{fill:#89D3D9;}
	.st1{fill:#AF7F3B;}
	.st2{fill-rule:evenodd;clip-rule:evenodd;fill:#AF7F3B;}
</style>
<g>
	<path class="st0" d="M0,0l2208.9,0v92.3L0,92.3L0,0z"/>
	<g>
		<path class="st1" d="M608.8,57.1c4.7,3.1,10.2,4.9,15.9,5.2c4,0,6.9-1.6,6.9-5.3c0-4.6-4.7-5-11.1-7.1
			c-6.9-2.3-13.1-5.6-13.1-14.3c0-9.3,7-15,17.5-15c5.3,0,10.5,1.2,15.2,3.6v10.8c-4.6-2.9-9.8-4.5-15.3-4.8c-3.7,0-6.4,1.4-6.4,4.7
			c0,4.4,4.6,4.7,10.6,6.7c7.5,2.5,13.5,6,13.5,14.8c0,9.7-7.4,15.5-18.1,15.5c-5.5,0-10.8-1.3-15.7-3.6V57.1z"/>
		<path class="st1" d="M646.8,46.1c0-14.5,11.2-25.6,26-25.6c14.8,0,26,11.1,26,25.6s-11.2,25.6-26,25.6S646.8,60.6,646.8,46.1
			 M687.8,46.1c0-8.8-6.5-15.7-15-15.7c-8.6,0-15,6.9-15,15.7s6.5,15.7,15,15.7C681.4,61.9,687.8,54.9,687.8,46.1"/>
		<path class="st1" d="M745.1,68.5c-4.5,2.2-9.5,3.4-14.6,3.3c-16,0-27.1-11.1-27.1-25.6c0-14.4,11.1-25.7,27.1-25.7
			c4.8,0,9.5,1,13.8,3.1v11.1c-4.1-2.7-8.8-4.2-13.7-4.3c-9.6,0-16.2,6.7-16.2,15.7c0,8.9,6.4,15.9,16.6,15.9
			c5.1-0.1,10-1.7,14.1-4.6V68.5z"/>
		<path class="st1" d="M752.4,21.3h10.9V71h-10.9V21.3z"/>
		<path class="st1" d="M788.3,21.3h10.6L819,71h-11.7l-4-10.4h-20.1L779.3,71h-11.2L788.3,21.3z M786.7,52h13.4l-2.1-5.6
			c-1.6-4.2-3.1-8.4-4.5-12.6h-0.1c-1.5,4.3-3.1,8.6-4.7,12.9L786.7,52z"/>
		<path class="st1" d="M823.8,21.3h10.9v40.2h21.8V71h-32.7V21.3z"/>
		<path class="st1" d="M861.9,21.3h10.9V71h-10.9V21.3z"/>
		<path class="st1" d="M901.5,31l-0.1-0.1h-21.3v-9.6h39.3l0.1,0.1l-23.6,39.9l0.1,0.1h22.9V71H878l-0.1-0.1L901.5,31z"/>
		<path class="st1" d="M926.6,21.3l10.9,0V71h-10.9V21.3z"/>
		<path class="st1" d="M966.4,50.9c-3.2-4.3-6.3-8.5-9.3-12.8l-0.1,0.1c0.1,4.7,0.1,9.5,0.1,14.4V71h-10.5V21.3h10.3l14.9,20.1
			c3.2,4.3,6.3,8.5,9.3,12.8l0.1-0.1c-0.1-4.7-0.1-9.5-0.1-14.4V21.3h10.5V71h-10.3L966.4,50.9z"/>
		<path class="st1" d="M1042.6,67.6c-5.2,2.7-11,4.1-16.9,4.1c-15.9,0-27.1-10.8-27.1-25.4c0-14.7,11.3-25.8,27.2-25.8
			c5.3,0,10.6,1.3,15.3,3.8v11c-4.4-3.1-9.7-4.8-15-4.9c-10,0-16.5,7.1-16.5,15.9c0,8.7,6.2,15.9,16.4,15.9c2.1,0,4.2-0.3,6.1-1.1
			v-7.5h-8.7v-9.1h19.2V67.6z"/>
		<path class="st1" d="M84.4,46.1c0-14.5,11.2-25.6,26-25.6s26,11.1,26,25.6s-11.2,25.6-26,25.6S84.4,60.6,84.4,46.1 M125.4,46.1
			c0-8.8-6.5-15.7-15-15.7s-15,6.9-15,15.7s6.5,15.7,15,15.7S125.4,54.9,125.4,46.1"/>
		<path class="st1" d="M182.7,68.5c-4.5,2.2-9.5,3.4-14.6,3.3c-16,0-27.1-11.1-27.1-25.6c0-14.4,11.1-25.7,27.1-25.7
			c4.8,0,9.5,1,13.8,3.1v11.1c-4.1-2.7-8.8-4.2-13.7-4.3c-9.6,0-16.2,6.7-16.2,15.7c0,8.9,6.4,15.9,16.6,15.9
			c5.1-0.1,10-1.7,14.1-4.6L182.7,68.5z"/>
		<path class="st1" d="M190,21.3h10.9V71H190V21.3z"/>
		<path class="st1" d="M225.9,21.3h10.6L256.7,71H245l-4-10.4h-20.1L216.9,71h-11.2L225.9,21.3z M224.3,52h13.4l-2.1-5.6
			c-1.6-4.2-3.1-8.4-4.5-12.6H231c-1.5,4.3-3.1,8.6-4.7,12.9L224.3,52z"/>
		<path class="st1" d="M261.4,21.3h10.9v40.2h21.8V71h-32.7V21.3z"/>
		<path class="st1" d="M299.5,21.3h10.9V71h-10.9V21.3z"/>
		<path class="st1" d="M339.1,30.9l-0.1-0.1h-21.3v-9.6H357l0.1,0.1l-23.6,39.9l0.1,0.1h22.9V71h-40.9l-0.1-0.1L339.1,30.9z"/>
		<path class="st1" d="M364.2,21.3h10.9V71h-10.9V21.3z"/>
		<path class="st1" d="M404,50.9c-3.2-4.3-6.3-8.5-9.3-12.8l-0.1,0.1c0.1,4.7,0.1,9.5,0.1,14.4V71h-10.5V21.3h10.3l14.9,20.1
			c3.2,4.3,6.3,8.5,9.3,12.8l0.1-0.1c-0.1-4.7-0.1-9.5-0.1-14.4V21.3h10.5V71h-10.3L404,50.9z"/>
		<path class="st1" d="M480.2,67.6c-5.2,2.7-11,4.1-16.9,4.1c-15.9,0-27.1-10.8-27.1-25.4c0-14.7,11.3-25.8,27.2-25.8
			c5.3,0,10.6,1.3,15.3,3.8v11c-4.4-3.1-9.7-4.8-15-4.9c-10,0-16.5,7.1-16.5,15.9c0,8.7,6.2,15.9,16.4,15.9c2.1,0,4.2-0.3,6.1-1.1
			v-7.5H461v-9.1h19.2V67.6z"/>
		<path class="st1" d="M1171.2,57.1c4.7,3.1,10.2,4.9,15.9,5.2c4,0,6.9-1.6,6.9-5.3c0-4.6-4.7-5-11.1-7.1
			c-6.9-2.3-13.1-5.6-13.1-14.3c0-9.3,7-15,17.5-15c5.3,0,10.5,1.2,15.2,3.6v10.8c-4.6-2.9-9.8-4.5-15.3-4.8c-3.7,0-6.4,1.4-6.4,4.7
			c0,4.4,4.6,4.7,10.6,6.7c7.5,2.5,13.5,6,13.5,14.8c0,9.7-7.4,15.5-18.1,15.5c-5.5,0-10.8-1.3-15.7-3.6V57.1z"/>
		<path class="st1" d="M1209.2,46.1c0-14.5,11.2-25.6,26-25.6c14.8,0,26,11.1,26,25.6s-11.2,25.6-26,25.6S1209.2,60.6,1209.2,46.1
			 M1250.2,46.1c0-8.8-6.5-15.7-15-15.7s-15,6.9-15,15.7s6.5,15.7,15,15.7S1250.2,54.9,1250.2,46.1"/>
		<path class="st1" d="M1307.5,68.5c-4.5,2.2-9.5,3.4-14.6,3.3c-16,0-27.1-11.1-27.1-25.6c0-14.4,11.1-25.7,27.1-25.7
			c4.8,0,9.5,1,13.8,3.1v11.1c-4.1-2.7-8.8-4.2-13.7-4.3c-9.6,0-16.2,6.7-16.2,15.7c0,8.9,6.4,15.9,16.6,15.9
			c5.1-0.1,10-1.7,14.1-4.6V68.5z"/>
		<path class="st1" d="M1314.8,21.3h10.9V71h-10.9V21.3z"/>
		<path class="st1" d="M1350.6,21.3h10.6l20.2,49.7h-11.7l-4-10.4h-20.1l-4.1,10.4h-11.2L1350.6,21.3z M1349.1,52h13.4l-2.1-5.6
			c-1.6-4.2-3.1-8.4-4.5-12.6h-0.1c-1.5,4.3-3.1,8.6-4.7,12.9L1349.1,52z"/>
		<path class="st1" d="M1386.2,21.3h10.9v40.2h21.8V71h-32.7V21.3z"/>
		<path class="st1" d="M1424.3,21.3h10.9V71h-10.9V21.3z"/>
		<path class="st1" d="M1463.9,31l-0.1-0.1h-21.3v-9.5h39.3l0.1,0.1l-23.6,39.9l0.1,0.1h22.9V71h-40.9l-0.1-0.1L1463.9,31z"/>
		<path class="st1" d="M1488.9,21.3h10.9V71h-10.9V21.3z"/>
		<path class="st1" d="M1528.8,50.9c-3.2-4.3-6.3-8.5-9.3-12.8l-0.1,0.1c0.1,4.7,0.1,9.5,0.1,14.4V71h-10.5V21.3h10.3l14.9,20.1
			c3.2,4.3,6.3,8.5,9.3,12.8l0.1-0.1c-0.1-4.7-0.1-9.5-0.1-14.4V21.3h10.5V71h-10.3L1528.8,50.9z"/>
		<path class="st1" d="M1605,67.6c-5.2,2.7-11,4.1-16.9,4.1c-15.9,0-27.1-10.8-27.1-25.4c0-14.7,11.3-25.8,27.2-25.8
			c5.3,0,10.6,1.3,15.3,3.8v11c-4.4-3.1-9.7-4.8-15-4.9c-10,0-16.5,7.1-16.5,15.9c0,8.7,6.2,15.9,16.4,15.9c2.1,0,4.2-0.3,6.1-1.1
			v-7.5h-8.7v-9.1h19.2V67.6z"/>
		<path class="st2" d="M573,52.7c4.7-15.4-3.9-31.6-19.3-36.3c-2.8-0.9-5.7-1.3-8.6-1.3c-6.4,0-12.6,2.1-17.6,5.9l-1.5,1.1l5.4,5.7
			l1.2-0.9c8.5-6.1,20.2-5.3,27.6,2.1c5.4,5.5,7.5,13.4,5.5,20.9l-6.2-2.1l6.1,14.4l13.9-7.4L573,52.7z"/>
		<path class="st2" d="M555,65.2c-3.6,2.7-8,4.2-12.6,4.2c-2.5,0-4.9-0.4-7.3-1.3c-10.3-4-16.1-15.1-13.3-25.8l6.3,2.4l-6.1-14.6
			l-13.8,7.1l6.3,2.4c-3.2,10.3-0.4,21.5,7.2,29.1c3.1,3,6.8,5.3,10.8,6.8c3.2,1.1,6.5,1.7,9.9,1.7c6.4,0,12.6-2.1,17.7-5.9l1.4-1.1
			l-5.3-6L555,65.2z"/>
		<path class="st2" d="M1135.4,52.7c4.7-15.4-3.9-31.6-19.3-36.3c-2.8-0.9-5.7-1.3-8.6-1.3c-6.4,0-12.6,2.1-17.6,5.9l-1.5,1.1
			l5.4,5.7l1.2-0.9c8.5-6.1,20.2-5.3,27.6,2.1c5.4,5.5,7.5,13.4,5.5,20.9l-6.2-2.1l6.1,14.4l13.9-7.4L1135.4,52.7z"/>
		<path class="st2" d="M1117.4,65.2c-3.6,2.7-8,4.2-12.6,4.2c-2.5,0-4.9-0.4-7.3-1.3c-10.3-4-16.1-15.1-13.3-25.8l6.3,2.4l-6.1-14.6
			l-13.8,7.1l6.3,2.4c-3.2,10.3-0.4,21.5,7.2,29.1c3.1,3,6.8,5.3,10.8,6.8c3.2,1.1,6.5,1.7,9.9,1.7c6.4,0,12.6-2.1,17.7-5.9l1.4-1.1
			l-5.3-6L1117.4,65.2z"/>
		<path class="st1" d="M1733.6,57.1c4.7,3.1,10.2,4.9,15.9,5.2c4,0,6.9-1.6,6.9-5.3c0-4.6-4.7-5-11.1-7.1
			c-6.9-2.3-13.1-5.6-13.1-14.3c0-9.3,7-15,17.5-15c5.3,0,10.5,1.2,15.2,3.6v10.8c-4.6-2.9-9.8-4.5-15.3-4.8c-3.7,0-6.4,1.4-6.4,4.7
			c0,4.4,4.6,4.7,10.6,6.7c7.5,2.5,13.5,6,13.5,14.8c0,9.7-7.4,15.5-18.1,15.5c-5.5,0-10.8-1.3-15.7-3.6V57.1z"/>
		<path class="st1" d="M1771.6,46.1c0-14.5,11.2-25.6,26-25.6c14.8,0,26,11.1,26,25.6s-11.2,25.6-26,25.6S1771.6,60.6,1771.6,46.1
			 M1812.6,46.1c0-8.8-6.5-15.7-15-15.7s-15,6.9-15,15.7s6.5,15.7,15,15.7S1812.6,54.9,1812.6,46.1"/>
		<path class="st1" d="M1869.9,68.5c-4.5,2.2-9.5,3.4-14.6,3.3c-16,0-27.1-11.1-27.1-25.6c0-14.4,11.1-25.7,27.1-25.7
			c4.8,0,9.5,1,13.8,3.1v11.1c-4.1-2.7-8.8-4.2-13.7-4.3c-9.6,0-16.2,6.7-16.2,15.7c0,8.9,6.4,15.9,16.6,15.9
			c5.1-0.1,10-1.7,14.1-4.6L1869.9,68.5z"/>
		<path class="st1" d="M1877.2,21.3h10.9V71h-10.9V21.3z"/>
		<path class="st1" d="M1913,21.3h10.6l20.2,49.7h-11.7l-4-10.4h-20.1L1904,71h-11.2L1913,21.3z M1911.4,52h13.4l-2.1-5.6
			c-1.6-4.2-3.1-8.4-4.5-12.6h-0.1c-1.5,4.3-3.1,8.6-4.7,12.9L1911.4,52z"/>
		<path class="st1" d="M1948.5,21.3h10.9v40.2h21.8V71h-32.7V21.3z"/>
		<path class="st1" d="M1986.7,21.3h10.9V71h-10.9V21.3z"/>
		<path class="st1" d="M2026.2,30.9l-0.1-0.1h-21.3v-9.5h39.3l0.1,0.1l-23.6,39.9l0.1,0.1h22.9V71h-40.9l-0.1-0.1L2026.2,30.9z"/>
		<path class="st1" d="M2051.3,21.3h10.9V71h-10.9V21.3z"/>
		<path class="st1" d="M2091.2,50.9c-3.2-4.3-6.3-8.5-9.3-12.8l-0.1,0.1c0.1,4.7,0.1,9.5,0.1,14.4V71h-10.5V21.3h10.3l14.9,20.1
			c3.2,4.3,6.3,8.5,9.3,12.8l0.1-0.1c-0.1-4.7-0.1-9.5-0.1-14.4V21.3h10.5V71h-10.3L2091.2,50.9z"/>
		<path class="st2" d="M1697.7,52.7c4.7-15.4-3.9-31.6-19.3-36.3c-2.8-0.9-5.7-1.3-8.6-1.3c-6.4,0-12.6,2.1-17.6,5.9l-1.5,1.1
			l5.4,5.7l1.2-0.9c8.5-6.1,20.2-5.3,27.6,2.1c5.4,5.5,7.5,13.4,5.5,20.9l-6.2-2.1l6.1,14.4l13.9-7.4L1697.7,52.7z"/>
		<path class="st2" d="M1679.8,65.2c-3.6,2.7-8,4.2-12.6,4.2c-2.5,0-4.9-0.4-7.3-1.3c-10.3-4-16.1-15.1-13.3-25.8l6.3,2.4l-6.1-14.6
			l-13.8,7.1l6.3,2.4c-3.2,10.3-0.4,21.5,7.2,29.1c3.1,3,6.8,5.3,10.8,6.8c3.2,1.1,6.5,1.7,9.9,1.7c6.4,0,12.6-2.1,17.7-5.9l1.4-1.1
			l-5.3-6L1679.8,65.2z"/>
		<path class="st1" d="M46.4,57.1c4.7,3.1,10.2,4.9,15.9,5.2c4,0,6.9-1.6,6.9-5.3c0-4.6-4.7-5-11.1-7.1c-6.9-2.3-13.1-5.6-13.1-14.3
			c0-9.3,7-15,17.5-15c5.3,0,10.5,1.2,15.2,3.6v10.8c-4.6-2.9-9.8-4.5-15.3-4.8c-3.7,0-6.4,1.4-6.4,4.7c0,4.4,4.6,4.7,10.6,6.7
			c7.5,2.5,13.5,6,13.5,14.8c0,9.7-7.4,15.5-18.1,15.5c-5.5,0-10.8-1.3-15.7-3.6L46.4,57.1z"/>
		<path class="st1" d="M2167.4,67.6c-5.2,2.7-11,4.1-16.9,4.1c-15.9,0-27.1-10.8-27.1-25.4c0-14.7,11.3-25.8,27.2-25.8
			c5.3,0,10.6,1.3,15.3,3.8v11c-4.4-3.1-9.7-4.8-15-4.9c-10,0-16.5,7.1-16.5,15.9c0,8.7,6.2,15.9,16.4,15.9c2.1,0,4.2-0.3,6.1-1.1
			v-7.5h-8.7v-9.1h19.2V67.6z"/>
	</g>
</g>
</svg>
