<?xml version="1.0" encoding="utf-8"?>
<!-- Generator: Adobe Illustrator 26.0.3, SVG Export Plug-In . SVG Version: 6.00 Build 0)  -->
<svg version="1.1" id="레이어_1" xmlns="http://www.w3.org/2000/svg" xmlns:xlink="http://www.w3.org/1999/xlink" x="0px"
	 y="0px" viewBox="0 0 2208.9 92.3" style="enable-background:new 0 0 2208.9 92.3;" xml:space="preserve">
<style type="text/css">
	.st0{fill:#FF9DBF;}
	.st1{fill:#F7E643;}
	.st2{fill-rule:evenodd;clip-rule:evenodd;fill:#F7E643;}
</style>
<g id="그룹_2515" transform="translate(100.655 -6604.79)">
	<rect id="사각형_3642" x="-100.7" y="6604.8" class="st0" width="2208.9" height="92.3"/>
	<g id="그룹_2514">
		<path id="패스_3018" class="st1" d="M508.1,6661.9c4.7,3.1,10.2,4.9,15.9,5.2c4,0,6.9-1.6,6.9-5.3c0-4.6-4.7-5-11.1-7.1
			c-6.9-2.3-13.1-5.6-13.1-14.3c0-9.3,7-15,17.5-15c5.3,0,10.5,1.2,15.2,3.6v10.8c-4.6-2.9-9.8-4.5-15.3-4.8c-3.7,0-6.4,1.4-6.4,4.7
			c0,4.4,4.6,4.7,10.6,6.7c7.5,2.5,13.5,6,13.5,14.8c0,9.7-7.4,15.5-18.1,15.5c-5.5,0-10.8-1.3-15.7-3.6V6661.9z"/>
		<path id="패스_3019" class="st1" d="M546.1,6650.9c0-14.5,11.2-25.6,26-25.6s26,11.1,26,25.6s-11.2,25.6-26,25.6
			S546.1,6665.4,546.1,6650.9 M587.2,6650.9c0-8.8-6.5-15.7-15-15.7s-15,6.9-15,15.7s6.5,15.7,15,15.7S587.2,6659.7,587.2,6650.9"/>
		<path id="패스_3020" class="st1" d="M644.5,6673.3c-4.5,2.2-9.5,3.4-14.6,3.3c-16,0-27.1-11.1-27.1-25.6
			c0-14.4,11.1-25.7,27.1-25.7c4.8,0,9.5,1,13.8,3.1v11.1c-4.1-2.7-8.8-4.2-13.7-4.3c-9.6,0-16.2,6.7-16.2,15.7
			c0,8.9,6.4,15.9,16.6,15.9c5.1-0.1,10-1.7,14.1-4.6V6673.3z"/>
		<rect id="사각형_3643" x="651.7" y="6626.1" class="st1" width="10.9" height="49.7"/>
		<path id="패스_3021" class="st1" d="M687.6,6626.1h10.6l20.2,49.7h-11.7l-4-10.4h-20.1l-4.1,10.4h-11.2L687.6,6626.1z
			 M686,6656.8h13.4l-2.1-5.6c-1.4-3.9-3.2-8.9-4.5-12.6h-0.1c-1.3,3.8-3.1,8.7-4.7,12.9L686,6656.8z"/>
		<path id="패스_3022" class="st1" d="M723.1,6626.1H734v40.2h21.8v9.5h-32.7V6626.1z"/>
		<rect id="사각형_3644" x="761.3" y="6626.1" class="st1" width="10.9" height="49.7"/>
		<path id="패스_3023" class="st1" d="M800.8,6635.7l-0.1-0.1h-21.3v-9.6h39.3l0.1,0.1l-23.6,39.9l0.1,0.1h22.9v9.6h-40.9
			l-0.1-0.1L800.8,6635.7z"/>
		<rect id="사각형_3645" x="825.9" y="6626.1" class="st1" width="10.9" height="49.7"/>
		<path id="패스_3024" class="st1" d="M865.8,6655.7c-3.2-4.3-6.3-8.5-9.3-12.8l-0.1,0.1c0.1,4.7,0.1,9.6,0.1,14.4v18.5h-10.5
			v-49.7h10.3l14.9,20.1c3.2,4.3,6.3,8.5,9.3,12.8l0.1-0.1c-0.1-4.7-0.1-9.5-0.1-14.4v-18.5H891v49.7h-10.3L865.8,6655.7z"/>
		<path id="패스_3025" class="st1" d="M941.9,6672.4c-5.2,2.7-11,4.1-16.9,4.1c-15.9,0-27.1-10.8-27.1-25.4
			c0-14.7,11.3-25.8,27.2-25.8c5.3,0,10.6,1.3,15.3,3.8v11c-4.4-3.1-9.7-4.8-15-4.9c-10,0-16.5,7.1-16.5,15.9
			c0,8.7,6.2,15.9,16.4,15.9c2.1,0,4.2-0.3,6.1-1.1v-7.5h-8.7v-9.1h19.2V6672.4z"/>
		<path id="패스_3027" class="st1" d="M-16.2,6650.9c0-14.5,11.2-25.6,26-25.6s26,11.1,26,25.6s-11.2,25.6-26,25.6
			S-16.2,6665.4-16.2,6650.9 M24.8,6650.9c0-8.8-6.5-15.7-15-15.7s-15,6.9-15,15.7s6.5,15.7,15,15.7S24.8,6659.7,24.8,6650.9"/>
		<path id="패스_3028" class="st1" d="M82.1,6673.3c-4.5,2.2-9.5,3.4-14.6,3.3c-16,0-27.1-11.1-27.1-25.6
			c0-14.4,11.1-25.7,27.1-25.7c4.8,0,9.5,1,13.8,3.1v11.1c-4.1-2.7-8.8-4.2-13.7-4.3c-9.6,0-16.2,6.7-16.2,15.7
			c0,8.9,6.4,15.9,16.6,15.9c5.1-0.1,10-1.7,14.1-4.6L82.1,6673.3z"/>
		<rect id="사각형_3646" x="89.4" y="6626.1" class="st1" width="10.9" height="49.7"/>
		<path id="패스_3029" class="st1" d="M125.2,6626.1h10.6l20.2,49.7h-11.7l-4-10.4h-20.1l-4.1,10.4H105L125.2,6626.1z
			 M123.6,6656.8H137l-2.1-5.6c-1.4-3.9-3.2-8.9-4.5-12.6h-0.1c-1.3,3.8-3.1,8.7-4.7,12.9L123.6,6656.8z"/>
		<path id="패스_3030" class="st1" d="M160.7,6626.1h10.9v40.2h21.8v9.5h-32.7V6626.1z"/>
		<rect id="사각형_3647" x="198.9" y="6626.1" class="st1" width="10.9" height="49.7"/>
		<path id="패스_3031" class="st1" d="M238.4,6635.7l-0.1-0.1h-21.3v-9.6h39.3l0.1,0.1l-23.6,39.9l0.1,0.1h22.9v9.6h-40.9
			l-0.1-0.1L238.4,6635.7z"/>
		<rect id="사각형_3648" x="263.5" y="6626.1" class="st1" width="10.9" height="49.7"/>
		<path id="패스_3032" class="st1" d="M303.4,6655.7c-3.2-4.3-6.3-8.5-9.3-12.8l-0.1,0.1c0.1,4.7,0.1,9.6,0.1,14.4v18.5h-10.5
			v-49.7h10.3l14.9,20.1c3.2,4.3,6.3,8.5,9.3,12.8l0.1-0.1c-0.1-4.7-0.1-9.5-0.1-14.4v-18.5h10.5v49.7h-10.3L303.4,6655.7z"/>
		<path id="패스_3033" class="st1" d="M379.6,6672.4c-5.2,2.7-11,4.1-16.9,4.1c-15.9,0-27.1-10.8-27.1-25.4
			c0-14.7,11.3-25.8,27.2-25.8c5.3,0,10.6,1.3,15.3,3.8v11c-4.4-3.1-9.7-4.8-15-4.9c-10,0-16.5,7.1-16.5,15.9
			c0,8.7,6.2,15.9,16.4,15.9c2.1,0,4.2-0.3,6.1-1.1v-7.5h-8.7v-9.1h19.2V6672.4z"/>
		<path id="패스_3034" class="st1" d="M1070.5,6661.9c4.7,3.1,10.2,4.9,15.9,5.2c4,0,6.9-1.6,6.9-5.3c0-4.6-4.7-5-11.1-7.1
			c-6.9-2.3-13.1-5.6-13.1-14.3c0-9.3,7-15,17.5-15c5.3,0,10.5,1.2,15.2,3.6v10.8c-4.6-2.9-9.8-4.5-15.3-4.8c-3.7,0-6.4,1.4-6.4,4.7
			c0,4.4,4.6,4.7,10.6,6.7c7.5,2.5,13.5,6,13.5,14.8c0,9.7-7.4,15.5-18.1,15.5c-5.5,0-10.8-1.3-15.7-3.6V6661.9z"/>
		<path id="패스_3035" class="st1" d="M1108.5,6650.9c0-14.5,11.2-25.6,26-25.6c14.8,0,26,11.1,26,25.6c0,14.5-11.2,25.6-26,25.6
			S1108.5,6665.4,1108.5,6650.9 M1149.5,6650.9c0-8.8-6.5-15.7-15-15.7c-8.6,0-15,6.9-15,15.7c0,8.8,6.5,15.7,15,15.7
			C1143.1,6666.7,1149.5,6659.7,1149.5,6650.9"/>
		<path id="패스_3036" class="st1" d="M1206.8,6673.3c-4.5,2.2-9.5,3.4-14.6,3.3c-16,0-27.1-11.1-27.1-25.6
			c0-14.4,11.1-25.7,27.1-25.7c4.8,0,9.5,1,13.8,3.1v11.1c-4.1-2.7-8.8-4.2-13.7-4.3c-9.6,0-16.2,6.7-16.2,15.7
			c0,8.9,6.4,15.9,16.6,15.9c5.1-0.1,10-1.7,14.1-4.6V6673.3z"/>
		<rect id="사각형_3649" x="1214.1" y="6626.1" class="st1" width="10.9" height="49.7"/>
		<path id="패스_3037" class="st1" d="M1250,6626.1h10.6l20.2,49.7h-11.7l-4-10.4H1245l-4.1,10.4h-11.2L1250,6626.1z
			 M1248.4,6656.8h13.4l-2.1-5.6c-1.4-3.9-3.2-8.9-4.5-12.6h-0.1c-1.3,3.8-3.1,8.7-4.7,12.9L1248.4,6656.8z"/>
		<path id="패스_3038" class="st1" d="M1285.5,6626.1h10.9v40.2h21.8v9.5h-32.7V6626.1z"/>
		<rect id="사각형_3650" x="1323.6" y="6626.1" class="st1" width="10.9" height="49.7"/>
		<path id="패스_3039" class="st1" d="M1363.2,6635.7l-0.1-0.1h-21.3v-9.5h39.3l0.1,0.1l-23.6,39.9l0.1,0.1h22.9v9.6h-40.9
			l-0.1-0.1L1363.2,6635.7z"/>
		<rect id="사각형_3651" x="1388.3" y="6626.1" class="st1" width="10.9" height="49.7"/>
		<path id="패스_3040" class="st1" d="M1428.1,6655.7c-3.2-4.3-6.3-8.5-9.3-12.8l-0.1,0.1c0.1,4.7,0.1,9.5,0.1,14.4v18.5h-10.5
			v-49.7h10.3l14.9,20.1c3.2,4.3,6.3,8.5,9.3,12.8l0.1-0.1c-0.1-4.7-0.1-9.6-0.1-14.4v-18.5h10.5v49.7H1443L1428.1,6655.7z"/>
		<path id="패스_3041" class="st1" d="M1504.3,6672.4c-5.2,2.7-11,4.1-16.9,4.1c-15.9,0-27.1-10.8-27.1-25.4
			c0-14.7,11.3-25.8,27.2-25.8c5.3,0,10.6,1.3,15.3,3.8v11c-4.4-3.1-9.7-4.8-15-4.9c-10,0-16.5,7.1-16.5,15.9
			c0,8.7,6.2,15.9,16.4,15.9c2.1,0,4.2-0.3,6.1-1.1v-7.5h-8.7v-9.1h19.2V6672.4z"/>
		<path id="패스_3042" class="st2" d="M472.3,6657.4c4.7-15.4-3.9-31.6-19.3-36.3c-2.8-0.9-5.7-1.3-8.6-1.3
			c-6.4,0-12.6,2.1-17.6,5.9l-1.5,1.1l5.4,5.7l1.2-0.9c8.5-6.1,20.2-5.3,27.6,2.1c5.4,5.5,7.5,13.4,5.5,20.9l-6.2-2.1l6.1,14.4
			l13.9-7.4L472.3,6657.4z"/>
		<path id="패스_3043" class="st2" d="M454.4,6670c-3.6,2.7-8,4.2-12.6,4.2c-2.5,0-4.9-0.4-7.3-1.3c-10.3-4-16.1-15.1-13.3-25.8
			l6.3,2.4l-6.1-14.6l-13.8,7.1l6.3,2.4c-3.2,10.3-0.4,21.5,7.2,29.1c3.1,3,6.8,5.3,10.8,6.8c3.2,1.1,6.5,1.7,9.9,1.7
			c6.4,0,12.6-2.1,17.7-5.9l1.4-1.1l-5.3-6L454.4,6670z"/>
		<path id="패스_3044" class="st2" d="M1034.7,6657.4c4.7-15.4-3.9-31.6-19.3-36.3c-2.8-0.9-5.7-1.3-8.6-1.3
			c-6.4,0-12.6,2.1-17.6,5.9l-1.5,1.1l5.4,5.7l1.2-0.9c8.5-6.1,20.2-5.3,27.6,2.1c5.4,5.5,7.5,13.4,5.5,20.9l-6.2-2.1l6.1,14.4
			l13.9-7.4L1034.7,6657.4z"/>
		<path id="패스_3045" class="st2" d="M1016.8,6670c-3.6,2.7-8,4.2-12.6,4.2c-2.5,0-4.9-0.4-7.3-1.3c-10.3-4-16.1-15.1-13.3-25.8
			l6.3,2.4l-6.1-14.6L970,6642l6.3,2.4c-3.2,10.3-0.4,21.5,7.2,29.1c3.1,3,6.8,5.3,10.8,6.8c3.2,1.1,6.5,1.7,9.9,1.7
			c6.4,0,12.6-2.1,17.7-5.9l1.4-1.1l-5.3-6L1016.8,6670z"/>
		<path id="패스_3046" class="st1" d="M1632.9,6661.8c4.7,3.1,10.2,4.9,15.9,5.2c4,0,6.9-1.6,6.9-5.3c0-4.6-4.7-5-11.1-7.1
			c-6.9-2.3-13.1-5.6-13.1-14.3c0-9.3,7-15,17.5-15c5.3,0,10.5,1.2,15.2,3.6v10.8c-4.6-2.9-9.8-4.5-15.3-4.8c-3.7,0-6.4,1.4-6.4,4.7
			c0,4.4,4.6,4.7,10.6,6.7c7.5,2.5,13.5,6,13.5,14.8c0,9.7-7.4,15.5-18.1,15.5c-5.5,0-10.8-1.3-15.7-3.6V6661.8z"/>
		<path id="패스_3047" class="st1" d="M1670.9,6650.9c0-14.5,11.2-25.6,26-25.6c14.8,0,26,11.1,26,25.6s-11.2,25.6-26,25.6
			S1670.9,6665.4,1670.9,6650.9 M1711.9,6650.9c0-8.8-6.5-15.7-15-15.7c-8.6,0-15,6.9-15,15.7s6.5,15.7,15,15.7
			C1705.5,6666.7,1711.9,6659.7,1711.9,6650.9"/>
		<path id="패스_3048" class="st1" d="M1769.2,6673.3c-4.5,2.2-9.5,3.4-14.6,3.3c-16,0-27.1-11.1-27.1-25.6
			c0-14.4,11.1-25.7,27.1-25.7c4.8,0,9.5,1,13.8,3.1v11.1c-4.1-2.7-8.8-4.2-13.7-4.3c-9.6,0-16.2,6.7-16.2,15.7
			c0,8.9,6.4,15.9,16.6,15.9c5.1-0.1,10-1.7,14.1-4.6L1769.2,6673.3z"/>
		<rect id="사각형_3652" x="1776.5" y="6626.1" class="st1" width="10.9" height="49.7"/>
		<path id="패스_3049" class="st1" d="M1812.4,6626.1h10.6l20.2,49.7h-11.7l-4-10.4h-20.1l-4.1,10.4h-11.2L1812.4,6626.1z
			 M1810.8,6656.8h13.4l-2.1-5.6c-1.4-3.9-3.2-8.9-4.5-12.6h-0.1c-1.3,3.8-3.1,8.7-4.7,12.9L1810.8,6656.8z"/>
		<path id="패스_3050" class="st1" d="M1847.9,6626.1h10.9v40.2h21.8v9.5h-32.7V6626.1z"/>
		<rect id="사각형_3653" x="1886" y="6626.1" class="st1" width="10.9" height="49.7"/>
		<path id="패스_3051" class="st1" d="M1925.6,6635.7l-0.1-0.1h-21.3v-9.6h39.3l0.1,0.1l-23.6,39.9l0.1,0.1h22.9v9.6h-40.9
			l-0.1-0.1L1925.6,6635.7z"/>
		<path id="패스_3054" class="st2" d="M1597.1,6657.4c4.7-15.4-3.9-31.6-19.3-36.3c-2.8-0.9-5.7-1.3-8.6-1.3
			c-6.4,0-12.6,2.1-17.6,5.9l-1.5,1.1l5.4,5.7l1.2-0.9c8.5-6.1,20.2-5.3,27.6,2.1c5.4,5.5,7.5,13.4,5.5,20.9l-6.2-2.1l6.1,14.4
			l13.9-7.4L1597.1,6657.4z"/>
		<path id="패스_3055" class="st2" d="M1579.1,6670c-3.6,2.7-8,4.2-12.6,4.2c-2.5,0-4.9-0.4-7.3-1.3c-10.3-4-16.1-15.1-13.3-25.8
			l6.3,2.4l-6.1-14.6l-13.8,7.1l6.3,2.4c-3.2,10.3-0.4,21.5,7.2,29.1c3.1,3,6.8,5.3,10.8,6.8c3.2,1.1,6.5,1.7,9.9,1.7
			c6.4,0,12.6-2.1,17.7-5.9l1.4-1.1l-5.3-6L1579.1,6670z"/>
		<path id="패스_3026" class="st1" d="M-54.2,6661.9c4.7,3.1,10.2,4.9,15.9,5.2c4,0,6.9-1.6,6.9-5.3c0-4.6-4.7-5-11.1-7.1
			c-6.9-2.3-13.1-5.6-13.1-14.3c0-9.3,7-15,17.5-15c5.3,0,10.5,1.2,15.2,3.6v10.8c-4.6-2.9-9.8-4.5-15.3-4.8c-3.7,0-6.4,1.4-6.4,4.7
			c0,4.4,4.6,4.7,10.6,6.7c7.5,2.5,13.5,6,13.5,14.8c0,9.7-7.4,15.5-18.1,15.5c-5.5,0-10.8-1.3-15.7-3.6V6661.9z"/>
		<rect id="사각형_3654" x="1950.7" y="6626.1" class="st1" width="10.9" height="49.7"/>
		<path id="패스_3052" class="st1" d="M1990.5,6655.7c-3.2-4.3-6.3-8.5-9.3-12.8l-0.1,0.1c0.1,4.7,0.1,9.5,0.1,14.4v18.5h-10.5
			v-49.7h10.3l14.9,20.1c3.2,4.3,6.3,8.5,9.3,12.8l0.1-0.1c-0.1-4.7-0.1-9.5-0.1-14.4v-18.5h10.5v49.7h-10.3L1990.5,6655.7z"/>
		<path id="패스_3053" class="st1" d="M2066.7,6672.4c-5.2,2.7-11,4.1-16.9,4.1c-15.9,0-27.1-10.8-27.1-25.4
			c0-14.7,11.3-25.8,27.2-25.8c5.3,0,10.6,1.3,15.3,3.8v11c-4.4-3.1-9.7-4.8-15-4.9c-10,0-16.5,7.1-16.5,15.9
			c0,8.7,6.2,15.9,16.4,15.9c2.1,0,4.2-0.3,6.1-1.1v-7.5h-8.7v-9.1h19.2V6672.4z"/>
	</g>
</g>
</svg>
