<?xml version="1.0" encoding="utf-8"?>
<!-- Generator: Adobe Illustrator 26.0.3, SVG Export Plug-In . SVG Version: 6.00 Build 0)  -->
<svg version="1.1" id="레이어_1" xmlns="http://www.w3.org/2000/svg" xmlns:xlink="http://www.w3.org/1999/xlink" x="0px"
	 y="0px" viewBox="0 0 2209.2 92.6" style="enable-background:new 0 0 2209.2 92.6;" xml:space="preserve">
<style type="text/css">
	.st0{fill:#FFE972;}
	.st1{fill:#28996E;}
	.st2{fill-rule:evenodd;clip-rule:evenodd;fill:#28996E;}
</style>
<g id="그룹_2513" transform="translate(142.235 -6486.173)">
	<rect id="사각형_3656" x="-142.2" y="6486.3" class="st0" width="2209.1" height="92.3"/>
	<g id="그룹_2512">
		<path id="패스_3056" class="st1" d="M466.6,6543.2c4.7,3.1,10.2,4.9,15.9,5.2c4,0,6.9-1.6,6.9-5.3c0-4.6-4.7-5-11.1-7.1
			c-6.9-2.3-13.1-5.6-13.1-14.3c0-9.3,7-15,17.5-15c5.3,0,10.5,1.2,15.2,3.6l0,10.8c-4.6-2.9-9.8-4.5-15.3-4.8
			c-3.7,0-6.4,1.4-6.4,4.7c0,4.4,4.6,4.7,10.6,6.7c7.5,2.5,13.5,6,13.5,14.8c0,9.7-7.4,15.5-18.1,15.5c-5.5,0-10.8-1.3-15.7-3.6
			L466.6,6543.2z"/>
		<path id="패스_3057" class="st1" d="M504.6,6532.3c0-14.5,11.2-25.6,26-25.6c14.8,0,26,11.1,26,25.6c0,14.5-11.2,25.6-26,25.6
			C515.8,6557.9,504.6,6546.8,504.6,6532.3 M545.6,6532.3c0-8.8-6.5-15.7-15-15.7s-15,6.9-15.1,15.7c0,8.8,6.5,15.7,15,15.7
			S545.6,6541.1,545.6,6532.3"/>
		<path id="패스_3058" class="st1" d="M602.9,6554.7c-4.5,2.2-9.5,3.4-14.6,3.3c-16,0-27.1-11.1-27.1-25.6
			c0-14.4,11.1-25.7,27.1-25.7c4.8,0,9.5,1,13.8,3.1l0,11.1c-4.1-2.7-8.8-4.3-13.7-4.3c-9.6,0-16.2,6.7-16.2,15.7
			c0,8.9,6.4,15.9,16.6,15.9c5.1-0.1,10-1.7,14.1-4.6L602.9,6554.7z"/>
		<rect id="사각형_3657" x="610.2" y="6507.4" class="st1" width="10.9" height="49.8"/>
		<path id="패스_3059" class="st1" d="M646,6507.4l10.6,0l20.2,49.8l-11.7,0l-4-10.4l-20.1,0l-4.1,10.4l-11.2,0L646,6507.4z
			 M644.5,6538.2l13.4,0l-2.1-5.6c-1.4-3.9-3.2-8.9-4.5-12.6h-0.1c-1.3,3.8-3.1,8.7-4.7,12.9L644.5,6538.2z"/>
		<path id="패스_3060" class="st1" d="M681.6,6507.4l10.9,0l0,40.2l21.8,0l0,9.6l-32.7,0L681.6,6507.4z"/>
		<rect id="사각형_3658" x="719.7" y="6507.4" class="st1" width="10.9" height="49.8"/>
		<path id="패스_3061" class="st1" d="M759.3,6517.1l-0.1-0.1l-21.3,0l0-9.6l39.3,0l0.1,0.1l-23.6,39.9l0.1,0.1l22.9,0l0,9.6
			l-40.9,0l-0.1-0.1L759.3,6517.1z"/>
		<rect id="사각형_3659" x="784.3" y="6507.4" class="st1" width="10.9" height="49.8"/>
		<path id="패스_3062" class="st1" d="M824.2,6537.1c-3.2-4.3-6.3-8.5-9.3-12.9l-0.1,0.1c0.1,4.7,0.1,9.6,0.1,14.4l0,18.5l-10.5,0
			l0-49.8l10.3,0l14.9,20.1c3.2,4.3,6.3,8.5,9.3,12.9l0.1-0.1c-0.1-4.7-0.1-9.6-0.1-14.4l0-18.5l10.5,0l0,49.8l-10.3,0L824.2,6537.1
			z"/>
		<path id="패스_3063" class="st1" d="M900.4,6553.8c-5.2,2.7-11,4.1-16.9,4.1c-15.9,0-27.1-10.8-27.1-25.4
			c0-14.7,11.3-25.8,27.2-25.8c5.3,0,10.6,1.3,15.3,3.8l0,11c-4.4-3.1-9.7-4.8-15-4.9c-10,0-16.5,7.1-16.5,15.9
			c0,8.7,6.2,15.9,16.4,15.9c2.1,0,4.2-0.3,6.1-1.1l0-7.5l-8.7,0l0-9.1l19.2,0L900.4,6553.8z"/>
		<path id="패스_3065" class="st1" d="M-57.8,6532.3c0-14.5,11.2-25.6,26-25.6c14.8,0,26,11.1,26,25.6c0,14.5-11.2,25.6-26,25.6
			C-46.6,6557.9-57.8,6546.8-57.8,6532.3 M-16.8,6532.3c0-8.8-6.5-15.7-15-15.7s-15,6.9-15.1,15.7s6.5,15.7,15,15.7
			S-16.8,6541.1-16.8,6532.3"/>
		<path id="패스_3066" class="st1" d="M40.5,6554.7c-4.5,2.2-9.5,3.4-14.6,3.3c-16,0-27.1-11.1-27.1-25.6
			c0-14.4,11.1-25.7,27.1-25.7c4.8,0,9.5,1,13.8,3.1l0,11.1c-4.1-2.7-8.8-4.3-13.7-4.3c-9.6,0-16.2,6.7-16.2,15.7
			c0,8.9,6.4,15.9,16.6,15.9c5.1-0.1,10-1.7,14.1-4.6L40.5,6554.7z"/>
		<rect id="사각형_3660" x="47.8" y="6507.4" class="st1" width="10.9" height="49.8"/>
		<path id="패스_3067" class="st1" d="M83.7,6507.4l10.6,0l20.2,49.8l-11.7,0l-4-10.4l-20.1,0l-4.1,10.4l-11.2,0L83.7,6507.4z
			 M82.1,6538.2l13.4,0l-2.1-5.6c-1.4-3.9-3.2-8.9-4.5-12.6h-0.1c-1.3,3.8-3.1,8.7-4.7,12.9L82.1,6538.2z"/>
		<path id="패스_3068" class="st1" d="M119.2,6507.4l10.9,0l0,40.2l21.8,0l0,9.6l-32.7,0L119.2,6507.4z"/>
		<rect id="사각형_3661" x="157.3" y="6507.4" class="st1" width="10.9" height="49.8"/>
		<path id="패스_3069" class="st1" d="M196.9,6517.1l-0.1-0.1l-21.3,0l0-9.6l39.3,0l0.1,0.1l-23.6,39.9l0.1,0.1l22.9,0l0,9.6
			l-40.9,0l-0.1-0.1L196.9,6517.1z"/>
		<rect id="사각형_3662" x="221.9" y="6507.4" class="st1" width="10.9" height="49.8"/>
		<path id="패스_3070" class="st1" d="M261.8,6537.1c-3.2-4.3-6.3-8.5-9.3-12.9l-0.1,0.1c0.1,4.7,0.1,9.6,0.1,14.4l0,18.5l-10.5,0
			l0-49.8l10.3,0l14.9,20.1c3.2,4.3,6.3,8.5,9.3,12.9l0.1-0.1c-0.1-4.7-0.1-9.6-0.1-14.4l0-18.5l10.5,0l0,49.8l-10.3,0L261.8,6537.1
			z"/>
		<path id="패스_3071" class="st1" d="M338,6553.8c-5.2,2.7-11,4.1-16.9,4.1c-15.9,0-27.1-10.8-27.1-25.4
			c0-14.7,11.3-25.8,27.2-25.8c5.3,0,10.6,1.3,15.3,3.8l0,11c-4.4-3.1-9.7-4.8-15-4.9c-10,0-16.5,7.1-16.5,15.9
			c0,8.7,6.2,15.9,16.4,15.9c2.1,0,4.2-0.3,6.1-1.1l0-7.5l-8.7,0l0-9.1l19.2,0L338,6553.8z"/>
		<path id="패스_3072" class="st1" d="M1029,6543.2c4.7,3.1,10.2,4.9,15.9,5.2c4,0,6.9-1.6,6.9-5.3c0-4.6-4.7-5-11.1-7.1
			c-6.9-2.3-13.1-5.6-13.1-14.3c0-9.3,7-15,17.5-15c5.3,0,10.5,1.2,15.2,3.6l0,10.8c-4.6-2.9-9.8-4.5-15.3-4.8
			c-3.7,0-6.4,1.4-6.4,4.7c0,4.4,4.6,4.7,10.6,6.7c7.5,2.5,13.5,6,13.5,14.8c0,9.7-7.4,15.5-18.1,15.5c-5.5,0-10.8-1.3-15.7-3.6
			L1029,6543.2z"/>
		<path id="패스_3073" class="st1" d="M1066.9,6532.3c0-14.5,11.2-25.6,26-25.6c14.8,0,26,11.1,26,25.6c0,14.5-11.2,25.6-26,25.6
			C1078.1,6557.9,1066.9,6546.8,1066.9,6532.3 M1108,6532.3c0-8.8-6.5-15.7-15-15.7c-8.6,0-15,6.9-15.1,15.7c0,8.8,6.5,15.7,15,15.7
			C1101.5,6548.1,1108,6541.1,1108,6532.3"/>
		<path id="패스_3074" class="st1" d="M1165.3,6554.7c-4.5,2.2-9.5,3.4-14.6,3.3c-16,0-27.1-11.1-27.1-25.6
			c0-14.4,11.1-25.7,27.1-25.7c4.8,0,9.5,1,13.8,3.1l0,11.1c-4.1-2.7-8.8-4.3-13.7-4.3c-9.6,0-16.2,6.7-16.2,15.7
			c0,8.9,6.4,15.9,16.6,15.9c5.1-0.1,10-1.7,14.1-4.6L1165.3,6554.7z"/>
		<rect id="사각형_3663" x="1172.6" y="6507.4" class="st1" width="10.9" height="49.8"/>
		<path id="패스_3075" class="st1" d="M1208.4,6507.4l10.6,0l20.2,49.8l-11.7,0l-4-10.4l-20.1,0l-4.1,10.4l-11.2,0L1208.4,6507.4z
			 M1206.8,6538.2l13.4,0l-2.1-5.6c-1.4-3.9-3.2-8.9-4.5-12.6h-0.1c-1.3,3.8-3.1,8.7-4.7,12.9L1206.8,6538.2z"/>
		<path id="패스_3076" class="st1" d="M1243.9,6507.4l10.9,0l0,40.2l21.8,0l0,9.6l-32.7,0L1243.9,6507.4z"/>
		<rect id="사각형_3664" x="1282.1" y="6507.4" class="st1" width="10.9" height="49.8"/>
		<path id="패스_3077" class="st1" d="M1321.6,6517.1l-0.1-0.1l-21.3,0l0-9.6l39.3,0l0.1,0.1l-23.6,39.9l0.1,0.1l22.9,0l0,9.6
			l-40.9,0l-0.1-0.1L1321.6,6517.1z"/>
		<rect id="사각형_3665" x="1346.7" y="6507.4" class="st1" width="10.9" height="49.8"/>
		<path id="패스_3078" class="st1" d="M1386.6,6537.1c-3.2-4.3-6.3-8.5-9.3-12.9l-0.1,0.1c0.1,4.7,0.1,9.6,0.1,14.4l0,18.5
			l-10.5,0l0-49.8l10.3,0l14.9,20.1c3.2,4.3,6.3,8.5,9.3,12.9l0.1-0.1c-0.1-4.7-0.1-9.6-0.1-14.4l0-18.5l10.5,0l0,49.8l-10.3,0
			L1386.6,6537.1z"/>
		<path id="패스_3079" class="st1" d="M1462.8,6553.8c-5.2,2.7-11,4.1-16.9,4.1c-15.9,0-27.1-10.8-27.1-25.4
			c0-14.7,11.3-25.8,27.2-25.8c5.3,0,10.6,1.3,15.3,3.8l0,11c-4.4-3.1-9.7-4.8-15-4.9c-10,0-16.5,7.1-16.5,15.9
			c0,8.7,6.2,15.9,16.4,15.9c2.1,0,4.2-0.3,6.1-1.1l0-7.5l-8.7,0l0-9.1l19.2,0L1462.8,6553.8z"/>
		<path id="패스_3080" class="st2" d="M430.8,6538.8c4.7-15.4-3.9-31.6-19.3-36.3c-2.8-0.9-5.7-1.3-8.6-1.3
			c-6.4,0-12.6,2.1-17.7,5.9l-1.5,1.1l5.4,5.7l1.2-0.9c8.5-6.1,20.2-5.3,27.6,2.1c5.4,5.5,7.5,13.4,5.5,20.9l-6.2-2.1l6.1,14.4
			l13.9-7.4L430.8,6538.8z"/>
		<path id="패스_3081" class="st2" d="M412.8,6551.4c-3.6,2.7-8,4.2-12.6,4.2c-2.5,0-4.9-0.4-7.3-1.3c-10.3-4-16.1-15.1-13.3-25.8
			l6.3,2.4l-6.1-14.6l-13.8,7.1l6.3,2.4c-3.2,10.3-0.4,21.5,7.2,29.1c3.1,3,6.8,5.3,10.8,6.8c3.2,1.1,6.5,1.7,9.9,1.7
			c6.4,0,12.6-2.1,17.7-5.9l1.4-1.1l-5.3-6L412.8,6551.4z"/>
		<path id="패스_3082" class="st2" d="M993.1,6538.8c4.7-15.4-3.9-31.6-19.3-36.3c-2.8-0.9-5.7-1.3-8.6-1.3
			c-6.4,0-12.6,2.1-17.7,5.9l-1.5,1.1l5.4,5.7l1.2-0.9c8.5-6.1,20.2-5.3,27.6,2.1c5.4,5.5,7.5,13.4,5.5,20.9l-6.2-2.1l6.1,14.4
			l13.9-7.4L993.1,6538.8z"/>
		<path id="패스_3083" class="st2" d="M975.2,6551.4c-3.6,2.7-8,4.2-12.6,4.2c-2.5,0-4.9-0.4-7.3-1.3c-10.3-4-16.1-15.1-13.3-25.8
			l6.3,2.4l-6.1-14.6l-13.8,7.1l6.3,2.4c-3.2,10.3-0.4,21.5,7.2,29.1c3.1,3,6.8,5.3,10.8,6.8c3.2,1.1,6.5,1.7,9.9,1.7
			c6.4,0,12.6-2.1,17.7-5.9l1.4-1.1l-5.3-6L975.2,6551.4z"/>
		<path id="패스_3084" class="st1" d="M1591.3,6543.2c4.7,3.1,10.2,4.9,15.9,5.2c4,0,6.9-1.6,6.9-5.3c0-4.6-4.7-5-11.1-7.1
			c-6.9-2.3-13.1-5.6-13.1-14.3c0-9.3,7-15,17.5-15c5.3,0,10.5,1.2,15.2,3.6l0,10.8c-4.6-2.9-9.8-4.5-15.3-4.8
			c-3.7,0-6.4,1.4-6.4,4.7c0,4.4,4.6,4.7,10.6,6.7c7.5,2.5,13.5,6,13.5,14.8c0,9.7-7.4,15.5-18.1,15.5c-5.5,0-10.8-1.3-15.7-3.6
			L1591.3,6543.2z"/>
		<path id="패스_3085" class="st1" d="M1629.3,6532.3c0-14.5,11.2-25.6,26-25.6c14.8,0,26,11.1,26,25.6c0,14.5-11.2,25.6-26,25.6
			C1640.5,6557.9,1629.3,6546.8,1629.3,6532.3 M1670.4,6532.3c0-8.8-6.5-15.7-15-15.7c-8.6,0-15,6.9-15.1,15.7
			c0,8.8,6.5,15.7,15,15.7C1663.9,6548.1,1670.4,6541.1,1670.4,6532.3"/>
		<path id="패스_3086" class="st1" d="M1727.7,6554.7c-4.5,2.2-9.5,3.4-14.6,3.3c-16,0-27.1-11.1-27.1-25.6
			c0-14.4,11.1-25.7,27.1-25.7c4.8,0,9.5,1,13.8,3.1l0,11.1c-4.1-2.7-8.8-4.3-13.7-4.3c-9.6,0-16.2,6.7-16.2,15.7
			c0,8.9,6.4,15.9,16.6,15.9c5.1-0.1,10-1.7,14.1-4.6L1727.7,6554.7z"/>
		<rect id="사각형_3666" x="1734.9" y="6507.4" class="st1" width="10.9" height="49.8"/>
		<path id="패스_3087" class="st1" d="M1770.8,6507.4l10.6,0l20.2,49.8l-11.7,0l-4-10.4l-20.1,0l-4.1,10.4l-11.2,0L1770.8,6507.4z
			 M1769.2,6538.2l13.4,0l-2.1-5.6c-1.4-3.9-3.2-8.9-4.5-12.6h-0.1c-1.3,3.8-3.1,8.7-4.7,12.9L1769.2,6538.2z"/>
		<path id="패스_3088" class="st1" d="M1806.3,6507.4l10.9,0l0,40.2l21.8,0l0,9.6l-32.7,0L1806.3,6507.4z"/>
		<rect id="사각형_3667" x="1844.5" y="6507.4" class="st1" width="10.9" height="49.8"/>
		<path id="패스_3089" class="st1" d="M1884,6517.1l-0.1-0.1l-21.3,0l0-9.6l39.3,0l0.1,0.1l-23.6,39.9l0.1,0.1l22.9,0l0,9.6
			l-40.9,0l-0.1-0.1L1884,6517.1z"/>
		<rect id="사각형_3668" x="1909.1" y="6507.4" class="st1" width="10.9" height="49.8"/>
		<path id="패스_3090" class="st1" d="M1949,6537.1c-3.2-4.3-6.3-8.5-9.3-12.9l-0.1,0.1c0.1,4.7,0.1,9.6,0.1,14.4l0,18.5l-10.5,0
			l0-49.8l10.3,0l14.9,20.1c3.2,4.3,6.3,8.5,9.3,12.9l0.1-0.1c-0.1-4.7-0.1-9.6-0.1-14.4l0-18.5l10.5,0l0,49.8l-10.3,0L1949,6537.1z
			"/>
		<path id="패스_3091" class="st1" d="M2025.1,6553.8c-5.2,2.7-11,4.1-16.9,4.1c-15.9,0-27.1-10.8-27.1-25.4
			c0-14.7,11.3-25.8,27.2-25.8c5.3,0,10.6,1.3,15.3,3.8l0,11c-4.4-3.1-9.7-4.8-15-5c-10,0-16.5,7.1-16.5,15.9
			c0,8.7,6.2,15.9,16.4,15.9c2.1,0,4.2-0.3,6.1-1.1l0-7.5l-8.7,0l0-9.1l19.2,0L2025.1,6553.8z"/>
		<path id="패스_3092" class="st2" d="M1555.5,6538.8c4.7-15.4-3.9-31.6-19.3-36.3c-2.8-0.9-5.7-1.3-8.6-1.3
			c-6.4,0-12.6,2.1-17.7,5.9l-1.5,1.1l5.4,5.7l1.2-0.9c8.5-6.1,20.2-5.3,27.6,2.1c5.4,5.5,7.5,13.4,5.5,20.9l-6.2-2.1l6.1,14.4
			l13.9-7.4L1555.5,6538.8z"/>
		<path id="패스_3093" class="st2" d="M1537.6,6551.4c-3.6,2.7-8,4.2-12.6,4.2c-2.5,0-4.9-0.4-7.3-1.3
			c-10.3-4-16.1-15.1-13.3-25.8l6.3,2.4l-6.1-14.6l-13.8,7.1l6.3,2.4c-3.2,10.3-0.4,21.5,7.2,29.1c3.1,3,6.8,5.3,10.8,6.8
			c3.2,1.1,6.5,1.7,9.9,1.7c6.4,0,12.6-2.1,17.7-5.9l1.4-1.1l-5.3-6L1537.6,6551.4z"/>
		<path id="패스_3064" class="st1" d="M-95.8,6543.2c4.7,3.1,10.2,4.9,15.9,5.2c4,0,6.9-1.6,6.9-5.3c0-4.6-4.7-5-11.1-7.1
			c-6.9-2.3-13.1-5.6-13.1-14.3c0-9.3,7-15,17.5-15c5.3,0,10.5,1.2,15.2,3.6l0,10.8c-4.6-2.9-9.8-4.5-15.3-4.8
			c-3.7,0-6.4,1.4-6.4,4.7c0,4.4,4.6,4.7,10.6,6.7c7.5,2.5,13.5,6,13.5,14.8c0,9.7-7.4,15.5-18.1,15.5c-5.5,0-10.8-1.3-15.7-3.6
			L-95.8,6543.2z"/>
	</g>
</g>
</svg>
