<?xml version="1.0" encoding="utf-8"?>
<!-- Generator: Adobe Illustrator 24.1.3, SVG Export Plug-In . SVG Version: 6.00 Build 0)  -->
<svg version="1.1" id="레이어_1" xmlns="http://www.w3.org/2000/svg" xmlns:xlink="http://www.w3.org/1999/xlink" x="0px"
	 y="0px" viewBox="0 0 363 411.2" style="enable-background:new 0 0 363 411.2;" xml:space="preserve">
<style type="text/css">
	.st0{fill:#FFD45F;}
</style>
<path id="패스_3155" class="st0" d="M270.9,0.1L270.9,0.1c-42.2,0-79,28.6-89.4,69.6C169.1,20.3,119.1-9.6,69.7,2.8
	C28.8,13.1,0.1,49.9,0.1,92.1L0,318.9c0,50.9,41.2,92.1,92.1,92.2c42.2,0,79-28.6,89.3-69.5c12.4,49.3,62.5,79.3,111.8,66.8
	c40.9-10.3,69.6-47.1,69.6-89.3L363,92.3C363.1,41.4,321.8,0.1,270.9,0.1C270.9,0.1,270.9,0.1,270.9,0.1L270.9,0.1z"/>
</svg>
