<svg xmlns="http://www.w3.org/2000/svg" width="120.417" height="105.027" viewBox="0 0 120.417 105.027">
  <defs>
    <style>
      .cls-1 {
        fill: #8c38c1;
      }
    </style>
  </defs>
  <path id="패스_3443" data-name="패스 3443" class="cls-1" d="M352.547,839.347c-1.994-17.392-13.679-29.345-29.7-30.678q-14.356-1.2-24.982,9.242c-1.776,1.739-3.289,3.8-5.127,5.966-1.839-2.166-3.351-4.227-5.127-5.966q-10.654-10.431-24.982-9.242c-16.02,1.333-27.707,13.286-29.7,30.678a58,58,0,0,0,8.007,36.915c9.7,16.408,23.395,27.476,39.859,34.689a28.512,28.512,0,0,0,23.884,0c16.463-7.213,30.163-18.28,39.859-34.689a58,58,0,0,0,8.008-36.915" transform="translate(-232.53 -808.545)"/>
</svg>
