<svg xmlns="http://www.w3.org/2000/svg" width="16.7" height="12.376" viewBox="0 0 16.7 12.376">
  <defs>
    <style>
      .cls-1 {
        fill: #fff;
      }
    </style>
  </defs>
  <path id="패스_3428" data-name="패스 3428" class="cls-1" d="M139.137,15.615q3.3-1.611,3.3-3.785a3.64,3.64,0,0,1-2.336-1.141,3.229,3.229,0,0,1-.913-2.269,3.212,3.212,0,0,1,.9-2.309,2.975,2.975,0,0,1,2.242-.94,3.356,3.356,0,0,1,2.591,1.222A4.3,4.3,0,0,1,146.01,9.36q0,5.235-5.826,8.188Zm-9.827,0q3.276-1.611,3.275-3.785a3.616,3.616,0,0,1-2.309-1.141,3.229,3.229,0,0,1-.913-2.269,3.238,3.238,0,0,1,.886-2.309,2.933,2.933,0,0,1,2.229-.94,3.4,3.4,0,0,1,2.6,1.222,4.271,4.271,0,0,1,1.1,2.966q0,5.235-5.853,8.188Z" transform="translate(-129.31 -5.172)"/>
</svg>
