<?xml version="1.0" encoding="utf-8"?>
<!-- Generator: Adobe Illustrator 26.0.3, SVG Export Plug-In . SVG Version: 6.00 Build 0)  -->
<svg version="1.1" id="레이어_1" xmlns="http://www.w3.org/2000/svg" xmlns:xlink="http://www.w3.org/1999/xlink" x="0px"
	 y="0px" viewBox="0 0 196 129.8" style="enable-background:new 0 0 196 129.8;" xml:space="preserve">
<style type="text/css">
	.st0{fill:#FFACAC;}
</style>
<path id="패스_3449" class="st0" d="M183,64.9c15.5-13.2,17.4-36.4,4.2-51.9c-13.2-15.5-36.4-17.4-51.9-4.2
	c-2.6,2.2-4.9,4.8-6.8,7.6C117.3-0.6,94.4-5.1,77.5,6.2c-4,2.7-7.4,6.1-10.1,10.1C56.1-0.5,33.2-5,16.3,6.3
	C-0.6,17.6-5.1,40.5,6.2,57.4c1.9,2.8,4.2,5.4,6.8,7.6c-15.5,13.2-17.4,36.4-4.2,51.9c13.2,15.5,36.4,17.4,51.9,4.2
	c2.6-2.2,4.9-4.7,6.8-7.6c11.3,16.9,34.2,21.4,51.1,10.1c4-2.7,7.4-6.1,10.1-10.1c11.3,16.9,34.2,21.4,51.1,10.1
	c16.9-11.3,21.4-34.2,10.1-51.1C187.9,69.6,185.6,67.1,183,64.9"/>
</svg>
