<?xml version="1.0" encoding="utf-8"?>
<!-- Generator: Adobe Illustrator 26.0.3, SVG Export Plug-In . SVG Version: 6.00 Build 0)  -->
<svg version="1.1" id="레이어_1" xmlns="http://www.w3.org/2000/svg" xmlns:xlink="http://www.w3.org/1999/xlink" x="0px"
	 y="0px" viewBox="0 0 16.7 12.4" style="enable-background:new 0 0 16.7 12.4;" xml:space="preserve">
<style type="text/css">
	.st0{fill:#FFEE93;}
</style>
<path id="패스_3427" class="st0" d="M6.9,1.9C4.7,3,3.6,4.3,3.6,5.7c0.9,0.1,1.7,0.5,2.3,1.1c0.6,0.6,0.9,1.4,0.9,2.3
	c0,0.9-0.3,1.7-0.9,2.3c-0.6,0.6-1.4,1-2.2,0.9c-1,0-2-0.4-2.6-1.2C0.4,10.3,0,9.3,0,8.2C0,4.7,1.9,2,5.8,0L6.9,1.9z M16.7,1.9
	c-2.2,1.1-3.3,2.3-3.3,3.8c0.9,0.1,1.7,0.5,2.3,1.1c0.6,0.6,0.9,1.4,0.9,2.3c0,0.9-0.3,1.7-0.9,2.3c-0.6,0.6-1.4,1-2.2,0.9
	c-1,0-2-0.5-2.6-1.2c-0.7-0.8-1.1-1.9-1.1-3c0-3.5,2-6.2,5.9-8.2L16.7,1.9z"/>
</svg>
