<?xml version="1.0" encoding="utf-8"?>
<!-- Generator: Adobe Illustrator 26.0.3, SVG Export Plug-In . SVG Version: 6.00 Build 0)  -->
<svg version="1.1" id="레이어_1" xmlns="http://www.w3.org/2000/svg" xmlns:xlink="http://www.w3.org/1999/xlink" x="0px"
	 y="0px" viewBox="0 0 374.6 374.6" style="enable-background:new 0 0 374.6 374.6;" xml:space="preserve">
<style type="text/css">
	.st0{fill:#F07B31;}
</style>
<path id="패스_3437" class="st0" d="M339.3,234.1l27.2-27.1c10.8-10.8,10.8-28.3,0-39.1l-27.1-27.2c-10.8-10.8-10.8-28.3,0-39.1
	l0,0l27.2-27.1c10.8-10.8,10.8-28.3,0-39.1L339.4,8.2c-10.8-10.8-28.3-10.8-39.1,0l-27.2,27.1c-10.8,10.8-28.3,10.8-39.1,0
	L206.9,8.2c-10.8-10.8-28.3-10.8-39.1,0l-27.2,27.1c-10.8,10.8-28.3,10.8-39.1,0L74.5,8.1C63.7-2.7,46.2-2.7,35.4,8.1L8.2,35.2
	C-2.6,46-2.6,63.5,8.2,74.3c0,0,0,0,0,0l27.1,27.2c10.8,10.8,10.8,28.3,0,39.1L8.2,167.7c-10.8,10.8-10.8,28.3,0,39.1l27.1,27.2
	c10.8,10.8,10.8,28.3,0,39.1L8.1,300.2c-10.8,10.8-10.8,28.3,0,39.1c0,0,0,0,0,0l0,0l27.1,27.2c10.8,10.8,28.3,10.8,39.1,0
	l27.2-27.1c10.8-10.8,28.3-10.8,39.1,0c0,0,0,0,0,0l0,0l27.1,27.2c10.8,10.8,28.3,10.8,39.1,0l27.2-27.1c10.8-10.8,28.3-10.8,39.1,0
	l27.1,27.2c10.8,10.8,28.3,10.8,39.1,0l27.2-27.1c10.8-10.8,10.8-28.3,0-39.1c0,0,0,0,0,0l-27.1-27.2
	C328.5,262.4,328.5,244.9,339.3,234.1"/>
</svg>
