<svg xmlns="http://www.w3.org/2000/svg" width="16.7" height="12.376" viewBox="0 0 16.7 12.376">
  <defs>
    <style>
      .cls-1 {
        fill: #ffe17b;
      }
    </style>
  </defs>
  <path id="패스_3427" data-name="패스 3427" class="cls-1" d="M6.873,1.933q-3.3,1.611-3.3,3.785A3.64,3.64,0,0,1,5.907,6.859a3.229,3.229,0,0,1,.913,2.269,3.212,3.212,0,0,1-.9,2.309,2.976,2.976,0,0,1-2.242.94,3.356,3.356,0,0,1-2.591-1.222A4.3,4.3,0,0,1,0,8.188Q0,2.953,5.826,0Zm9.827,0q-3.276,1.611-3.276,3.785a3.616,3.616,0,0,1,2.309,1.141,3.228,3.228,0,0,1,.913,2.269,3.238,3.238,0,0,1-.886,2.309,2.933,2.933,0,0,1-2.229.94,3.4,3.4,0,0,1-2.6-1.222,4.272,4.272,0,0,1-1.1-2.966q0-5.235,5.853-8.188Z" transform="translate(0)"/>
</svg>
