<?xml version="1.0" encoding="utf-8"?>
<!-- Generator: Adobe Illustrator 26.0.3, SVG Export Plug-In . SVG Version: 6.00 Build 0)  -->
<svg version="1.1" id="레이어_1" xmlns="http://www.w3.org/2000/svg" xmlns:xlink="http://www.w3.org/1999/xlink" x="0px"
	 y="0px" viewBox="0 0 411.1 411.1" style="enable-background:new 0 0 411.1 411.1;" xml:space="preserve">
<style type="text/css">
	.st0{fill:#037B5B;}
</style>
<path id="패스_3153" class="st0" d="M411.1,205.6c0-31.6-25.6-57.2-57.1-57.2c-5.3,0-10.5,0.7-15.5,2.1
	c27.6-15.4,37.4-50.2,22-77.8s-50.2-37.4-77.8-22c-9.2,5.1-16.8,12.7-22,21.9c8.6-30.4-9.1-62-39.5-70.6s-62,9.1-70.6,39.5
	c-2.9,10.1-2.9,20.9,0,31c-15.4-27.6-50.2-37.4-77.8-22s-37.4,50.2-22,77.8c5.1,9.2,12.7,16.8,21.9,22c-30.4-8.6-62,9.1-70.6,39.5
	s9.1,62,39.5,70.6c10.2,2.9,20.9,2.9,31,0c-27.6,15.4-37.4,50.2-22,77.8c15.4,27.6,50.2,37.4,77.8,22c9.2-5.1,16.8-12.7,22-21.9
	c-8.6,30.4,9.1,62,39.5,70.6s62-9.1,70.6-39.5c2.9-10.1,2.9-20.9,0-31c15.4,27.6,50.2,37.4,77.8,22c27.6-15.4,37.4-50.2,22-77.8
	c-5.2-9.2-12.8-16.8-22-22c30.4,8.6,62-9.1,70.6-39.5C410.3,216.1,411.1,210.9,411.1,205.6"/>
</svg>
