<?xml version="1.0" encoding="utf-8"?>
<!-- Generator: Adobe Illustrator 26.0.3, SVG Export Plug-In . SVG Version: 6.00 Build 0)  -->
<svg version="1.1" id="레이어_1" xmlns="http://www.w3.org/2000/svg" xmlns:xlink="http://www.w3.org/1999/xlink" x="0px"
	 y="0px" viewBox="0 0 16.7 12.4" style="enable-background:new 0 0 16.7 12.4;" xml:space="preserve">
<style type="text/css">
	.st0{fill:#FFEE93;}
</style>
<path id="패스_3428" class="st0" d="M9.8,10.4c2.2-1.1,3.3-2.3,3.3-3.8c-0.9-0.1-1.7-0.5-2.3-1.1c-0.6-0.6-0.9-1.4-0.9-2.3
	c0-0.9,0.3-1.7,0.9-2.3C11.4,0.3,12.2,0,13,0c1,0,2,0.4,2.6,1.2c0.7,0.8,1.1,1.9,1.1,3c0,3.5-1.9,6.2-5.8,8.2L9.8,10.4z M0,10.4
	c2.2-1.1,3.3-2.3,3.3-3.8C2.4,6.6,1.6,6.2,1,5.5C0.4,4.9,0,4.1,0.1,3.2c0-0.9,0.3-1.7,0.9-2.3C1.5,0.3,2.3,0,3.2,0
	c1,0,2,0.5,2.6,1.2c0.7,0.8,1.1,1.9,1.1,3c0,3.5-2,6.2-5.9,8.2L0,10.4z"/>
</svg>
