<?xml version="1.0" encoding="utf-8"?>
<!-- Generator: Adobe Illustrator 26.0.3, SVG Export Plug-In . SVG Version: 6.00 Build 0)  -->
<svg version="1.1" id="레이어_1" xmlns="http://www.w3.org/2000/svg" xmlns:xlink="http://www.w3.org/1999/xlink" x="0px"
	 y="0px" viewBox="0 0 629.9 69" style="enable-background:new 0 0 629.9 69;" xml:space="preserve">
<style type="text/css">
	.st0{fill:#233E52;}
	.st1{fill:#95D070;}
	.st2{fill:#FFDF69;}
</style>
<g>
	<g>
		<path class="st0" d="M385.1,22.6h-14.8c-0.6,0-1.1,0.2-1.5,0.5c0.5-6.2,1.9-7.7,2.5-7.7c0.3,0,1.2,0,1.9,3.9
			c0.3,1.5,1.7,2.4,3.2,2.1c0.1,0,0.3-0.1,0.4-0.1l8.9-3.3c1.3-0.5,2-1.8,1.7-3.2C385.1,5.5,379.1,0,371.2,0
			c-12.4,0-19.5,10.3-19.5,28.3s7.1,28.3,19.5,28.3c6.5,0,11.4-2.4,15.9-7.8c0.4-0.5,0.6-1.1,0.6-1.7V25.3
			C387.8,23.8,386.6,22.6,385.1,22.6 M372.6,40.9c-0.4,0.2-0.9,0.3-1.4,0.3c-0.4,0-1.3-0.8-1.9-3.6c0.3,0.1,0.6,0.2,0.9,0.2h2.3
			L372.6,40.9z"/>
		<path class="st0" d="M446.3,0c-11.2,0-18.2,8.9-19.3,24.1C425.9,8.9,418.9,0,407.8,0c-12.2,0-19.5,10.6-19.5,28.3
			s7.3,28.3,19.5,28.3c11.1,0,18.2-8.9,19.2-24.1c1.1,15.2,8.1,24.1,19.3,24.1c12.1,0,19.4-10.6,19.4-28.3S458.5,0,446.3,0
			 M407.8,41.2c-0.6,0-2.6-2.2-2.6-12.9c0-10.6,1.9-12.9,2.6-12.9c0.7,0,2.6,2.4,2.6,12.9C410.3,40.6,407.8,41.2,407.8,41.2
			 M446.3,41.2c-0.6,0-2.6-2.2-2.6-12.9c0-10.6,1.9-12.9,2.6-12.9c0.7,0,2.6,2.4,2.6,12.9C448.9,40.6,446.3,41.2,446.3,41.2"/>
		<path class="st0" d="M483.5,0.8h-13.7c-1.5,0-2.7,1.2-2.7,2.7V53c0,1.5,1.2,2.7,2.7,2.7h13.9c13.1,0,20.6-10,20.6-27.4
			C504.2,11.1,496.5,0.8,483.5,0.8 M483.7,40.5V16c3.3,0.2,3.7,8.6,3.7,12.3C487.4,35.8,486,40.3,483.7,40.5"/>
		<path class="st0" d="M544.6,40.5h-9.4V3.5c0-1.5-1.2-2.7-2.7-2.7c0,0,0,0,0,0h-11.2c-1.5,0-2.7,1.2-2.7,2.7V53
			c0,1.5,1.2,2.7,2.7,2.7h23.3c1.5,0,2.7-1.2,2.7-2.7v-9.8C547.3,41.7,546.1,40.5,544.6,40.5"/>
		<path class="st0" d="M562.2,0.8H551c-1.5,0-2.7,1.2-2.7,2.7V53c0,1.5,1.2,2.7,2.7,2.7h11.2c1.5,0,2.7-1.2,2.7-2.7V3.5
			C564.9,2,563.7,0.8,562.2,0.8C562.2,0.8,562.2,0.8,562.2,0.8"/>
		<path class="st0" d="M593.9,0.8h-23.3c-1.5,0-2.7,1.2-2.7,2.7V53c0,1.5,1.2,2.7,2.7,2.7h11.2c1.5,0,2.7-1.2,2.7-2.7V35.4h8.9
			c1.5,0,2.7-1.2,2.7-2.7v-9.8c0-1.5-1.2-2.7-2.7-2.7h-8.9V16h9.4c1.5,0,2.7-1.2,2.7-2.7V3.5C596.6,2,595.4,0.8,593.9,0.8
			C593.9,0.8,593.9,0.8,593.9,0.8"/>
		<path class="st0" d="M624.1,16c1.5,0,2.7-1.2,2.7-2.7V3.5c0-1.5-1.2-2.7-2.7-2.7c0,0,0,0,0,0h-23.3c-1.5,0-2.7,1.2-2.7,2.7V53
			c0,1.5,1.2,2.7,2.7,2.7h23.3c1.5,0,2.7-1.2,2.7-2.7v-9.8c0-1.5-1.2-2.7-2.7-2.7h-9.4v-5h8.9c1.5,0,2.7-1.2,2.7-2.7v-9.8
			c0-1.5-1.2-2.7-2.7-2.7h-8.9V16H624.1z"/>
		<path class="st0" d="M388.2,25.7h-14.8c-0.6,0-1.1,0.2-1.5,0.5c0.5-6.2,1.9-7.7,2.5-7.7c0.3,0,1.2,0,1.9,3.9
			c0.3,1.5,1.7,2.4,3.2,2.1c0.1,0,0.3-0.1,0.4-0.1l8.9-3.3c1.3-0.5,2-1.8,1.7-3.2c-2.3-9.3-8.3-14.8-16.1-14.8
			c-12.4,0-19.5,10.3-19.5,28.3s7.1,28.3,19.5,28.3c6.5,0,11.4-2.4,15.9-7.8c0.4-0.5,0.6-1.1,0.6-1.7V28.4
			C390.9,26.9,389.7,25.7,388.2,25.7 M375.7,44c-0.4,0.2-0.9,0.3-1.4,0.3c-0.4,0-1.3-0.8-1.9-3.6c0.3,0.1,0.6,0.2,0.9,0.2h2.3
			L375.7,44z"/>
		<path class="st0" d="M449.4,3.1c-11.2,0-18.2,8.9-19.3,24.1C429,12,422,3.1,410.9,3.1c-12.2,0-19.5,10.6-19.5,28.3
			s7.3,28.3,19.5,28.3c11.1,0,18.2-8.9,19.2-24.1c1.1,15.2,8.1,24.1,19.3,24.1c12.1,0,19.4-10.6,19.4-28.3S461.6,3.1,449.4,3.1
			 M410.9,44.3c-0.6,0-2.6-2.2-2.6-12.9c0-10.6,1.9-12.9,2.6-12.9c0.7,0,2.6,2.4,2.6,12.9C413.4,43.8,410.9,44.3,410.9,44.3
			 M449.4,44.3c-0.6,0-2.6-2.2-2.6-12.9c0-10.6,1.9-12.9,2.6-12.9c0.7,0,2.6,2.4,2.6,12.9C452,43.8,449.5,44.3,449.4,44.3"/>
		<path class="st0" d="M486.6,3.9h-13.7c-1.5,0-2.7,1.2-2.7,2.7v49.4c0,1.5,1.2,2.7,2.7,2.7h13.9c13.1,0,20.6-10,20.6-27.4
			C507.4,14.2,499.6,3.9,486.6,3.9 M486.8,43.6V19.1c3.3,0.2,3.7,8.6,3.7,12.3C490.5,38.9,489.1,43.4,486.8,43.6"/>
		<path class="st0" d="M547.7,43.6h-9.4v-37c0-1.5-1.2-2.7-2.7-2.7h-11.2c-1.5,0-2.7,1.2-2.7,2.7v49.4c0,1.5,1.2,2.7,2.7,2.7h23.3
			c1.5,0,2.7-1.2,2.7-2.7v-9.8C550.4,44.8,549.2,43.6,547.7,43.6"/>
		<path class="st0" d="M565.3,3.9h-11.2c-1.5,0-2.7,1.2-2.7,2.7v49.4c0,1.5,1.2,2.7,2.7,2.7h11.2c1.5,0,2.7-1.2,2.7-2.7V6.6
			C568,5.1,566.8,3.9,565.3,3.9"/>
		<path class="st0" d="M597,3.9h-23.3c-1.5,0-2.7,1.2-2.7,2.7v49.4c0,1.5,1.2,2.7,2.7,2.7h11.2c1.5,0,2.7-1.2,2.7-2.7V38.5h8.9
			c1.5,0,2.7-1.2,2.7-2.7V26c0-1.5-1.2-2.7-2.7-2.7h-8.9v-4.2h9.4c1.5,0,2.7-1.2,2.7-2.7V6.6C599.7,5.1,598.5,3.9,597,3.9"/>
		<path class="st0" d="M627.2,19.1c1.5,0,2.7-1.2,2.7-2.7V6.6c0-1.5-1.2-2.7-2.7-2.7h-23.3c-1.5,0-2.7,1.2-2.7,2.7v49.4
			c0,1.5,1.2,2.7,2.7,2.7h23.3c1.5,0,2.7-1.2,2.7-2.7v-9.8c0-1.5-1.2-2.7-2.7-2.7h-9.4v-5h8.9c1.5,0,2.7-1.2,2.7-2.7V26
			c0-1.5-1.2-2.7-2.7-2.7h-8.9v-4.2H627.2z"/>
	</g>
	<g>
		<path class="st1" d="M370.3,35.1h5v7c-1,1.3-2.5,2-4.1,1.9c-3.1,0-5.4-4.1-5.4-15.6c0-11.6,2.3-15.6,5.4-15.6
			c2.8,0,3.9,2.7,4.6,6.1l8.9-3.3c-1.7-7-6.1-12.8-13.5-12.8c-11.5,0-16.8,10.4-16.8,25.6c0,15.1,5.3,25.6,16.8,25.6
			c6.2,0,10.2-2.5,13.9-6.8V25.3h-14.8V35.1z"/>
		<path class="st1" d="M407.8,2.7c-11.6,0-16.8,10.8-16.8,25.6s5.2,25.6,16.8,25.6s16.7-10.8,16.7-25.6S419.3,2.7,407.8,2.7
			 M407.8,43.9c-3.9,0-5.3-6.6-5.3-15.6c0-9.2,1.4-15.6,5.3-15.6s5.3,6.4,5.3,15.6C413,37.3,411.7,43.9,407.8,43.9"/>
		<path class="st1" d="M446.3,2.7c-11.6,0-16.8,10.8-16.8,25.6s5.2,25.6,16.8,25.6S463,43,463,28.3S457.9,2.7,446.3,2.7 M446.3,43.9
			c-3.9,0-5.3-6.6-5.3-15.6c0-9.2,1.4-15.6,5.3-15.6s5.3,6.4,5.3,15.6C451.6,37.3,450.2,43.9,446.3,43.9"/>
		<path class="st1" d="M483.5,3.5h-13.7V53h13.9c12.8,0,17.9-10.6,17.9-24.7C501.5,14.3,496.3,3.5,483.5,3.5 M483.6,43.2H481V13.3
			h2.6c4.2,0,6.5,4.5,6.5,15C490.1,38.3,487.8,43.2,483.6,43.2"/>
		<path class="st1" d="M532.5,3.5h-11.2V53h23.3v-9.8h-12.1V3.5z"/>
		<path class="st1" d="M551,3.5h11.2V53H551V3.5z"/>
		<path class="st1" d="M570.6,53h11.2V32.7h11.6v-9.8h-11.6v-9.6h12.1V3.5h-23.3V53z"/>
		<path class="st1" d="M624.1,13.3V3.5h-23.3V53h23.3v-9.8H612V32.7h11.6v-9.8H612v-9.6H624.1z"/>
	</g>
</g>
<g>
	<g>
		<path class="st0" d="M33.4,22.6H18.6c-0.6,0-1.1,0.2-1.5,0.5c0.5-6.2,1.9-7.7,2.5-7.7c0.3,0,1.2,0,1.9,3.9
			c0.3,1.5,1.7,2.4,3.2,2.1c0.1,0,0.3-0.1,0.4-0.1L34,18c1.3-0.5,2-1.8,1.7-3.2C33.4,5.5,27.4,0,19.5,0C7.1,0,0,10.3,0,28.3
			s7.1,28.3,19.5,28.3c6.5,0,11.4-2.4,15.9-7.8c0.4-0.5,0.6-1.1,0.6-1.7V25.3C36.1,23.8,34.9,22.6,33.4,22.6 M20.9,40.9
			c-0.4,0.2-0.9,0.3-1.4,0.3c-0.4,0-1.3-0.8-1.9-3.6c0.3,0.1,0.6,0.2,0.9,0.2h2.3V40.9z"/>
		<path class="st0" d="M94.6,0C83.4,0,76.4,8.9,75.3,24.1C74.2,8.9,67.2,0,56.1,0C43.9,0,36.6,10.6,36.6,28.3s7.3,28.3,19.5,28.3
			c11.1,0,18.2-8.9,19.2-24.1c1.1,15.2,8.1,24.1,19.3,24.1c12.1,0,19.4-10.6,19.4-28.3S106.8,0,94.6,0 M56.1,41.2
			c-0.6,0-2.6-2.2-2.6-12.9c0-10.6,1.9-12.9,2.6-12.9c0.7,0,2.6,2.4,2.6,12.9C58.6,40.7,56.1,41.2,56.1,41.2 M94.6,41.2
			c-0.6,0-2.6-2.2-2.6-12.9c0-10.6,1.9-12.9,2.6-12.9c0.7,0,2.6,2.4,2.6,12.9C97.2,40.7,94.6,41.2,94.6,41.2"/>
		<path class="st0" d="M131.8,0.8h-13.7c-1.5,0-2.7,1.2-2.7,2.7c0,0,0,0,0,0V53c0,1.5,1.2,2.7,2.7,2.7l0,0H132
			c13.1,0,20.6-10,20.6-27.4C152.5,11.1,144.8,0.8,131.8,0.8 M132,40.5V16c3.3,0.2,3.7,8.6,3.7,12.3C135.7,35.8,134.3,40.3,132,40.5
			"/>
		<path class="st0" d="M186.7,20.9c-2.4-1.6-4.4-3-4.4-4.2c0-0.9,0.4-1.3,1.2-1.3c2,0,3.9,0.7,5.3,2.2c0.5,0.5,1.2,0.8,1.9,0.8
			c0.2,0,0.3,0,0.5,0c0.9-0.1,1.6-0.7,2-1.5l4.2-8.7c0.5-1.1,0.3-2.4-0.6-3.2c-3.7-3.3-8.6-5-13.5-4.9c-4.9-0.2-9.7,1.8-13.1,5.3
			c-3,3.3-4.6,7.5-4.5,11.9c0,10.5,6.5,14.7,11.3,17.8c3,1.9,4.6,3.1,4.6,4.6c0,1.1-0.5,1.6-1.5,1.6c-2.4,0-4.8-1.1-6.4-2.9
			c-0.5-0.6-1.3-1-2.1-1c-0.1,0-0.2,0-0.3,0c-0.9,0.1-1.7,0.6-2.1,1.4l-4.7,8.7c-0.6,1.1-0.4,2.3,0.5,3.2c4,4,9.1,5.9,15.8,5.9
			c10.3,0,17.5-7.3,17.5-17.7C198.1,28.5,191.5,24.1,186.7,20.9"/>
		<path class="st0" d="M225.2,40.5h-9.4v-37c0-1.5-1.2-2.7-2.7-2.7c0,0,0,0,0,0h-11.2c-1.5,0-2.7,1.2-2.7,2.7c0,0,0,0,0,0V53
			c0,1.5,1.2,2.7,2.7,2.7l0,0h23.3c1.5,0,2.7-1.2,2.7-2.7l0,0v-9.8C227.9,41.7,226.7,40.5,225.2,40.5L225.2,40.5"/>
		<path class="st0" d="M254.9,0.8h-23.3c-1.5,0-2.7,1.2-2.7,2.7V53c0,1.5,1.2,2.7,2.7,2.7l0,0h23.3c1.5,0,2.7-1.2,2.7-2.7l0,0v-9.8
			c0-1.5-1.2-2.7-2.7-2.7l0,0h-9.4v-5h8.9c1.5,0,2.7-1.2,2.7-2.7l0,0v-9.8c0-1.5-1.2-2.7-2.7-2.7l0,0h-8.9V16h9.4
			c1.5,0,2.7-1.2,2.7-2.7c0,0,0,0,0,0V3.5C257.6,2,256.4,0.8,254.9,0.8L254.9,0.8"/>
		<path class="st0" d="M285.4,0.8h-23.3c-1.5,0-2.7,1.2-2.7,2.7c0,0,0,0,0,0V53c0,1.5,1.2,2.7,2.7,2.7l0,0h23.3
			c1.5,0,2.7-1.2,2.7-2.7l0,0v-9.8c0-1.5-1.2-2.7-2.7-2.7l0,0H276v-5h8.9c1.5,0,2.7-1.2,2.7-2.7l0,0v-9.8c0-1.5-1.2-2.7-2.7-2.7l0,0
			H276V16h9.4c1.5,0,2.7-1.2,2.7-2.7c0,0,0,0,0,0V3.5C288.1,2,286.9,0.8,285.4,0.8C285.4,0.8,285.4,0.8,285.4,0.8"/>
		<path class="st0" d="M325.3,19.6c0-9.4-5.5-18.8-17.8-18.8h-14.9c-1.5,0-2.7,1.2-2.7,2.7c0,0,0,0,0,0V53c0,1.5,1.2,2.7,2.7,2.7
			l0,0h11.2c1.5,0,2.7-1.2,2.7-2.7l0,0V38.3h1C318.2,38.3,325.3,30.8,325.3,19.6 M306.6,23.1V16c1.3,0.1,1.9,1.3,1.9,3.5
			C308.5,21.8,307.8,23,306.6,23.1"/>
		<path class="st0" d="M328.2,38.5c-4.9,0-8.9,4-8.9,8.9c-0.1,3.4,1.9,6.4,5,7.7c-0.8,0.9-1.7,1.7-2.7,2.3c-1.3,0.7-1.8,2.3-1.1,3.7
			c0.2,0.3,0.4,0.6,0.7,0.9l4.3,3.4c0.9,0.7,2.3,0.8,3.2,0.1c5.7-4,9-9.9,9-16.2C337.8,42.2,333,38.5,328.2,38.5"/>
		<path class="st0" d="M36.5,25.7H21.7c-0.6,0-1.1,0.2-1.5,0.5c0.5-6.2,1.9-7.7,2.5-7.7c0.3,0,1.2,0,1.9,3.9
			c0.3,1.5,1.7,2.4,3.2,2.1c0.1,0,0.3-0.1,0.4-0.1l8.9-3.3c1.3-0.5,2-1.8,1.7-3.2C36.5,8.7,30.5,3.1,22.6,3.1
			C10.2,3.1,3.1,13.4,3.1,31.4s7.1,28.3,19.5,28.3c6.5,0,11.4-2.4,15.9-7.8c0.4-0.5,0.6-1.1,0.6-1.7V28.4
			C39.2,26.9,38,25.7,36.5,25.7 M24,44.1c-0.4,0.2-0.9,0.3-1.4,0.3c-0.4,0-1.3-0.8-1.9-3.6c0.3,0.1,0.6,0.2,0.9,0.2H24L24,44.1z"/>
		<path class="st0" d="M97.7,3.1c-11.2,0-18.2,8.9-19.3,24.1C77.3,12,70.3,3.1,59.2,3.1C47,3.1,39.7,13.7,39.7,31.4
			S47,59.7,59.2,59.7c11.1,0,18.2-8.9,19.2-24.1c1.1,15.2,8.1,24.1,19.3,24.1c12.1,0,19.4-10.6,19.4-28.3S109.9,3.1,97.7,3.1
			 M59.2,44.3c-0.6,0-2.6-2.2-2.6-12.9c0-10.6,1.9-12.9,2.6-12.9c0.7,0,2.6,2.4,2.6,12.9C61.7,43.8,59.2,44.3,59.2,44.3 M97.7,44.3
			c-0.6,0-2.6-2.2-2.6-12.9c0-10.6,1.9-12.9,2.6-12.9c0.7,0,2.6,2.4,2.6,12.9C100.3,43.8,97.8,44.3,97.7,44.3"/>
		<path class="st0" d="M134.9,3.9h-13.7c-1.5,0-2.7,1.2-2.7,2.7c0,0,0,0,0,0v49.4c0,1.5,1.2,2.7,2.7,2.7l0,0h13.9
			c13.1,0,20.6-10,20.6-27.4C155.7,14.2,147.9,3.9,134.9,3.9 M135.1,43.6V19.1c3.3,0.2,3.7,8.6,3.7,12.3
			C138.8,38.9,137.5,43.4,135.1,43.6"/>
		<path class="st0" d="M189.8,24c-2.4-1.6-4.4-3-4.4-4.2c0-0.9,0.4-1.3,1.2-1.3c2,0,3.9,0.7,5.3,2.2c0.5,0.5,1.2,0.8,1.9,0.8
			c0.2,0,0.3,0,0.5,0c0.9-0.1,1.6-0.7,2-1.5l4.2-8.7c0.5-1.1,0.3-2.4-0.6-3.2c-3.7-3.3-8.6-5-13.5-4.9c-4.9-0.2-9.7,1.8-13.1,5.3
			c-3,3.3-4.6,7.5-4.5,11.9c0,10.5,6.5,14.7,11.3,17.8c3,1.9,4.6,3.1,4.6,4.6c0,1.1-0.5,1.6-1.5,1.6c-2.4,0-4.8-1.1-6.4-2.9
			c-0.5-0.6-1.3-1-2.1-1c-0.1,0-0.2,0-0.3,0c-0.9,0.1-1.7,0.6-2.1,1.4l-4.7,8.7c-0.6,1.1-0.4,2.3,0.5,3.2c4,4,9.1,5.9,15.8,5.9
			c10.3,0,17.5-7.3,17.5-17.7C201.2,31.6,194.6,27.2,189.8,24"/>
		<path class="st0" d="M228.3,43.6H219v-37c0-1.5-1.2-2.7-2.7-2.7l0,0h-11.2c-1.5,0-2.7,1.2-2.7,2.7c0,0,0,0,0,0v49.4
			c0,1.5,1.2,2.7,2.7,2.7l0,0h23.3c1.5,0,2.7-1.2,2.7-2.7l0,0v-9.8C231,44.8,229.8,43.6,228.3,43.6L228.3,43.6"/>
		<path class="st0" d="M258,3.9h-23.3c-1.5,0-2.7,1.2-2.7,2.7v0v49.4c0,1.5,1.2,2.7,2.7,2.7l0,0H258c1.5,0,2.7-1.2,2.7-2.7l0,0v-9.8
			c0-1.5-1.2-2.7-2.7-2.7l0,0h-9.4v-5h8.9c1.5,0,2.7-1.2,2.7-2.7l0,0v-9.8c0-1.5-1.2-2.7-2.7-2.7l0,0h-8.9v-4.2h9.4
			c1.5,0,2.7-1.2,2.7-2.7v0V6.6C260.7,5.1,259.5,3.9,258,3.9L258,3.9"/>
		<path class="st0" d="M288.5,3.9h-23.3c-1.5,0-2.7,1.2-2.7,2.7v0v49.4c0,1.5,1.2,2.7,2.7,2.7l0,0h23.3c1.5,0,2.7-1.2,2.7-2.7l0,0
			v-9.8c0-1.5-1.2-2.7-2.7-2.7l0,0h-9.4v-5h8.9c1.5,0,2.7-1.2,2.7-2.7l0,0v-9.8c0-1.5-1.2-2.7-2.7-2.7l0,0h-8.9v-4.2h9.4
			c1.5,0,2.7-1.2,2.7-2.7v0V6.6C291.2,5.1,290,3.9,288.5,3.9L288.5,3.9"/>
		<path class="st0" d="M328.4,22.7c0-9.4-5.5-18.8-17.8-18.8h-14.9c-1.5,0-2.7,1.2-2.7,2.7c0,0,0,0,0,0v49.4c0,1.5,1.2,2.7,2.7,2.7
			l0,0H307c1.5,0,2.7-1.2,2.7-2.7l0,0V41.4h1C321.3,41.4,328.4,33.9,328.4,22.7 M309.7,26.2v-7.1c1.3,0.1,1.9,1.3,1.9,3.5
			C311.6,24.9,311,26.1,309.7,26.2"/>
		<path class="st0" d="M331.4,41.7c-4.9,0-8.9,4-8.9,8.9c-0.1,3.4,1.9,6.4,5,7.7c-0.8,0.9-1.7,1.7-2.7,2.3c-1.3,0.7-1.8,2.3-1.1,3.7
			c0.2,0.3,0.4,0.6,0.7,0.9l4.3,3.4c0.9,0.7,2.3,0.8,3.2,0.1c5.7-4,9-9.9,9-16.2C340.9,45.3,336.1,41.7,331.4,41.7"/>
	</g>
	<g>
		<path class="st2" d="M18.6,35.1h5v7c-1,1.3-2.5,2-4.1,1.9c-3.1,0-5.4-4.1-5.4-15.6c0-11.6,2.3-15.6,5.4-15.6
			c2.8,0,3.9,2.7,4.6,6.1l8.9-3.3c-1.7-7-6.1-12.8-13.5-12.8C8,2.7,2.7,13.1,2.7,28.3c0,15.1,5.3,25.6,16.8,25.6
			c6.2,0,10.2-2.5,13.9-6.8V25.3H18.6V35.1z"/>
		<path class="st2" d="M56.1,2.7c-11.6,0-16.8,10.8-16.8,25.6s5.2,25.6,16.8,25.6S72.8,43,72.8,28.3S67.6,2.7,56.1,2.7 M56.1,43.9
			c-3.9,0-5.3-6.6-5.3-15.6c0-9.2,1.4-15.6,5.3-15.6s5.3,6.4,5.3,15.6C61.3,37.3,60,43.9,56.1,43.9"/>
		<path class="st2" d="M94.6,2.7c-11.6,0-16.8,10.8-16.8,25.6s5.2,25.6,16.8,25.6s16.7-10.8,16.7-25.6S106.2,2.7,94.6,2.7
			 M94.6,43.9c-3.9,0-5.3-6.6-5.3-15.6c0-9.2,1.4-15.6,5.3-15.6s5.3,6.4,5.3,15.6C99.9,37.3,98.5,43.9,94.6,43.9"/>
		<path class="st2" d="M131.8,3.5h-13.7V53H132c12.8,0,17.9-10.6,17.9-24.7C149.8,14.3,144.6,3.5,131.8,3.5 M131.9,43.2h-2.6V13.3
			h2.6c4.2,0,6.5,4.5,6.5,15C138.4,38.3,136.1,43.2,131.9,43.2"/>
		<path class="st2" d="M179.6,16.6c-0.1-2.1,1.5-3.9,3.6-4c0.1,0,0.2,0,0.3,0c2.7,0,5.3,1,7.2,3l4.2-8.7c-3.2-2.8-7.4-4.3-11.7-4.2
			c-9.8,0-15,7-15,14.5c0,15.3,15.9,14.9,15.9,22.4c0.1,2.2-1.6,4.2-3.8,4.3c-0.1,0-0.3,0-0.4,0c-3.3,0-6.3-1.4-8.5-3.9l-4.7,8.7
			c3.4,3.4,7.9,5.1,13.9,5.1c9,0,14.8-6.2,14.8-15C195.4,24,179.6,23.4,179.6,16.6"/>
		<path class="st2" d="M213.1,3.5h-11.2V53h23.3v-9.8h-12.1V3.5z"/>
		<path class="st2" d="M231.6,53h23.3v-9.8h-12.1V32.7h11.6v-9.8h-11.6v-9.6h12.1V3.5h-23.3V53z"/>
		<path class="st2" d="M262.1,53h23.3v-9.8h-12.1V32.7h11.6v-9.8h-11.6v-9.6h12.1V3.5h-23.3V53z"/>
		<path class="st2" d="M307.6,3.5h-14.9V53h11.2V35.6h3.7c10.3,0,15-7.5,15-16S317.9,3.5,307.6,3.5 M306.3,25.8h-2.4V13.3h2.4
			c3.1,0,4.9,2.4,4.9,6.2C311.2,23.4,309.4,25.8,306.3,25.8"/>
		<path class="st2" d="M328.2,41.3c-3.4,0-6.1,2.8-6.2,6.2c-0.2,2.9,2.1,5.4,5,5.6c0.1,0,0.2,0,0.3,0c0.5,0,1-0.1,1.5-0.2
			c-0.7,2.6-3.6,5.8-5.9,7l4.3,3.4c4.7-3.3,7.9-8.4,7.9-14C335.1,44.1,331.9,41.3,328.2,41.3"/>
	</g>
</g>
</svg>
