<svg xmlns="http://www.w3.org/2000/svg" width="135.943" height="125.876" viewBox="0 0 135.943 125.876">
  <defs>
    <style>
      .cls-1 {
        fill: #766cbf;
      }

      .cls-2 {
        fill: #694890;
      }
    </style>
  </defs>
  <g id="그룹_2511" data-name="그룹 2511" transform="translate(-286.301 -4673.123)">
    <rect id="사각형_3764" data-name="사각형 3764" class="cls-1" width="143.813" height="41.773" transform="translate(286.301 4767.473) rotate(-41)"/>
    <path id="패스_3186" data-name="패스 3186" class="cls-2" d="M7.252,28.148l6.555-6.555,6.556,6.555L13.807,34.7Zm14.525,0,6.555-6.555,6.556,6.555L28.332,34.7Zm14.525,0,6.555-6.555,6.556,6.555L42.857,34.7Zm14.525,0,6.556-6.555,6.555,6.555L57.383,34.7Zm14.525,0,6.556-6.555,6.554,6.555L71.908,34.7Zm14.525,0,6.555-6.555,6.555,6.555L86.432,34.7Zm14.524,0,6.556-6.555,6.555,6.555L100.957,34.7Zm14.525,0,6.555-6.555,6.556,6.555L115.481,34.7Zm14.525,0,6.555-6.555,6.556,6.555L130.006,34.7ZM87.139,20.885l6.555-6.554,6.556,6.555-6.555,6.555Zm-72.624,0,6.554-6.555,6.556,6.555-6.556,6.556Zm14.524,0,6.555-6.555,6.556,6.555-6.556,6.556Zm14.525,0L50.12,14.33l6.555,6.555L50.12,27.441Zm14.525,0,6.556-6.555L71.2,20.885l-6.555,6.556Zm14.525,0L79.17,14.33l6.555,6.555L79.17,27.441Zm29.049,0,6.556-6.556,6.556,6.555-6.556,6.556Zm14.526,0,6.555-6.555,6.556,6.555-6.556,6.556ZM7.252,13.623l6.556-6.555,6.555,6.554-6.556,6.556Zm14.525,0,6.555-6.554,6.556,6.554-6.556,6.556Zm29.05,0,6.556-6.554,6.555,6.554-6.555,6.556Zm14.525,0,6.556-6.554,6.554,6.554-6.554,6.556Zm14.525,0,6.555-6.554,6.555,6.555-6.555,6.555Zm14.524,0,6.556-6.555,6.556,6.555-6.556,6.556Zm14.525,0,6.556-6.555,6.555,6.554-6.556,6.556Zm14.525,0,6.555-6.554,6.556,6.554-6.556,6.556Zm-87.149,0,6.555-6.555,6.556,6.555-6.556,6.556ZM135.66,0l-5.654,5.654L124.352,0h-1.413L129.3,6.36l-6.556,6.556-6.555-6.555L122.55,0h-1.414l-5.654,5.654L109.827,0h-1.414l6.362,6.361-6.556,6.555-6.556-6.555L108.025,0h-1.414l-5.654,5.654L95.3,0H93.888l6.362,6.361-6.556,6.556L87.138,6.361,93.5,0H92.086L86.432,5.654,80.777,0H79.363l6.361,6.361L79.17,12.916,72.614,6.36,78.975,0H77.561L71.908,5.654,66.254,0H64.839L71.2,6.36l-6.555,6.556L58.089,6.36,64.45,0H63.036L57.383,5.654,51.729,0H50.315l6.36,6.36L50.12,12.916,43.564,6.36,49.925,0H48.511L42.857,5.653,37.2,0H35.79l6.36,6.36-6.556,6.556L29.039,6.36,35.4,0H33.986L28.332,5.654,22.679,0H21.265l6.36,6.36-6.556,6.556L14.515,6.361,20.876,0H19.462L13.808,5.654,8.153,0H6.739L13.1,6.361,6.545,12.917,0,6.371V7.785l5.839,5.838L0,19.462v1.414l6.545-6.545L13.1,20.885,6.545,27.441,0,20.9V22.31l5.838,5.838L0,33.986V35.4l6.545-6.545L13.1,35.41,6.738,41.773H8.152l5.655-5.656,5.656,5.656h1.414L14.515,35.41l6.554-6.555,6.556,6.555-6.362,6.363h1.414l5.655-5.656,5.655,5.656H35.4L29.039,35.41l6.555-6.555L42.15,35.41l-6.362,6.363H37.2l5.655-5.655,5.655,5.655h1.414L43.564,35.41l6.556-6.555,6.555,6.555-6.362,6.363h1.414l5.656-5.656,5.655,5.656h1.414L58.089,35.41l6.556-6.555L71.2,35.41l-6.362,6.363h1.414l5.656-5.656,5.654,5.656h1.414L72.614,35.41l6.556-6.555,6.555,6.555-6.362,6.363h1.414l5.655-5.656,5.655,5.656H93.5L87.139,35.41l6.556-6.555,6.555,6.555-6.363,6.363H95.3l5.657-5.656,5.655,5.656h1.414l-6.363-6.363,6.556-6.555,6.556,6.555-6.362,6.363h1.413l5.655-5.655,5.656,5.655h1.414l-6.362-6.363,6.555-6.555L129.3,35.41l-6.363,6.363h1.414l5.655-5.656,5.656,5.656h1.414l-6.362-6.363,6.555-6.555,6.544,6.544V33.985l-5.837-5.837,5.837-5.838V20.9l-6.544,6.545-6.555-6.556,6.555-6.555,6.544,6.545V19.461l-5.837-5.839,5.837-5.836V6.372l-6.544,6.544L130.714,6.36,137.074,0Z" transform="translate(286.301 4767.473) rotate(-41)"/>
  </g>
</svg>
