<svg xmlns="http://www.w3.org/2000/svg" width="1385.269" height="520.334" viewBox="0 0 1385.269 520.334">
  <defs>
    <style>
      .cls-1 {
        fill: none;
        stroke: #60522b;
        stroke-miterlimit: 10;
      }
    </style>
  </defs>
  <g id="그룹_2107" data-name="그룹 2107" transform="translate(-267.734 -4006.5)">
    <g id="그룹_2105" data-name="그룹 2105">
      <line id="선_179" data-name="선 179" class="cls-1" y2="519.218" transform="translate(1395.092 4007)"/>
      <line id="선_180" data-name="선 180" class="cls-1" y2="519.218" transform="translate(1446.574 4007)"/>
      <line id="선_181" data-name="선 181" class="cls-1" y2="519.218" transform="translate(1498.057 4007)"/>
      <line id="선_182" data-name="선 182" class="cls-1" y2="519.218" transform="translate(1549.539 4007)"/>
      <line id="선_183" data-name="선 183" class="cls-1" y2="519.218" transform="translate(1601.021 4007)"/>
      <line id="선_184" data-name="선 184" class="cls-1" y2="519.218" transform="translate(1652.503 4007)"/>
      <line id="선_185" data-name="선 185" class="cls-1" y2="519.218" transform="translate(1346.098 4007)"/>
      <line id="선_186" data-name="선 186" class="cls-1" y2="519.218" transform="translate(1297.104 4007)"/>
      <line id="선_187" data-name="선 187" class="cls-1" y2="519.218" transform="translate(1248.11 4007)"/>
      <line id="선_188" data-name="선 188" class="cls-1" y2="519.218" transform="translate(1199.117 4007)"/>
      <line id="선_189" data-name="선 189" class="cls-1" y2="519.218" transform="translate(1150.123 4007)"/>
      <line id="선_190" data-name="선 190" class="cls-1" y2="519.218" transform="translate(1101.129 4007)"/>
      <line id="선_191" data-name="선 191" class="cls-1" y2="519.218" transform="translate(1052.135 4007)"/>
      <line id="선_192" data-name="선 192" class="cls-1" y2="519.218" transform="translate(1003.141 4007)"/>
      <line id="선_193" data-name="선 193" class="cls-1" y2="519.218" transform="translate(954.147 4007)"/>
      <line id="선_194" data-name="선 194" class="cls-1" y2="519.218" transform="translate(905.154 4007)"/>
      <line id="선_195" data-name="선 195" class="cls-1" y2="519.218" transform="translate(856.16 4007)"/>
      <line id="선_196" data-name="선 196" class="cls-1" y2="519.218" transform="translate(807.167 4007)"/>
      <line id="선_197" data-name="선 197" class="cls-1" y2="519.218" transform="translate(758.172 4007)"/>
      <line id="선_198" data-name="선 198" class="cls-1" y2="519.218" transform="translate(709.178 4007)"/>
      <line id="선_199" data-name="선 199" class="cls-1" y2="519.218" transform="translate(660.184 4007)"/>
      <line id="선_200" data-name="선 200" class="cls-1" y2="519.218" transform="translate(611.191 4007)"/>
      <line id="선_201" data-name="선 201" class="cls-1" y2="519.218" transform="translate(562.197 4007)"/>
      <line id="선_202" data-name="선 202" class="cls-1" y2="519.218" transform="translate(513.203 4007)"/>
      <line id="선_203" data-name="선 203" class="cls-1" y2="519.218" transform="translate(464.209 4007)"/>
      <line id="선_204" data-name="선 204" class="cls-1" y2="519.218" transform="translate(415.215 4007)"/>
      <line id="선_205" data-name="선 205" class="cls-1" y2="519.218" transform="translate(366.221 4007)"/>
      <line id="선_206" data-name="선 206" class="cls-1" y2="519.218" transform="translate(317.229 4007)"/>
      <line id="선_207" data-name="선 207" class="cls-1" y2="519.218" transform="translate(268.234 4007)"/>
    </g>
    <g id="그룹_2106" data-name="그룹 2106">
      <line id="선_208" data-name="선 208" class="cls-1" x2="1384.268" transform="translate(268.234 4526.334)"/>
      <line id="선_209" data-name="선 209" class="cls-1" x2="1384.268" transform="translate(268.234 4474.4)"/>
      <line id="선_210" data-name="선 210" class="cls-1" x2="1384.268" transform="translate(268.234 4422.467)"/>
      <line id="선_211" data-name="선 211" class="cls-1" x2="1384.268" transform="translate(268.234 4370.533)"/>
      <line id="선_212" data-name="선 212" class="cls-1" x2="1384.268" transform="translate(268.234 4318.602)"/>
      <line id="선_213" data-name="선 213" class="cls-1" x2="1384.268" transform="translate(268.234 4266.666)"/>
      <line id="선_214" data-name="선 214" class="cls-1" x2="1384.268" transform="translate(268.234 4214.734)"/>
      <line id="선_215" data-name="선 215" class="cls-1" x2="1384.268" transform="translate(268.234 4162.799)"/>
      <line id="선_216" data-name="선 216" class="cls-1" x2="1384.268" transform="translate(268.234 4110.867)"/>
      <line id="선_217" data-name="선 217" class="cls-1" x2="1384.268" transform="translate(268.234 4058.934)"/>
      <line id="선_218" data-name="선 218" class="cls-1" x2="1384.268" transform="translate(268.234 4007)"/>
    </g>
  </g>
</svg>
