<svg xmlns="http://www.w3.org/2000/svg" width="295.137" height="180.956" viewBox="0 0 295.137 180.956">
  <defs>
    <style>
      .cls-1 {
        fill: #9ad0ff;
      }

      .cls-2 {
        fill: #7f54a5;
      }
    </style>
  </defs>
  <g id="그룹_2117" data-name="그룹 2117" transform="translate(-1651.501 -4821.572) rotate(-7)">
    <path id="패스_3178" data-name="패스 3178" class="cls-1" d="M126.293,2.116,5.095,49.359a8,8,0,0,0,0,14.907l121.2,47.243a31,31,0,0,0,22.517,0l121.2-47.243a8,8,0,0,0,0-14.907L148.81,2.116a31,31,0,0,0-22.517,0" transform="translate(1042.912 5057.571) rotate(-8)"/>
    <path id="패스_3380" data-name="패스 3380" class="cls-2" d="M16.512,0,10.344-16.008H6.072L-.1,0H3.768L4.776-2.712H11.64L12.648,0ZM10.7-5.712H5.712l2.5-6.888Zm13.536,6a7.333,7.333,0,0,0,6.672-3.936L27.984-5.064A4.33,4.33,0,0,1,24.24-2.736,4.99,4.99,0,0,1,19.2-7.992a4.99,4.99,0,0,1,5.04-5.256,4.33,4.33,0,0,1,3.744,2.328l2.928-1.44a7.274,7.274,0,0,0-6.672-3.912c-4.824,0-8.544,3.336-8.544,8.28C15.7-3.072,19.416.288,24.24.288ZM43.56,0V-3H35.64V-6.648h7.752v-3H35.64v-3.36h7.92v-3H32.232V0ZM65.352,0V-16.008H61.92V-9.72H54.36v-6.288H50.952V0H54.36V-6.744h7.56V0ZM75.384.288a8.037,8.037,0,0,0,8.352-8.28,8.037,8.037,0,0,0-8.352-8.28,8.043,8.043,0,0,0-8.376,8.28A8.043,8.043,0,0,0,75.384.288Zm0-3.024c-2.976,0-4.872-2.28-4.872-5.256,0-3,1.9-5.256,4.872-5.256,2.952,0,4.848,2.256,4.848,5.256C80.232-5.016,78.336-2.736,75.384-2.736ZM91.968,0V-13.008h4.656v-3H83.856v3h4.68V0Zm17.448,0V-3H101.5V-6.648h7.752v-3H101.5v-3.36h7.92v-3H98.088V0Zm12,0V-3h-6.768V-16.008h-3.432V0Z" transform="translate(1127.852 5110.31) rotate(-8)"/>
  </g>
</svg>
