<?xml version="1.0" encoding="utf-8"?>
<!-- Generator: Adobe Illustrator 26.0.3, SVG Export Plug-In . SVG Version: 6.00 Build 0)  -->
<svg version="1.1" id="레이어_1" xmlns="http://www.w3.org/2000/svg" xmlns:xlink="http://www.w3.org/1999/xlink" x="0px"
	 y="0px" viewBox="0 0 1385.3 520.3" style="enable-background:new 0 0 1385.3 520.3;" xml:space="preserve">
<style type="text/css">
	.st0{fill:none;stroke:#426A30;stroke-miterlimit:10;}
</style>
<g id="그룹_2107" transform="translate(-267.734 -4006.5)">
	<g id="그룹_2105">
		<line id="선_179" class="st0" x1="1395.1" y1="4007" x2="1395.1" y2="4526.2"/>
		<line id="선_180" class="st0" x1="1446.6" y1="4007" x2="1446.6" y2="4526.2"/>
		<line id="선_181" class="st0" x1="1498.1" y1="4007" x2="1498.1" y2="4526.2"/>
		<line id="선_182" class="st0" x1="1549.5" y1="4007" x2="1549.5" y2="4526.2"/>
		<line id="선_183" class="st0" x1="1601" y1="4007" x2="1601" y2="4526.2"/>
		<line id="선_184" class="st0" x1="1652.5" y1="4007" x2="1652.5" y2="4526.2"/>
		<line id="선_185" class="st0" x1="1346.1" y1="4007" x2="1346.1" y2="4526.2"/>
		<line id="선_186" class="st0" x1="1297.1" y1="4007" x2="1297.1" y2="4526.2"/>
		<line id="선_187" class="st0" x1="1248.1" y1="4007" x2="1248.1" y2="4526.2"/>
		<line id="선_188" class="st0" x1="1199.1" y1="4007" x2="1199.1" y2="4526.2"/>
		<line id="선_189" class="st0" x1="1150.1" y1="4007" x2="1150.1" y2="4526.2"/>
		<line id="선_190" class="st0" x1="1101.1" y1="4007" x2="1101.1" y2="4526.2"/>
		<line id="선_191" class="st0" x1="1052.1" y1="4007" x2="1052.1" y2="4526.2"/>
		<line id="선_192" class="st0" x1="1003.1" y1="4007" x2="1003.1" y2="4526.2"/>
		<line id="선_193" class="st0" x1="954.1" y1="4007" x2="954.1" y2="4526.2"/>
		<line id="선_194" class="st0" x1="905.2" y1="4007" x2="905.2" y2="4526.2"/>
		<line id="선_195" class="st0" x1="856.2" y1="4007" x2="856.2" y2="4526.2"/>
		<line id="선_196" class="st0" x1="807.2" y1="4007" x2="807.2" y2="4526.2"/>
		<line id="선_197" class="st0" x1="758.2" y1="4007" x2="758.2" y2="4526.2"/>
		<line id="선_198" class="st0" x1="709.2" y1="4007" x2="709.2" y2="4526.2"/>
		<line id="선_199" class="st0" x1="660.2" y1="4007" x2="660.2" y2="4526.2"/>
		<line id="선_200" class="st0" x1="611.2" y1="4007" x2="611.2" y2="4526.2"/>
		<line id="선_201" class="st0" x1="562.2" y1="4007" x2="562.2" y2="4526.2"/>
		<line id="선_202" class="st0" x1="513.2" y1="4007" x2="513.2" y2="4526.2"/>
		<line id="선_203" class="st0" x1="464.2" y1="4007" x2="464.2" y2="4526.2"/>
		<line id="선_204" class="st0" x1="415.2" y1="4007" x2="415.2" y2="4526.2"/>
		<line id="선_205" class="st0" x1="366.2" y1="4007" x2="366.2" y2="4526.2"/>
		<line id="선_206" class="st0" x1="317.2" y1="4007" x2="317.2" y2="4526.2"/>
		<line id="선_207" class="st0" x1="268.2" y1="4007" x2="268.2" y2="4526.2"/>
	</g>
	<g id="그룹_2106">
		<line id="선_208" class="st0" x1="268.2" y1="4526.3" x2="1652.5" y2="4526.3"/>
		<line id="선_209" class="st0" x1="268.2" y1="4474.4" x2="1652.5" y2="4474.4"/>
		<line id="선_210" class="st0" x1="268.2" y1="4422.5" x2="1652.5" y2="4422.5"/>
		<line id="선_211" class="st0" x1="268.2" y1="4370.5" x2="1652.5" y2="4370.5"/>
		<line id="선_212" class="st0" x1="268.2" y1="4318.6" x2="1652.5" y2="4318.6"/>
		<line id="선_213" class="st0" x1="268.2" y1="4266.7" x2="1652.5" y2="4266.7"/>
		<line id="선_214" class="st0" x1="268.2" y1="4214.7" x2="1652.5" y2="4214.7"/>
		<line id="선_215" class="st0" x1="268.2" y1="4162.8" x2="1652.5" y2="4162.8"/>
		<line id="선_216" class="st0" x1="268.2" y1="4110.9" x2="1652.5" y2="4110.9"/>
		<line id="선_217" class="st0" x1="268.2" y1="4058.9" x2="1652.5" y2="4058.9"/>
		<line id="선_218" class="st0" x1="268.2" y1="4007" x2="1652.5" y2="4007"/>
	</g>
</g>
</svg>
