<svg xmlns="http://www.w3.org/2000/svg" width="198.107" height="97.538" viewBox="0 0 198.107 97.538">
  <defs>
    <style>
      .cls-1 {
        fill: #a5db66;
      }

      .cls-2 {
        fill: #306763;
      }
    </style>
  </defs>
  <g id="그룹_2110" data-name="그룹 2110" transform="translate(-963 -4024)">
    <rect id="사각형_3760" data-name="사각형 3760" class="cls-1" width="191" height="78" transform="matrix(0.995, 0.105, -0.105, 0.995, 971.153, 4024)"/>
    <path id="패스_3381" data-name="패스 3381" class="cls-2" d="M7.3.288c4.3,0,6.408-2.208,6.408-5.136,0-5.976-9.192-4.272-9.192-6.792,0-.96.816-1.584,2.256-1.584a6.876,6.876,0,0,1,4.656,1.752l1.9-2.544a8.9,8.9,0,0,0-6.24-2.232c-3.768,0-6.072,2.208-6.072,4.872,0,6.024,9.216,4.08,9.216,6.864,0,.936-.888,1.776-2.784,1.776A7.033,7.033,0,0,1,2.352-4.92L.48-2.256A9.244,9.244,0,0,0,7.3.288ZM22.08,0V-13.008h4.656v-3H13.968v3h4.68V0ZM41.592,0,35.424-16.008H31.152L24.984,0h3.864l1.008-2.712H36.72L37.728,0ZM35.784-5.712H30.792l2.5-6.888ZM55.344,0,51.72-6.1a4.63,4.63,0,0,0,3.528-4.752c0-2.976-2.064-5.16-5.4-5.16H42.36V0h3.408V-5.688h2.5L51.408,0ZM49.368-8.688h-3.6v-4.32h3.6a2.161,2.161,0,0,1,2.376,2.136A2.17,2.17,0,0,1,49.368-8.688ZM65.76,0c3.072,0,4.656-1.92,4.656-4.344a3.849,3.849,0,0,0-3.072-3.912,3.575,3.575,0,0,0,2.76-3.672c0-2.136-1.56-4.08-4.608-4.08H57.072V0ZM64.752-9.648H60.48v-3.36h4.272a1.683,1.683,0,0,1,1.872,1.68A1.658,1.658,0,0,1,64.752-9.648ZM64.9-3H60.48V-6.648H64.9a1.829,1.829,0,0,1,2.04,1.824C66.936-3.672,66.168-3,64.9-3ZM79.488.288c4.872,0,7.224-2.736,7.224-6.7v-9.6h-3.48v9.5a3.45,3.45,0,0,1-3.744,3.768A3.468,3.468,0,0,1,75.72-6.5v-9.5H72.264v9.6C72.264-2.448,74.616.288,79.488.288Zm17.448,0a7.333,7.333,0,0,0,6.672-3.936L100.68-5.064a4.33,4.33,0,0,1-3.744,2.328A4.99,4.99,0,0,1,91.9-7.992a4.99,4.99,0,0,1,5.04-5.256,4.33,4.33,0,0,1,3.744,2.328l2.928-1.44a7.274,7.274,0,0,0-6.672-3.912c-4.824,0-8.544,3.336-8.544,8.28C88.392-3.072,92.112.288,96.936.288ZM118.632,0,111.84-8.5l6.36-7.512H114L108.336-8.88v-7.128h-3.408V0h3.408V-4.92l1.248-1.512L114.432,0Zm6.552.288c4.3,0,6.408-2.208,6.408-5.136,0-5.976-9.192-4.272-9.192-6.792,0-.96.816-1.584,2.256-1.584a6.876,6.876,0,0,1,4.656,1.752l1.9-2.544a8.9,8.9,0,0,0-6.24-2.232c-3.768,0-6.072,2.208-6.072,4.872,0,6.024,9.216,4.08,9.216,6.864,0,.936-.888,1.776-2.784,1.776A7.033,7.033,0,0,1,120.24-4.92l-1.872,2.664A9.244,9.244,0,0,0,125.184.288Z" transform="matrix(0.995, 0.105, -0.105, 0.995, 995.553, 4073.133)"/>
  </g>
</svg>
