<svg xmlns="http://www.w3.org/2000/svg" width="471.313" height="471.233" viewBox="0 0 471.313 471.233">
  <defs>
    <style>
      .cls-1 {
        fill: #c34247;
      }

      .cls-2 {
        fill: #ff9438;
      }
    </style>
  </defs>
  <g id="그룹_2209" data-name="그룹 2209" transform="translate(-724 -1424)">
    <path id="패스_2816" data-name="패스 2816" class="cls-1" d="M662.7,18.713l2.719-3.523a9.613,9.613,0,0,0,6.814,3.292c2.589.116,3.853-.977,3.91-2.255.17-3.8-12.533-1.709-12.165-9.935.162-3.638,3.443-6.512,8.588-6.282a12.171,12.171,0,0,1,8.384,3.428L678.2,6.8a9.4,9.4,0,0,0-6.251-2.677c-1.967-.088-3.119.715-3.177,2.025-.154,3.441,12.5,1.675,12.137,9.835-.178,4-3.2,6.884-9.063,6.622a12.633,12.633,0,0,1-9.152-3.889" transform="translate(297.61 1424.003)"/>
    <rect id="사각형_3582" data-name="사각형 3582" class="cls-1" width="21.882" height="4.658" transform="matrix(0.11, -0.994, 0.994, 0.11, 981.093, 1447.039)"/>
    <path id="패스_2817" data-name="패스 2817" class="cls-1" d="M763.9,31.582l3.065-15.48-9.115,14.283-2-.4-2.986-16.678L749.8,28.791l-4.57-.9,4.25-21.466,6.4,1.268,2.557,14.453,7.87-12.388,6.437,1.274L768.5,32.493Z" transform="translate(244.506 1419.871)"/>
    <path id="패스_2818" data-name="패스 2818" class="cls-1" d="M838.76,50.916,843.8,35.962,832.915,48.947l-1.927-.649-.807-16.923-5.038,14.954-4.415-1.487L827.714,24.1l6.187,2.084.669,14.661,9.4-11.268,6.218,2.095-6.986,20.737Z" transform="translate(195.93 1408.492)"/>
    <path id="패스_2819" data-name="패스 2819" class="cls-1" d="M902,67.144c2.853-5.944,9.244-8.115,15.218-5.248a11.317,11.317,0,1,1-9.795,20.4c-5.974-2.868-8.276-9.213-5.423-15.157M918.3,74.966c1.774-3.7.773-7.6-2.865-9.344-3.667-1.76-7.337-.1-9.112,3.595-1.76,3.667-.773,7.6,2.894,9.358,3.637,1.746,7.322.058,9.082-3.609" transform="translate(144.419 1384.984)"/>
    <path id="패스_2820" data-name="패스 2820" class="cls-1" d="M968.3,112.848,967.05,95.215l-7.583,12.09-3.947-2.475,11.628-18.538,4.058,2.545,1.284,17.032,7.3-11.645L983.74,96.7l-11.628,18.538Z" transform="translate(109.202 1368.48)"/>
    <path id="패스_2821" data-name="패스 2821" class="cls-1" d="M1012.869,143.375l4.254-1.308a9.615,9.615,0,0,0,3.664,6.623c2.047,1.589,3.711,1.426,4.495.416,2.333-3.006-9.247-8.631-4.2-15.136,2.233-2.877,6.572-3.33,10.64-.172a12.172,12.172,0,0,1,4.867,7.64l-4.179,1.158a9.4,9.4,0,0,0-3.559-5.794c-1.555-1.207-2.959-1.217-3.764-.18-2.112,2.721,9.241,8.585,4.233,15.039-2.454,3.162-6.586,3.776-11.224.175a12.634,12.634,0,0,1-5.227-8.46" transform="translate(72.303 1339.318)"/>
    <path id="패스_2822" data-name="패스 2822" class="cls-1" d="M1084.4,193.583c4.955-4.833,11.767-4.145,16.257.458a10.214,10.214,0,0,1,2.8,9.871l-4.183-1.282a6.287,6.287,0,0,0-1.576-5.7,7.191,7.191,0,0,0-10.286,10.033,7.281,7.281,0,0,0,4.427,2.143l1.879-1.832-4.032-4.133,2.912-2.841,7.284,7.468-6.011,5.864a12.1,12.1,0,0,1-9.418-3.782c-4.49-4.6-4.985-11.452-.053-16.263" transform="translate(28.537 1301.585)"/>
    <path id="패스_2823" data-name="패스 2823" class="cls-1" d="M1123.448,255.31l3.417-8.2-2.121-2.672-6.089,4.833-2.9-3.648,17.137-13.6,6.362,8.016c2.835,3.571,2.251,7.637-.935,10.165a6.33,6.33,0,0,1-8.086.261l-3.446,9.059Zm11.924-8.878a2.954,2.954,0,0,0,.268-4.358l-3.059-3.854-4.625,3.671,3.059,3.854a2.967,2.967,0,0,0,4.357.688" transform="translate(6.101 1274.714)"/>
    <path id="패스_2824" data-name="패스 2824" class="cls-1" d="M1166.167,293.419c5.569-3.531,12.141-1.988,15.69,3.608a11.319,11.319,0,1,1-19.117,12.123c-3.549-5.6-2.142-12.2,3.427-15.731m9.68,15.266c3.463-2.2,4.679-6.036,2.519-9.444-2.179-3.436-6.171-3.973-9.634-1.776-3.435,2.178-4.679,6.036-2.5,9.472,2.161,3.408,6.181,3.927,9.617,1.749" transform="translate(-22.876 1236.426)"/>
    <path id="패스_2825" data-name="패스 2825" class="cls-1" d="M1202.637,356.108c6.068-2.975,12.4-.416,15.3,5.5a9.943,9.943,0,0,1-.787,10.543l-3.529-2.728a5.919,5.919,0,0,0,.6-6,7.191,7.191,0,0,0-12.9,6.325,5.92,5.92,0,0,0,5.11,3.195l.024,4.446a10.025,10.025,0,0,1-8.845-5.821c-2.9-5.921-1.017-12.509,5.022-15.469" transform="translate(-45.705 1195.677)"/>
    <path id="패스_2826" data-name="패스 2826" class="cls-1" d="M1214.547,416.691l20.483-7.7,5.447,14.495-3.839,1.442L1232.83,414.8l-4.3,1.616,3.728,9.919-3.839,1.442-3.728-9.919-4.668,1.754,3.808,10.134-3.839,1.442Z" transform="translate(-57.46 1160.848)"/>
    <path id="패스_2827" data-name="패스 2827" class="cls-1" d="M1235.941,481.487l6.37-6.193-.9-3.292-7.5,2.047-1.226-4.494L1253.8,463.8l2.694,9.875c1.2,4.4-.937,7.907-4.862,8.978a6.329,6.329,0,0,1-7.536-2.943l-6.735,6.973Zm14.458-3.468a2.954,2.954,0,0,0,1.962-3.9l-1.3-4.748-5.7,1.554,1.3,4.748a2.967,2.967,0,0,0,3.735,2.347" transform="translate(-69.13 1125.588)"/>
    <path id="패스_2828" data-name="패스 2828" class="cls-1" d="M1250.03,529.677l8.825-1.528,11.3-10.481.907,5.237-7.707,6.829,9.555,3.839.9,5.2-14.164-6.037-8.825,1.529Z" transform="translate(-80.291 1090.925)"/>
    <path id="패스_2829" data-name="패스 2829" class="cls-1" d="M1261.485,610.769l3.739,2.414a9.615,9.615,0,0,0-2.711,7.067c.1,2.59,1.3,3.758,2.575,3.708,3.8-.149.654-12.633,8.883-12.956,3.639-.143,6.778,2.887,6.98,8.034a12.172,12.172,0,0,1-2.715,8.642l-3.576-2.453a9.4,9.4,0,0,0,2.144-6.454c-.077-1.967-.973-3.048-2.284-3-3.442.135-.623,12.6-8.786,12.919-4,.157-7.128-2.61-7.358-8.478a12.636,12.636,0,0,1,3.11-9.446" transform="translate(-85.651 1031.022)"/>
    <path id="패스_2830" data-name="패스 2830" class="cls-1" d="M1259.207,672.509l17.762.829.3-6.39,4.1.191-.813,17.434-4.1-.192.3-6.357-17.762-.829Z" transform="translate(-86.054 994.876)"/>
    <path id="패스_2831" data-name="패스 2831" class="cls-1" d="M1265.227,719.81c6.526.946,10.509,6.4,9.558,12.955a11.319,11.319,0,1,1-22.4-3.248c.951-6.558,6.318-10.653,12.844-9.707m-2.593,17.889c4.058.588,7.482-1.534,8.061-5.527.583-4.026-2.1-7.033-6.155-7.622-4.026-.584-7.482,1.534-8.065,5.56-.579,3.994,2.134,7.005,6.16,7.589" transform="translate(-81.716 960.95)"/>
    <path id="패스_2832" data-name="패스 2832" class="cls-1" d="M1236.131,798.834l8.6-2.237.845-3.306-7.532-1.926,1.154-4.513,21.2,5.422-2.536,9.915c-1.13,4.418-4.721,6.411-8.662,5.4a6.328,6.328,0,0,1-5.1-6.281l-9.3,2.734Zm14.283,4.127a2.954,2.954,0,0,0,3.633-2.423l1.219-4.767-5.721-1.463-1.22,4.767a2.967,2.967,0,0,0,2.088,3.886" transform="translate(-70.49 917.727)"/>
    <path id="패스_2833" data-name="패스 2833" class="cls-1" d="M1222.693,842.994l20.6,7.37-5.216,14.58-3.861-1.381,3.647-10.193-4.324-1.547-3.569,9.977-3.861-1.381,3.569-9.977-4.7-1.68-3.647,10.193-3.861-1.381Z" transform="translate(-59.346 881.605)"/>
    <path id="패스_2834" data-name="패스 2834" class="cls-2" d="M1220.557,927.161l3.172,1.729-.417-3.561,2.052-.167.109,3.593,2.869-2.141,1.132,1.72-3.063,1.864,3.316,1.434-.906,1.858-3.171-1.729.416,3.561-2.052.167-.079-3.579-2.9,2.127-1.132-1.72,3.062-1.864-3.315-1.435Z" transform="translate(-60.744 828.736)"/>
    <path id="패스_2835" data-name="패스 2835" class="cls-1" d="M1170.652,963.818l1.706,4.11a9.616,9.616,0,0,0-6.244,4.277c-1.387,2.189-1.067,3.829.014,4.514,3.215,2.037,7.713-10.026,14.668-5.619,3.076,1.949,3.94,6.225,1.183,10.575a12.171,12.171,0,0,1-7.142,5.572l-1.551-4.05a9.4,9.4,0,0,0,5.429-4.094c1.053-1.663.93-3.062-.178-3.764-2.91-1.844-7.667,10.016-14.567,5.644-3.381-2.142-4.385-6.2-1.242-11.156a12.634,12.634,0,0,1,7.924-6.009" transform="translate(-22.898 803.864)"/>
    <rect id="사각형_3583" data-name="사각형 3583" class="cls-1" width="4.658" height="21.881" transform="translate(1130.923 1787.325) rotate(-53.858)"/>
    <path id="패스_2836" data-name="패스 2836" class="cls-1" d="M1094.493,1042.766l11.911,10.351-7.865-15.006,1.334-1.535,15.956,5.7-11.91-10.351,3.055-3.516,16.516,14.354-4.282,4.927-13.812-4.962,6.84,12.985-4.3,4.953-16.516-14.353Z" transform="translate(21.765 762.309)"/>
    <path id="패스_2837" data-name="패스 2837" class="cls-1" d="M1037.785,1098.81l10.495,11.785-5.888-15.887,1.519-1.353,15.1,7.683-10.495-11.785,3.479-3.1,14.553,16.342-4.876,4.342-13.068-6.682,5.129,13.752-4.9,4.364-14.553-16.342Z" transform="translate(58.526 725.15)"/>
    <path id="패스_2838" data-name="패스 2838" class="cls-1" d="M1007.777,1151.321c3.757,5.419,2.485,12.049-2.961,15.824a11.318,11.318,0,1,1-12.9-18.6c5.446-3.776,12.1-2.64,15.857,2.779m-14.855,10.3c2.336,3.37,6.223,4.428,9.539,2.129,3.343-2.317,3.716-6.328,1.38-9.7-2.317-3.343-6.223-4.428-9.566-2.11-3.316,2.3-3.67,6.337-1.353,9.68" transform="translate(89.055 686.434)"/>
    <path id="패스_2839" data-name="패스 2839" class="cls-1" d="M924.157,1182.734l15.948,7.622-6.762-12.566,4.1-2.207,10.369,19.267-4.218,2.27-15.439-7.3,6.513,12.1-4.1,2.207L920.2,1184.864Z" transform="translate(131.928 667.611)"/>
    <path id="패스_2840" data-name="패스 2840" class="cls-1" d="M888.65,1210.9l-.969,4.344a9.613,9.613,0,0,0-7.567-.093c-2.394.993-3.075,2.519-2.585,3.7,1.458,3.515,12.075-3.766,15.23,3.84,1.395,3.364-.358,7.358-5.115,9.331a12.171,12.171,0,0,1-9.047.45l1.062-4.2a9.4,9.4,0,0,0,6.8-.226c1.818-.754,2.522-1.969,2.019-3.181-1.32-3.181-12.033,3.784-15.162-3.761-1.533-3.7-.023-7.59,5.4-9.84a12.633,12.633,0,0,1,9.938-.358" transform="translate(162.461 645.434)"/>
    <path id="패스_2841" data-name="패스 2841" class="cls-1" d="M808.49,1247.526c1.737,6.7-2.24,12.272-8.464,13.886a10.213,10.213,0,0,1-9.959-2.468l3.189-3a6.287,6.287,0,0,0,5.733,1.462,7.19,7.19,0,0,0-3.606-13.908,7.28,7.28,0,0,0-4.057,2.78l.658,2.54,5.589-1.449,1.021,3.938-10.1,2.618-2.107-8.129a12.1,12.1,0,0,1,7.957-6.3c6.224-1.613,12.416,1.356,14.145,8.024" transform="translate(218.025 626.762)"/>
    <path id="패스_2842" data-name="패스 2842" class="cls-1" d="M730.812,1251.312l5.414,7.042,3.373-.511-1.166-7.687,4.606-.7,3.281,21.634-10.119,1.535c-4.508.683-7.745-1.845-8.355-5.867a6.329,6.329,0,0,1,3.794-7.145l-6.147-7.5Zm1.774,14.762a2.954,2.954,0,0,0,3.649,2.4l4.865-.738-.885-5.838-4.865.738a2.967,2.967,0,0,0-2.764,3.439" transform="translate(257.205 620.079)"/>
    <path id="패스_2843" data-name="패스 2843" class="cls-1" d="M680.45,1268.834c.3,6.587-4.309,11.523-10.929,11.821a11.318,11.318,0,1,1-1.017-22.613c6.62-.3,11.65,4.2,11.946,10.792m-18.057.812c.184,4.1,2.912,7.06,6.943,6.879,4.064-.183,6.514-3.38,6.33-7.476-.183-4.064-2.912-7.06-6.975-6.877-4.031.181-6.48,3.411-6.3,7.475" transform="translate(300.892 614.564)"/>
    <path id="패스_2844" data-name="패스 2844" class="cls-1" d="M611.184,1269.2c-.424,6.744-5.784,10.976-12.365,10.563a9.943,9.943,0,0,1-8.766-5.908l4.117-1.714a5.918,5.918,0,0,0,4.908,3.5,7.19,7.19,0,0,0,.9-14.339,5.917,5.917,0,0,0-5.307,2.855l-3.873-2.183a10.024,10.024,0,0,1,9.439-4.8c6.58.414,11.367,5.316,10.945,12.027" transform="translate(344.35 615.129)"/>
    <path id="패스_2845" data-name="패스 2845" class="cls-1" d="M552.549,1251.156l-3.444,21.608-15.291-2.437.645-4.05,10.691,1.7.723-4.535-10.464-1.668.645-4.05,10.464,1.668.785-4.924-10.691-1.7.645-4.049Z" transform="translate(380.535 620.554)"/>
    <path id="패스_2846" data-name="패스 2846" class="cls-1" d="M484.6,1235.874l2.233,8.6,3.305.847,1.931-7.532,4.513,1.157-5.433,21.2-9.916-2.541c-4.418-1.132-6.41-4.725-5.4-8.665a6.33,6.33,0,0,1,6.285-5.1l-2.73-9.3Zm-4.135,14.283a2.954,2.954,0,0,0,2.422,3.635l4.767,1.222,1.466-5.72-4.767-1.222a2.967,2.967,0,0,0-3.887,2.086" transform="translate(418.005 629.679)"/>
    <path id="패스_2847" data-name="패스 2847" class="cls-1" d="M428.323,1223.8l-3.038,8.425,3.517,15.008-5-1.8-2.121-10.076-8.063,6.4-4.969-1.792,12.254-9.322,3.038-8.425Z" transform="translate(461.068 637.607)"/>
    <path id="패스_2848" data-name="패스 2848" class="cls-1" d="M362.262,1196.186l-3.95,2.05a9.613,9.613,0,0,0-4.793-5.858c-2.3-1.2-3.906-.737-4.5.4-1.756,3.376,10.647,6.831,6.847,14.137-1.68,3.23-5.867,4.455-10.436,2.078a12.172,12.172,0,0,1-6.159-6.642l3.9-1.89a9.4,9.4,0,0,0,4.541,5.061c1.746.908,3.129.666,3.735-.5,1.589-3.056-10.632-6.787-6.863-14.034,1.847-3.551,5.8-4.9,11.01-2.187a12.637,12.637,0,0,1,6.661,7.384" transform="translate(505.705 660.03)"/>
    <path id="패스_2849" data-name="패스 2849" class="cls-1" d="M307.163,1165.433l-9.546,15,5.4,3.435-2.2,3.459-14.722-9.37,2.2-3.459,5.368,3.417,9.546-15Z" transform="translate(539.925 675.762)"/>
    <path id="패스_2850" data-name="패스 2850" class="cls-1" d="M261.115,1143.012c-4.065,5.192-10.774,5.938-15.992,1.852a11.318,11.318,0,1,1,13.955-17.822c5.217,4.085,6.1,10.778,2.037,15.969m-14.232-11.144c-2.528,3.229-2.389,7.254.788,9.742,3.2,2.508,7.145,1.677,9.672-1.551,2.508-3.2,2.389-7.254-.814-9.762-3.177-2.487-7.138-1.632-9.646,1.571" transform="translate(569.219 700.518)"/>
    <path id="패스_2851" data-name="패스 2851" class="cls-1" d="M206.749,1076.359l-2.327,8.574,2.45,2.375,5.412-5.582,3.345,3.243L200.4,1100.679l-7.349-7.125c-3.274-3.174-3.222-7.281-.39-10.2a6.329,6.329,0,0,1,7.984-1.307l2.244-9.431Zm-10.675,10.35a2.955,2.955,0,0,0,.3,4.357l3.533,3.425,4.111-4.24-3.533-3.425a2.967,2.967,0,0,0-4.41-.117" transform="translate(601.389 733.863)"/>
    <path id="패스_2852" data-name="패스 2852" class="cls-1" d="M171.421,1045.154,154.814,1059.4l-10.082-11.752,3.112-2.67,7.049,8.217,3.486-2.991-6.9-8.042,3.112-2.671,6.9,8.043,3.784-3.247-7.049-8.216,3.112-2.67Z" transform="translate(630.878 759.092)"/>
    <path id="패스_2853" data-name="패스 2853" class="cls-2" d="M130.5,1008.685l-3.071,1.9,3.3,1.4-.869,1.866-3.177-1.682.443,3.552-2.055.134-.107-3.583-2.886,2.173-1.167-1.706,3.071-1.9-3.3-1.4.869-1.867,3.15,1.7-.416-3.571,2.055-.134.106,3.584,2.886-2.173Z" transform="translate(646.351 777.001)"/>
    <path id="패스_2854" data-name="패스 2854" class="cls-1" d="M95.073,941.264l-4.417-.548a9.613,9.613,0,0,0-.633-7.542c-1.218-2.287-2.8-2.819-3.931-2.218-3.359,1.788,4.906,11.659-2.363,15.528-3.214,1.711-7.358.349-9.778-4.2a12.172,12.172,0,0,1-1.315-8.962l4.287.654a9.4,9.4,0,0,0,.876,6.743c.925,1.737,2.2,2.321,3.36,1.7,3.04-1.619-4.919-11.615,2.291-15.453,3.533-1.881,7.553-.75,10.312,4.433a12.633,12.633,0,0,1,1.308,9.858" transform="translate(677.493 828.119)"/>
    <rect id="사각형_3584" data-name="사각형 3584" class="cls-1" width="21.88" height="4.658" transform="matrix(0.912, -0.41, 0.41, 0.912, 743.854, 1754.018)"/>
    <path id="패스_2855" data-name="패스 2855" class="cls-1" d="M48.7,831.974l-14.891,5.219,16.931.6.673,1.92L38.562,850.753l14.892-5.219,1.54,4.4-20.65,7.236-2.159-6.161,11.152-9.54-14.668-.491-2.17-6.192,20.65-7.237Z" transform="translate(706.949 891.544)"/>
    <path id="패스_2856" data-name="패스 2856" class="cls-1" d="M30.176,756.839l-15.441,3.253,16.713,2.782.419,1.99L17.7,774.153,33.138,770.9l.961,4.558-21.412,4.511-1.346-6.388,12.291-8.021L9.149,763.179,7.8,756.759l21.412-4.511Z" transform="translate(718.984 939.992)"/>
    <path id="패스_2857" data-name="패스 2857" class="cls-1" d="M14.073,705.971c-6.57.563-11.688-3.838-12.254-10.44a10.985,10.985,0,0,1,10.3-12.341A10.986,10.986,0,0,1,24.371,693.6c.566,6.6-3.729,11.81-10.3,12.373m-1.544-18.009c-4.086.35-6.937,3.2-6.592,7.216.347,4.053,3.641,6.371,7.727,6.021,4.053-.348,6.936-3.2,6.589-7.249-.345-4.02-3.671-6.336-7.724-5.988" transform="translate(722.862 984.456)"/>
    <path id="패스_2858" data-name="패스 2858" class="cls-1" d="M22.254,621.34,7.726,631.408l14.265.36-.117,4.657L0,635.873l.121-4.788,14-9.786-13.74-.347L.494,616.3l21.873.552Z" transform="translate(724 1027.466)"/>
    <path id="패스_2859" data-name="패스 2859" class="cls-1" d="M22.335,574.966l-3.3-2.991a9.615,9.615,0,0,0,3.826-6.531c.322-2.572-.667-3.919-1.936-4.078-3.776-.473-2.7,12.358-10.875,11.335-3.613-.453-6.217-3.953-5.577-9.064a12.172,12.172,0,0,1,4.087-8.085l3.129,3a9.4,9.4,0,0,0-3.167,6.018c-.244,1.953.464,3.166,1.765,3.329,3.418.428,2.668-12.329,10.774-11.315,3.971.5,6.608,3.737,5.878,9.564a12.637,12.637,0,0,1-4.608,8.813" transform="translate(721.182 1066.549)"/>
    <path id="패스_2860" data-name="패스 2860" class="cls-1" d="M30.039,486.066c-6.683-1.8-9.558-8.018-7.882-14.226a10.214,10.214,0,0,1,7.071-7.435l1.026,4.253a6.29,6.29,0,0,0-4.107,4.26,6.822,6.822,0,0,0,5.14,8.525,6.821,6.821,0,0,0,8.732-4.778,7.284,7.284,0,0,0-.409-4.9l-2.534-.684-1.505,5.574-3.927-1.06,2.72-10.072,8.108,2.19a12.1,12.1,0,0,1,1.539,10.032c-1.677,6.208-7.321,10.121-13.972,8.324" transform="translate(710.045 1125.196)"/>
    <path id="패스_2861" data-name="패스 2861" class="cls-1" d="M60.705,415.933l-8.8,1.221-1.224,3.185,7.258,2.79-1.672,4.349-20.425-7.854,3.674-9.554c1.637-4.257,5.436-5.819,9.233-4.359a6.33,6.33,0,0,1,4.332,6.833l9.556-1.633ZM47,410.171a2.955,2.955,0,0,0-3.891,1.984l-1.766,4.593,5.512,2.12,1.766-4.593a2.967,2.967,0,0,0-1.621-4.1" transform="translate(700.939 1163.303)"/>
    <path id="패스_2862" data-name="패스 2862" class="cls-1" d="M74.311,363.223c-5.867-3.007-7.872-9.453-4.849-15.349A11.317,11.317,0,1,1,89.6,358.2c-3.023,5.9-9.426,8.033-15.293,5.025m8.245-16.084c-3.649-1.87-7.575-.971-9.415,2.62-1.856,3.62-.294,7.332,3.355,9.2,3.62,1.855,7.575.971,9.431-2.649,1.84-3.59.249-7.318-3.37-9.173" transform="translate(680.206 1204.261)"/>
    <path id="패스_2863" data-name="패스 2863" class="cls-1" d="M109.916,300.9c-5.641-3.721-6.648-10.477-3.017-15.981a9.943,9.943,0,0,1,9.485-4.669l-.561,4.425a5.919,5.919,0,0,0-5.474,2.52,7.191,7.191,0,0,0,11.994,7.912,5.919,5.919,0,0,0,.162-6.024l3.819-2.275a10.024,10.024,0,0,1-.531,10.576c-3.631,5.5-10.265,7.22-15.879,3.517" transform="translate(656.591 1243.708)"/>
    <path id="패스_2864" data-name="패스 2864" class="cls-1" d="M150.491,254.666l-17.035-13.733,9.718-12.055,3.192,2.573-6.794,8.429,3.576,2.882,6.65-8.25,3.193,2.574-6.65,8.249,3.882,3.13,6.794-8.428,3.192,2.573Z" transform="translate(638.132 1276.737)"/>
    <path id="패스_2865" data-name="패스 2865" class="cls-1" d="M194.828,206.367l-8.573-2.331-2.376,2.449,5.58,5.415-3.244,3.343L170.512,200l7.128-7.346c3.176-3.272,7.283-3.218,10.2-.385a6.33,6.33,0,0,1,1.3,7.985l9.43,2.248Zm-10.345-10.679a2.954,2.954,0,0,0-4.357.3l-3.427,3.532,4.238,4.112,3.427-3.532a2.967,2.967,0,0,0,.119-4.41" transform="translate(614.29 1301.64)"/>
    <path id="패스_2866" data-name="패스 2866" class="cls-1" d="M230.023,163.873l-5.816-6.81-14.779-4.376,4.042-3.451,9.8,3.146L221.7,142.207l4.016-3.43,2.031,15.261,5.815,6.811Z" transform="translate(589.25 1334.71)"/>
    <path id="패스_2867" data-name="패스 2867" class="cls-1" d="M296.7,122.292l.17-4.447a9.613,9.613,0,0,0,7.46-1.272c2.176-1.407,2.571-3.031,1.876-4.1-2.067-3.195-11.2,5.879-15.673-1.034-1.978-3.057-.973-7.3,3.351-10.1a12.172,12.172,0,0,1,8.818-2.072l-.287,4.327a9.4,9.4,0,0,0-6.644,1.446c-1.652,1.069-2.126,2.391-1.413,3.493,1.871,2.892,11.155-5.888,15.592.97,2.174,3.36,1.39,7.462-3.541,10.652a12.635,12.635,0,0,1-9.711,2.141" transform="translate(537.691 1360.237)"/>
    <path id="패스_2868" data-name="패스 2868" class="cls-1" d="M346.439,89.829l-8.322-15.712-5.653,2.994-1.919-3.624,15.423-8.169,1.919,3.624-5.624,2.979,8.322,15.712Z" transform="translate(511.322 1381.975)"/>
    <path id="패스_2869" data-name="패스 2869" class="cls-1" d="M390.99,61.5c-2.5-6.1.171-12.3,6.3-14.814a10.986,10.986,0,0,1,14.855,6.144,10.987,10.987,0,0,1-6.273,14.8c-6.131,2.512-12.385-.03-14.885-6.132m16.726-6.854c-1.555-3.794-5.122-5.665-8.856-4.135-3.764,1.542-4.993,5.378-3.438,9.173,1.543,3.764,5.122,5.665,8.886,4.123,3.733-1.53,4.95-5.4,3.408-9.16" transform="translate(473.031 1394.575)"/>
    <path id="패스_2870" data-name="패스 2870" class="cls-1" d="M472.189,44.625,465.9,38.354l-3.277.95,2.164,7.468-4.474,1.3-6.09-21.016,9.831-2.849c4.38-1.269,7.92.813,9.053,4.72a6.33,6.33,0,0,1-2.824,7.581l7.077,6.625Zm-3.695-14.4a2.954,2.954,0,0,0-3.932-1.9l-4.726,1.369,1.643,5.672L466.206,34a2.967,2.967,0,0,0,2.289-3.771" transform="translate(431.747 1408.668)"/>
    <path id="패스_2871" data-name="패스 2871" class="cls-1" d="M519.872,32.219l-4.112-21.492,15.209-2.91.771,4.028L521.107,13.88l.863,4.511L532.377,16.4l.771,4.028L522.74,22.418l.937,4.9,10.633-2.034.771,4.028Z" transform="translate(392.151 1418.972)"/>
    <path id="패스_2872" data-name="패스 2872" class="cls-2" d="M599.937,21.563l-.123-3.61-2.855,2.169-1.187-1.682,3.039-1.921-3.3-1.382.906-1.85,3.162,1.69-.45-3.584,2.06-.164.123,3.61,2.854-2.169,1.188,1.683L602.31,16.24l3.3,1.415-.906,1.849-3.162-1.69L602,21.4Z" transform="translate(340.84 1416.777)"/>
  </g>
</svg>
